<svg id="그룹_14811" data-name="그룹 14811" xmlns="http://www.w3.org/2000/svg" xmlns:xlink="http://www.w3.org/1999/xlink" width="411.066" height="279.414" viewBox="0 0 411.066 279.414">
  <defs>
    <style>
      .cls-1 {
        fill: none;
      }

      .cls-2 {
        clip-path: url(#clip-path);
      }

      .cls-3 {
        fill: #414d55;
      }

      .cls-4 {
        fill: #288ecf;
      }

      .cls-5 {
        fill: #e9bfb1;
      }

      .cls-6 {
        fill: #cf9083;
      }

      .cls-7 {
        fill: #292421;
      }

      .cls-8 {
        fill: #d9dce4;
      }

      .cls-9 {
        fill: #5376b4;
      }

      .cls-10 {
        fill: #ed4e34;
      }

      .cls-11 {
        fill: #3157a4;
      }

      .cls-12 {
        fill: #34a965;
      }

      .cls-13 {
        fill: #fb8d03;
      }
    </style>
    <clipPath id="clip-path">
      <rect id="사각형_2633" data-name="사각형 2633" class="cls-1" width="411.066" height="279.414"/>
    </clipPath>
  </defs>
  <g id="그룹_14810" data-name="그룹 14810" class="cls-2">
    <path id="패스_21429" data-name="패스 21429" class="cls-3" d="M295.976,181.814s12.48,81.174,17.407,97.6h21.45l6.131-89.07Z"/>
    <path id="패스_21430" data-name="패스 21430" class="cls-3" d="M360.317,185.1l33.445,94.312H372.078s-51.022-59.321-65.248-91.73Z"/>
    <path id="패스_21431" data-name="패스 21431" class="cls-4" d="M363.873,176.934c1.772-17.14-6.289-86.311-6.289-86.311S357.17,79.8,347.373,79.8H319.78s-7.451,0-11.576,9.15c-4.076,9.041-15.212,80.86-15.212,86.454a10.3,10.3,0,0,0,.221,2.122s-.271,4.918,13.615,10.125c11.534,4.326,38.906,5.127,53.488-2.582a8.656,8.656,0,0,0,2.946-3.68,9.555,9.555,0,0,0,.611-4.459"/>
    <path id="패스_21432" data-name="패스 21432" class="cls-4" d="M347.369,79.83s46.307,7.211,55.432-52.418l7.116.283s2.372,68.08-53.819,80.33Z"/>
    <path id="패스_21433" data-name="패스 21433" class="cls-4" d="M319.781,79.829s-55.33,4.9-89.687-18.6l-4.32,6.144s38.142,33.6,78.456,37.533Z"/>
    <path id="패스_21434" data-name="패스 21434" class="cls-5" d="M321.1,81.8s3.424-13.516,3.984-23.161l13.678,2.115s1.564,10.624,2.2,19.012c0,0-14.787,4.919-19.862,2.034"/>
    <rect id="사각형_2630" data-name="사각형 2630" class="cls-5" width="13.638" height="17.148" transform="translate(322.497 46.08) rotate(-9.449)"/>
    <path id="패스_21435" data-name="패스 21435" class="cls-5" d="M322.506,46.13s-2.838,12.767-.438,18.925c2.086,5.355,10.945,2.346,12.543-3.429s-.178-17.98-12.1-15.5"/>
    <path id="패스_21436" data-name="패스 21436" class="cls-6" d="M324.072,67.335a7.181,7.181,0,0,0,7.346-1.28s-1.717,7.008-8.183,6Z"/>
    <path id="패스_21437" data-name="패스 21437" class="cls-7" d="M337.785,236.531S321.358,215.2,315.4,204.239c0,0,5.771,28.756,21.494,45.182Z"/>
    <path id="패스_21438" data-name="패스 21438" class="cls-7" d="M359.4,107.224a37.9,37.9,0,0,1-4.293.8s2,15.537,6.339,19.914Z"/>
    <path id="패스_21439" data-name="패스 21439" class="cls-7" d="M304.255,104.329c.143.022.59-2.9,1.208-5.961.309-1.531.688-3.091,1.056-4.341s.708-2.194.84-2.528a26.732,26.732,0,0,1,3.123-5.915,21.091,21.091,0,0,1,2.557-2.939,12.821,12.821,0,0,0,1.264-1.191,4.52,4.52,0,0,0-1.464.968,17.337,17.337,0,0,0-2.706,2.907,25.345,25.345,0,0,0-3.2,6.007c-.135.339-.484,1.3-.857,2.56s-.748,2.842-1.036,4.387a34.98,34.98,0,0,0-.785,6.046"/>
    <path id="패스_21440" data-name="패스 21440" class="cls-7" d="M343.531,191.9a6.143,6.143,0,0,0,.5,1.73,19.232,19.232,0,0,0,1.913,3.594,21.145,21.145,0,0,0,2.786,3.324,16.23,16.23,0,0,0,1.216,1.1,8.7,8.7,0,0,0,.741.6,21.544,21.544,0,0,0,5.693,3.184,19.166,19.166,0,0,0,3.672.979,6.582,6.582,0,0,0,1.675.11,5.69,5.69,0,0,0-1.621-.4,24.447,24.447,0,0,1-3.572-1.089,22.478,22.478,0,0,1-5.565-3.145,8.339,8.339,0,0,1-.723-.59c-.33-.288-.76-.633-1.191-1.082a22.152,22.152,0,0,1-2.753-3.237,23.941,23.941,0,0,1-1.995-3.467,7.945,7.945,0,0,0-.776-1.611"/>
    <path id="패스_21441" data-name="패스 21441" class="cls-7" d="M309.608,195.457c.249-.093-1.078-3.508-1.235-3.93s-1.334-3.625-1.547-3.546c-.291.108.959,3.285,1.114,3.706s1.406,3.868,1.668,3.77"/>
    <path id="패스_21442" data-name="패스 21442" class="cls-5" d="M321.1,81.8s-5.682,12.482,1.158,13.464c6.911.992,18.176-3.582,18.7-15.494Z"/>
    <path id="패스_21443" data-name="패스 21443" class="cls-7" d="M337.66,54.108s0-11.526-1.735-11.982S320.871,39.7,319.411,38.86s-4.229,7.158,2.722,9.18a7.779,7.779,0,0,0,6.323-1.843,42.929,42.929,0,0,1,9.2,7.911"/>
    <path id="패스_21444" data-name="패스 21444" class="cls-5" d="M336.074,48.139s1.982-1.391,3.218.4c1.017,1.474-.28,4.814-4.255,4.145a5.484,5.484,0,0,1,1.037-4.545"/>
    <path id="패스_21445" data-name="패스 21445" class="cls-7" d="M320.7,47.475a3.321,3.321,0,0,0,1.021,3.108s.349-2.033.411-2.542-1.432-.566-1.432-.566"/>
    <path id="패스_21446" data-name="패스 21446" class="cls-5" d="M218.276,54.195a.088.088,0,0,1,.008-.046c.045-.062.22-.007.465.117a17.262,17.262,0,0,1,2.555,1.167c1.5.8,3,1.785,3.332,2s1.751,1.125,3,2.108,2.307,1.947,2.145,2.142l-3.411,4.852a1.874,1.874,0,0,1-1.677.521,4.268,4.268,0,0,1-1.386-.356,3.638,3.638,0,0,1-.745-.46,3.277,3.277,0,0,1-.6-.6,3.163,3.163,0,0,1-.592-1.248,2.3,2.3,0,0,1,.066-1.29,1.029,1.029,0,0,1,.214-.347,1.141,1.141,0,0,1-.216-.348,1.912,1.912,0,0,1-.094-1.04,1.811,1.811,0,0,1,.385-.914.968.968,0,0,1,.373-.285,1.251,1.251,0,0,1-.147-.192,1.981,1.981,0,0,1-.279-1,1.888,1.888,0,0,1,.19-.967,1.1,1.1,0,0,1,.19-.273l-.561-.5-1.84-1.546a7.971,7.971,0,0,1-1.322-1.3c-.082-.079-.12-.14-.1-.178,0-.01.027-.01.047-.017"/>
    <path id="패스_21447" data-name="패스 21447" class="cls-5" d="M403.373,19.764c.013-.441.066-2.466.27-4.372s.557-3.681.752-3.647a.055.055,0,0,1,.027.02c.01-.005.016-.018.027-.019.338-.041.786,3.865.848,4.38.015.135.069.529.13,1.031a1.091,1.091,0,0,1,.327-.125,1.537,1.537,0,0,1,1.743.957,1.125,1.125,0,0,1,.058.221,1.023,1.023,0,0,1,.366-.111,1.375,1.375,0,0,1,1.012.292,1.344,1.344,0,0,1,.521,1,1.159,1.159,0,0,1-.029.327,1.04,1.04,0,0,1,.111.01,1.841,1.841,0,0,1,1.22,1,3.492,3.492,0,0,1,.3,1.606,9.2,9.2,0,0,1-.777,3.49c-.471,1.066-1.129,1.853-1.369,1.842l-5.136-.2a11.637,11.637,0,0,1-.418-3.566c-.064-1.791-.005-3.691.012-4.133"/>
    <path id="패스_21448" data-name="패스 21448" class="cls-8" d="M323.743,97.964a10.12,10.12,0,0,1-3.471-.812,6.059,6.059,0,0,1-3.186-3.167,8.4,8.4,0,0,1-.4-4.872,21.034,21.034,0,0,1,1.517-4.474c.6-1.36,1.215-2.586,1.779-3.609.249-.452.485-.858.7-1.226h.287c-.221.406-.465.863-.724,1.368-.531,1.033-1.12,2.262-1.693,3.62a21.35,21.35,0,0,0-1.444,4.4A8.016,8.016,0,0,0,317.5,93.8a5.608,5.608,0,0,0,2.958,2.924,9.716,9.716,0,0,0,3.309.774,15,15,0,0,0,2-.008,17.8,17.8,0,0,0,12.02-5.982,18.192,18.192,0,0,0,2.417-3.576,18.9,18.9,0,0,0,1.354-3.443c.585-2.078.631-3.507.731-3.5a4.118,4.118,0,0,1-.01.986,15.972,15.972,0,0,1-.433,2.589A17.882,17.882,0,0,1,325.8,97.952a15.349,15.349,0,0,1-2.057.012"/>
    <path id="패스_21449" data-name="패스 21449" class="cls-9" d="M217.284,183.156l-26.533,96.255h29.073l51.554-89.836Z"/>
    <path id="패스_21450" data-name="패스 21450" class="cls-9" d="M221.6,186.9s50.244,74.52,68.8,92.513h22.986s-27.88-73.053-30.7-95.26Z"/>
    <path id="패스_21451" data-name="패스 21451" class="cls-10" d="M245.736,79.48s-41.069,11.248-52.018,11.978c0,0-1.529-8.55-4.586-49.8h-6.055S172.916,90.3,181.24,104.942c7.785,13.7,48.738,4.79,48.738,4.79Z"/>
    <path id="패스_21452" data-name="패스 21452" class="cls-7" d="M251.666,35.143a11.161,11.161,0,0,1,11.383,10.926,11.393,11.393,0,0,1-22.766,0,11.161,11.161,0,0,1,11.383-10.926"/>
    <path id="패스_21453" data-name="패스 21453" class="cls-7" d="M257.282,35.887a4.282,4.282,0,1,0,4.453-4.1c-.058,0-.117,0-.175,0a4.2,4.2,0,0,0-4.278,4.107"/>
    <path id="패스_21454" data-name="패스 21454" class="cls-10" d="M285.5,175c-.427-27.019-5.427-82.474-5.427-82.474s-.589-8.093-8.6-10.72c-2.345-.77-10.792-2.32-10.792-2.32H245.736s-14.812,2-18.252,11.793c-2.869,8.166-9.851,63.4-11.984,84.268-.332,4.4.763,8.236,6.1,11.359,7.1,3.779,29.478,8.727,55.833,1.129,8.069-3.05,8.074-11.89,8.069-13.035"/>
    <path id="패스_21455" data-name="패스 21455" class="cls-10" d="M278.721,88.029s15.825,42.642,57.786,77.956l-5.063,6.706s-35.651-16.25-48.836-37.774c-12.234-19.97-6.543-48.17-3.887-46.888"/>
    <path id="패스_21456" data-name="패스 21456" class="cls-5" d="M243.264,82.215s1.056-13.564,1.616-23.21l11.794-.779s2.547,13.43,6.375,21.7c0,0-13.027,6.884-19.785,2.289"/>
    <rect id="사각형_2631" data-name="사각형 2631" class="cls-5" width="13.638" height="17.148" transform="translate(243.203 44.556)"/>
    <path id="패스_21457" data-name="패스 21457" class="cls-5" d="M243.2,44.61s-4.888,12.131-3.528,18.6c1.182,5.625,10.414,4.1,12.936-1.331s2.763-17.768-9.408-17.269"/>
    <path id="패스_21458" data-name="패스 21458" class="cls-6" d="M244.4,66.755a9.207,9.207,0,0,0,6.875-2.917s.083,10.178-7.34,9.425Z"/>
    <path id="패스_21459" data-name="패스 21459" class="cls-7" d="M249.73,227.032l-8.053-11.005s-1.743,14.1,3.324,19.188Z"/>
    <path id="패스_21460" data-name="패스 21460" class="cls-7" d="M283.553,136.389s-7.465-9.41-8.979-13.242c0,0,1.736,15.2,9.623,23Z"/>
    <path id="패스_21461" data-name="패스 21461" class="cls-7" d="M273.327,121.007a20.236,20.236,0,0,0,1.881,3.926c1.08,1.965,2.347,3.971,2.625,4.407s1.468,2.32,2.693,4.022a20.41,20.41,0,0,0,2.537,3.174,22.084,22.084,0,0,0-2.183-3.421c-1.18-1.722-2.385-3.583-2.658-4.021s-1.52-2.443-2.636-4.376a29.433,29.433,0,0,0-2.259-3.711"/>
    <path id="패스_21462" data-name="패스 21462" class="cls-7" d="M225.126,101.347c.148.021.5-2.688,1.089-5.507a32.181,32.181,0,0,1,1.083-3.968,19.845,19.845,0,0,1,.939-2.262A16.466,16.466,0,0,1,229.4,87.6a15.087,15.087,0,0,1,2.51-2.881,12.379,12.379,0,0,1,2.989-1.95,14.857,14.857,0,0,0,1.472-.624,3.559,3.559,0,0,0-1.588.349,10.963,10.963,0,0,0-3.155,1.9,14.6,14.6,0,0,0-2.612,2.947,16.419,16.419,0,0,0-1.2,2.071,20.12,20.12,0,0,0-.965,2.311,29.087,29.087,0,0,0-1.071,4.034,27.352,27.352,0,0,0-.657,5.594"/>
    <path id="패스_21463" data-name="패스 21463" class="cls-7" d="M283.742,207.88c.067-.127-1.91-1.142-3.829-2.479a22.858,22.858,0,0,1-2.6-2.086,16.215,16.215,0,0,1-1.37-1.441,13.988,13.988,0,0,1-1.115-1.526,13.306,13.306,0,0,1-1.355-2.794,11.807,11.807,0,0,1-.594-2.843,7.08,7.08,0,0,0-.1-1.3,2.634,2.634,0,0,0-.2,1.312,9.89,9.89,0,0,0,.482,2.966,12.734,12.734,0,0,0,1.373,2.906,14.137,14.137,0,0,0,1.155,1.574,16.255,16.255,0,0,0,1.4,1.485,20.747,20.747,0,0,0,2.676,2.106,15.539,15.539,0,0,0,4.076,2.12"/>
    <path id="패스_21464" data-name="패스 21464" class="cls-7" d="M237.6,195.109a11.231,11.231,0,0,0-.588,3.761,25.248,25.248,0,0,0,.251,4.489,24.162,24.162,0,0,0,.96,4.131,11.2,11.2,0,0,0,1.467,3.236,29.618,29.618,0,0,0-1.056-3.365,28.45,28.45,0,0,1-.917-4.068,29.314,29.314,0,0,1-.272-4.412c.015-1.934.3-3.745.155-3.772"/>
    <path id="패스_21465" data-name="패스 21465" class="cls-7" d="M243.2,44.61s-.567,2.032,1.349,2.032,5.511.547,6.724,3.011,1.99,6.364,5.571,6.147l.341-11.9s-13.934-.257-13.985.705"/>
    <path id="패스_21466" data-name="패스 21466" class="cls-5" d="M254.271,48.559s1.983-1.39,3.218.4c1.019,1.474-.279,4.814-4.255,4.145a5.488,5.488,0,0,1,1.037-4.545"/>
    <path id="패스_21467" data-name="패스 21467" class="cls-7" d="M258.693,54.661s-1.861,4.8-.985,8.365a8.649,8.649,0,0,1-2.16-7.349Z"/>
    <path id="패스_21468" data-name="패스 21468" class="cls-5" d="M182.514,33.881a21.614,21.614,0,0,1,1.263-3.711c.2-.444.4-.866.591-1.249l.011-.025a4.3,4.3,0,0,1,1.1-1.616c.052-.07.1-.109.15-.1.39.095-.341,3.264-.392,3.662-.039.165-.13.8-.255,1.468.048-.029.094-.066.141-.088a1.521,1.521,0,0,1,.457-.134,1.412,1.412,0,0,1,1.144.34,1.035,1.035,0,0,1,.23.3c.011-.012.021-.025.033-.036a1.582,1.582,0,0,1,1.941-.134.8.8,0,0,1,.059.057c.154-.752.29-1.464.319-1.64.036-.2.154-1.076.263-1.9s.23-1.6.464-1.6c.009,0,.017.011.025.016.2,0,.673,1.594.8,3.353a20.091,20.091,0,0,1-.109,4.08c-.025.233-.112.914-.285,1.749a3.649,3.649,0,0,1,.833-.5,3.787,3.787,0,0,1,1.039-.322c.476-.07.927.013.923.21a.173.173,0,0,1-.043.106,6.445,6.445,0,0,1-.957,1.2c-.554.609-1.128,1.265-1.259,1.421s-.714.878-1.253,1.573-.956,1.292-1.233,1.292h-5.041a1.161,1.161,0,0,1-.334-.332,2.947,2.947,0,0,1-.481-.869,8.424,8.424,0,0,1-.535-2.412,13.4,13.4,0,0,1,.391-4.159"/>
    <path id="패스_21469" data-name="패스 21469" class="cls-5" d="M332.2,171.665l3.514-4.643a9.789,9.789,0,0,1,3.292,1.523,25.627,25.627,0,0,1,3.5,2.548,24.039,24.039,0,0,1,3.206,3.3c1.259,1.579,2.124,3.276,1.954,3.368,0,.006,0,.018-.007.023-.126.118-.942-.654-1.8-1.474s-1.783-1.665-2.009-1.847-2.225-1.579-2.1-1.465c.88.789,1.75,1.7,1.945,1.923a24.571,24.571,0,0,1,1.879,2.222c.762,1.021,1.351,2.065,1.187,2.173l-.043.032c-.135.111-.881-.61-1.706-1.349a23.6,23.6,0,0,0-1.981-1.587c-.206-.166-1.355-.943-2.3-1.615l.091.1c.794.914,1.8,1.94,1.976,2.184a26.337,26.337,0,0,1,1.765,2.383c.684,1.1,1.282,2.133,1.114,2.235-.008,0-.024,0-.034,0s0,.028-.009.034c-.134.107-1.007-.747-1.947-1.6s-1.955-1.739-2.194-1.942a25.011,25.011,0,0,0-2.1-1.563c.5.562.92,1.079,1.039,1.229a23.713,23.713,0,0,1,1.509,2.044c.61.935,1.027,1.917.846,2-.011.005-.026,0-.04,0s0,.028,0,.033c-.069.056-.36-.215-.821-.6s-1.1-.9-1.786-1.392c-1.37-.989-2.89-1.981-3.235-2.23a16.382,16.382,0,0,1-3.254-2.74,6.909,6.909,0,0,1-1.3-2.18c-.229-.655-.237-1.11-.152-1.127"/>
    <path id="패스_21470" data-name="패스 21470" class="cls-11" d="M135.284,195.579l68.8-1.154s-3.96,72.659-6.206,84.976H171.545l-.058-55.622L163.224,279.4h-24.8s-3.658-67.508-3.14-83.822"/>
    <path id="패스_21471" data-name="패스 21471" class="cls-12" d="M146.821,80.462s-45.967-3.307-48.711-65.9H91.08s-8.246,73.915,45.179,94.253Z"/>
    <path id="패스_21472" data-name="패스 21472" class="cls-12" d="M131.661,186.82c.075-28.213,5.92-93.594,5.92-93.594s.375-12.763,9.24-12.763h37.352s6.742,0,10.475,10.794c3.113,9,10.69,69.9,13,92.9.36,4.847-.828,9.08-6.617,12.523-7.944,4.293-33.484,9.961-63.217.442-5.349-2.147-6.073-8.086-6.153-10.3"/>
    <path id="패스_21473" data-name="패스 21473" class="cls-5" d="M172.861,80.486s-2.988-13.7-4.341-24.1l-14.379.591s-.644,10.331-1.169,23.509c0,0,14.619,3.515,19.889,0"/>
    <path id="패스_21474" data-name="패스 21474" class="cls-5" d="M155.229,41.026l14.764,1.006L168.728,60.6l-14.745-.943Z"/>
    <path id="패스_21475" data-name="패스 21475" class="cls-5" d="M170.059,42.042s2.978,13.876.326,20.538c-2.306,5.794-11.9,2.459-13.584-3.82s.337-19.507,13.258-16.718"/>
    <path id="패스_21476" data-name="패스 21476" class="cls-6" d="M169.654,63.856s-3.176,4.114-9.294-.169A16.969,16.969,0,0,0,171.686,74.81s-1.748-8.9-2.032-10.954"/>
    <path id="패스_21477" data-name="패스 21477" class="cls-5" d="M172.861,80.486s4.308,8.309,0,11.046-16.718-1.427-19.888-11.046c0,0,13.521-1.877,19.888,0"/>
    <path id="패스_21478" data-name="패스 21478" class="cls-7" d="M171.484,223.779l2.489-7.753s-.052,13.871-2.489,16.061Z"/>
    <path id="패스_21479" data-name="패스 21479" class="cls-7" d="M206.822,176.367l.588,5.452c-23.679.091-47.206-6.25-47.206-6.25s30.867,1.272,46.618.8"/>
    <path id="패스_21480" data-name="패스 21480" class="cls-12" d="M191.845,85.521s33.2,58.764,35.047,69.856-4.019,19.577-14.173,20.643c-11.731,1.232-52.515-.456-52.515-.456v-7.208s25-8.12,47.277-9.282l-2.51.481s-13.716-20.508-17-27.081-2.107-53.648,3.874-46.953"/>
    <path id="패스_21481" data-name="패스 21481" class="cls-7" d="M160.211,168.373a5.582,5.582,0,0,0,1.045-.288c.662-.2,1.615-.468,2.77-.788,2.312-.636,5.441-1.443,8.675-2.223s6.573-1.534,9.3-2.112,4.83-.971,5.587-1.11c1.515-.281,8.005-1.479,14.224-1.953,1.547-.172,3.067-.337,4.483-.406a34.569,34.569,0,0,1,3.836,0c2.227.124,3.655.456,3.669.38a3.609,3.609,0,0,0-.975-.287,22.282,22.282,0,0,0-2.672-.391,30.742,30.742,0,0,0-3.875-.088c-1.431.047-2.963.2-4.511.358a133.226,133.226,0,0,0-14.262,1.93c-.758.139-2.87.535-5.6,1.108s-6.071,1.338-9.3,2.144S166.249,166.3,163.95,167c-1.149.354-2.093.666-2.743.911a4.039,4.039,0,0,0-1,.46"/>
    <path id="패스_21482" data-name="패스 21482" class="cls-7" d="M197.725,115.737a10.024,10.024,0,0,0-.072-2.176c-.109-1.31-.291-3.071-.53-4.879-.462-3.618-1.168-7.413-1.328-8.24s-.835-4.388-1.659-7.7c-.4-1.658-.838-3.252-1.18-4.429a10.377,10.377,0,0,0-.658-1.919c-.153.043.664,3.13,1.419,6.447.776,3.312,1.477,6.856,1.627,7.683s.843,4.612,1.35,8.213.888,7.013,1.031,7"/>
    <path id="패스_21483" data-name="패스 21483" class="cls-7" d="M136.163,110.547c.125.034.391-.785.476-1.694a10.164,10.164,0,0,0-.019-2.078,9.758,9.758,0,0,0-.39-1.921c-.248-.815-.637-1.515-.736-1.467-.144.067.129.79.321,1.585a13.383,13.383,0,0,1,.347,1.851,13.765,13.765,0,0,1,.044,2c-.036.87-.182,1.688-.043,1.724"/>
    <path id="패스_21484" data-name="패스 21484" class="cls-7" d="M140.037,214.631a3.052,3.052,0,0,0,1.255-.046,10.607,10.607,0,0,0,2.7-.853,12.109,12.109,0,0,0,2.557-1.612,9.8,9.8,0,0,0,.856-.76,5.085,5.085,0,0,0,.466-.474,12.421,12.421,0,0,0,2.462-3.813,10.61,10.61,0,0,0,.7-2.553,3.24,3.24,0,0,0,.013-1.17c-.081-.005-.175.444-.307,1.119a14,14,0,0,1-.8,2.436,12.955,12.955,0,0,1-2.4,3.666,4.622,4.622,0,0,1-.452.455,9.9,9.9,0,0,1-.827.732,12.8,12.8,0,0,1-2.451,1.581,13.544,13.544,0,0,1-2.579.949c-.723.171-1.205.265-1.2.343"/>
    <path id="패스_21485" data-name="패스 21485" class="cls-7" d="M176.991,208c.124.045.406-.578.619-1.272a14.372,14.372,0,0,0,.387-1.612,13.685,13.685,0,0,0,.215-1.548c.055-.676.027-1.312-.085-1.317-.156-.006-.243.613-.344,1.268s-.206,1.35-.238,1.51-.186.893-.354,1.582-.333,1.34-.2,1.389"/>
    <path id="패스_21486" data-name="패스 21486" class="cls-7" d="M172.841,98.521c.259-.058-.135-1.563-.177-1.75s-.347-1.6-.568-1.552c-.3.068.078,1.467.119,1.653s.353,1.71.626,1.649"/>
    <path id="패스_21487" data-name="패스 21487" class="cls-7" d="M177.213,142.034a18.315,18.315,0,0,0,.113-2.943c0-1.78-.04-4.178-.146-6.645-.19-4.936-.664-10.14-.776-11.276s-.578-6.02-1.258-10.589c-.326-2.286-.7-4.492-1-6.126a18.757,18.757,0,0,0-.594-2.681,14.405,14.405,0,0,0,.3,2.73c.231,1.643.566,3.851.868,6.136.631,4.567,1.127,9.437,1.227,10.573s.564,6.329.8,11.252c.129,2.461.208,4.853.278,6.63a18.525,18.525,0,0,0,.188,2.939"/>
    <path id="패스_21488" data-name="패스 21488" class="cls-7" d="M170.058,42.043s-.1,3.277-2.381,3.916-6.935-.35-9.717-3.916c0,0,.509,7.026-3.327,7.889,0,0-1.773-10.944,0-13.006,2.826-3.285,16.437-.623,15.425,5.117"/>
    <path id="패스_21489" data-name="패스 21489" class="cls-5" d="M156.937,45.514s-2.046-1.651-3.513.193c-1.21,1.521-.05,5.232,4.3,4.8a5.954,5.954,0,0,0-.787-4.993"/>
    <path id="패스_21490" data-name="패스 21490" class="cls-5" d="M169.332,45.514s2.046-1.651,3.513.193c1.21,1.521.05,5.232-4.3,4.8a5.954,5.954,0,0,1,.787-4.993"/>
    <path id="패스_21491" data-name="패스 21491" class="cls-7" d="M170.059,42.043a8.059,8.059,0,0,0,.48,2.608,4.068,4.068,0,0,0-.489-3.772Z"/>
    <path id="패스_21492" data-name="패스 21492" class="cls-5" d="M90.792,7.4a1.579,1.579,0,0,1,.652-.646,1.014,1.014,0,0,1,.825-.036.793.793,0,0,1,.236.147,1.264,1.264,0,0,1,.078-.254A1.477,1.477,0,0,1,93.049,6a1.318,1.318,0,0,1,.432-.216,1.272,1.272,0,0,1,1.175.234c.005,0,.009.009.012.013a1.532,1.532,0,0,1,.353-.559,1.486,1.486,0,0,1,.376-.269,1.533,1.533,0,0,1,1.119-.125c.04.013.08.027.12.044.03-.505.052-.9.061-1.036.008-.236.042-1.237.074-2.218A4.92,4.92,0,0,1,97.037.042a.045.045,0,0,1,.022-.029h.025c.009,0,.015-.013.022-.013.031,0,.057.041.082.1a4.549,4.549,0,0,1,.463.847,13.889,13.889,0,0,1,.771,2.358,18.384,18.384,0,0,1,.468,4.2,17.614,17.614,0,0,1-.422,3.964c-.364,1.7-1.078,3.169-1.266,3.086H91.749c-.176.065-.649-.9-1.008-2a10.145,10.145,0,0,1-.388-1.621,7.878,7.878,0,0,1-.086-1.006,5.151,5.151,0,0,1,.525-2.53"/>
    <path id="패스_21493" data-name="패스 21493" class="cls-5" d="M151.4,170.787a1.441,1.441,0,0,1,.107-.794.722.722,0,0,1,.355-.375.858.858,0,0,1-.17-.388,1.312,1.312,0,0,1,.141-.82,1.6,1.6,0,0,1,.73-.7,3.9,3.9,0,0,1,1.819-.309c.5.009.882.034,1.02.041a20.687,20.687,0,0,1,2.556.261c1.1.188,2.307.5,2.246.753l-.017,6.347c.019.191-.1.334-.458.608a5.11,5.11,0,0,1-1.529.75,7.959,7.959,0,0,1-2.9.28,9.416,9.416,0,0,1-1.033-.137,4.251,4.251,0,0,1-1.663-.626,1.918,1.918,0,0,1-.631-.719,1.149,1.149,0,0,1-.166-.681.882.882,0,0,1,.182-.461c-.153-.018-.312-.241-.422-.44a1.288,1.288,0,0,1-.147-.73,1.22,1.22,0,0,1,.208-.678.665.665,0,0,1,.232-.209.971.971,0,0,1-.17-.175,1.537,1.537,0,0,1-.29-.8"/>
    <path id="패스_21494" data-name="패스 21494" class="cls-7" d="M85.9,59.1S99.875,67.663,96.5,79.3l-9.061-1.808a112.559,112.559,0,0,1-4.139-15.086Z"/>
    <path id="패스_21495" data-name="패스 21495" class="cls-9" d="M110.285,194.557l35.58,84.844H109.444S66.022,213.19,50.271,194.557Z"/>
    <path id="패스_21496" data-name="패스 21496" class="cls-9" d="M40.478,192.478,28.806,279.4H62.382s20.09-63.43,27.185-84.112Z"/>
    <path id="패스_21497" data-name="패스 21497" class="cls-13" d="M37.318,183c2.314-23.008,8.188-83.922,11.361-92.9C51.862,81.088,59.154,79.3,59.154,79.3l9.953-2.19H85.53L96.506,79.3c8.732,1.784,9.24,12.763,9.24,12.763s7.772,65.163,7.547,92.119c-.038,1.266.795,8.58-4.126,11.106-23.386,9.221-57.85,3.526-65.973-.864-4.926-2.759-6.236-6.581-5.876-11.43"/>
    <path id="패스_21498" data-name="패스 21498" class="cls-13" d="M55.684,80.933S4.143,109.644.4,126.249c-4.586,20.357,31.459,50.406,31.459,50.406l5.4-5.654s-17.607-31.936-23.447-41.285l2.227,4.137S43.4,124.97,49.216,115.117c5.354-9.063,9.221-31.123,6.468-34.184"/>
    <path id="패스_21499" data-name="패스 21499" class="cls-5" d="M87.621,78.034S83.241,64.8,81.994,55.216l-13.571.141s.1,14.776-.757,22.069c0,0,15.1,3.847,19.955.608"/>
    <rect id="사각형_2632" data-name="사각형 2632" class="cls-5" width="13.638" height="17.148" transform="translate(67.446 41.717) rotate(-4.058)"/>
    <path id="패스_21500" data-name="패스 21500" class="cls-5" d="M81.053,40.8S86.794,52.554,85.9,59.1c-.778,5.695-10.1,4.837-13-.4s-4.022-17.53,8.153-17.9"/>
    <path id="패스_21501" data-name="패스 21501" class="cls-6" d="M83.306,62.407a9.589,9.589,0,0,1-6.813-.023s.982,7.468,8.333,6.187Z"/>
    <path id="패스_21502" data-name="패스 21502" class="cls-5" d="M89.567,77.917s-.205,4.172-5.5,5.952c-6.211,2.088-16.834-.456-18-6.088l1.6-.355,19.779.068Z"/>
    <path id="패스_21503" data-name="패스 21503" class="cls-13" d="M104.25,86s9.706,30.573,14.471,61.229c0,0-4-14.233-5.4-62.641h7.159s15.367,38.9,14.634,67.363c-.7,27.1-18.613,25.387-22.1,20.165Z"/>
    <path id="패스_21504" data-name="패스 21504" class="cls-7" d="M77.058,231.081s5.17-14.682,6.576-18.707c0,0,2.171,17.663-.916,27.082Z"/>
    <path id="패스_21505" data-name="패스 21505" class="cls-7" d="M43.916,120.565a69.5,69.5,0,0,0,5.3-5.447s-2.687,18.52-7.121,21.417Z"/>
    <path id="패스_21506" data-name="패스 21506" class="cls-7" d="M119.967,153.276a41.76,41.76,0,0,0-.866-4.991c-.495-2.557-.955-5.273-1.049-5.868s-.5-3.15-.815-5.565a42.629,42.629,0,0,0-.707-4.675,21.7,21.7,0,0,0,.279,4.728c.273,2.428.691,4.989.789,5.585s.535,3.325,1.077,5.88a26.714,26.714,0,0,0,1.292,4.906"/>
    <path id="패스_21507" data-name="패스 21507" class="cls-7" d="M105.729,92.067a10.167,10.167,0,0,0,.112,1.588c.1,1.028.25,2.469.425,4.209.335,3.516.784,8.231,1.246,13.086.876,9.729,1.8,20.017,2,22.266l1.817,21.016c.4,4.545.789,8.95,1.079,12.232.156,1.625.285,2.971.377,3.928l.124,1.089a1.379,1.379,0,0,0,.071.382,7.676,7.676,0,0,0-.022-1.485c-.049-.945-.137-2.3-.253-3.938-.231-3.277-.577-7.691-.946-12.243-.739-9.106-1.589-18.77-1.788-21.02s-1.081-12.545-2.03-22.268c-.468-4.862-.967-9.579-1.379-13.078-.214-1.749-.391-3.194-.55-4.2a9.772,9.772,0,0,0-.283-1.564"/>
    <path id="패스_21508" data-name="패스 21508" class="cls-7" d="M44.806,119.622a7.009,7.009,0,0,0,2.093-1.7,22.539,22.539,0,0,0,2.044-2.437,21.7,21.7,0,0,0,1.609-2.532,7.032,7.032,0,0,0,.952-2.328c-.146-.063-.672,1.02-1.328,2.116-.638,1.107-1.414,2.221-1.6,2.472a30.982,30.982,0,0,1-1.989,2.41c-.92,1.015-1.873,1.886-1.782,2"/>
    <path id="패스_21509" data-name="패스 21509" class="cls-7" d="M11.334,127.027a13.4,13.4,0,0,0,1.661,2.27c.887,1.136,1.764,2.383,1.949,2.661s.98,1.467,1.669,2.627a13.767,13.767,0,0,0,1.408,2.216,6.72,6.72,0,0,0-1.035-2.432c-.654-1.2-1.471-2.393-1.662-2.669s-1.056-1.555-1.99-2.674-1.9-2.093-2-2"/>
    <path id="패스_21510" data-name="패스 21510" class="cls-7" d="M43.13,216.466a4.418,4.418,0,0,0,1.466-.314,16.98,16.98,0,0,0,3.1-1.371,18.793,18.793,0,0,0,2.955-2.069c.413-.33.74-.663,1.01-.918a7.818,7.818,0,0,0,.559-.563,19.227,19.227,0,0,0,3.169-4.4A16.947,16.947,0,0,0,56.6,203.91a4.678,4.678,0,0,0,.273-1.37c-.078-.02-.274.494-.556,1.275a23.784,23.784,0,0,1-1.3,2.812,20.445,20.445,0,0,1-3.121,4.29,7.28,7.28,0,0,1-.548.549c-.265.248-.585.573-.989.9a20.169,20.169,0,0,1-2.871,2.047,22.669,22.669,0,0,1-2.981,1.463,5.313,5.313,0,0,0-1.372.59"/>
    <path id="패스_21511" data-name="패스 21511" class="cls-7" d="M81.732,88.035c-.683-.015-.838,1.224-.172,1.378s1.07-1.027.45-1.314"/>
    <path id="패스_21512" data-name="패스 21512" class="cls-7" d="M82,92.452a.8.8,0,1,0,.65,1.232A.846.846,0,0,0,82,92.452"/>
    <path id="패스_21513" data-name="패스 21513" class="cls-7" d="M82.323,97.017a.736.736,0,1,0,.228,1.255.776.776,0,0,0-.228-1.255"/>
    <path id="패스_21514" data-name="패스 21514" class="cls-7" d="M81.053,40.8s-1.632,2.651-6.2,3.057c0,0-2.156,7.025-6.836,5.927,0,0-2.373-12.862-.352-13.82S83.386,34.551,81.053,40.8"/>
    <path id="패스_21515" data-name="패스 21515" class="cls-7" d="M66.9,38.861s-.835,14.759-6.931,27.49c-5.092,10.633-4.927,17.107.137,20.939s16.961,2.6,15.187-8.416S69.551,60.6,70.372,50.064s-3.471-11.2-3.471-11.2"/>
    <path id="패스_21516" data-name="패스 21516" class="cls-5" d="M70.288,45.529s-2.077-1.245-3.182.625c-.911,1.542.622,4.782,4.54,3.83a5.486,5.486,0,0,0-1.358-4.455"/>
    <path id="패스_21517" data-name="패스 21517" class="cls-5" d="M32.347,176.121l4.339-4.516v.01c.006-.006.012-.015.02-.017.085-.029.261.283.521.748a13.493,13.493,0,0,0,1.119,1.645A15.67,15.67,0,0,0,40.77,176.4a20.845,20.845,0,0,0,3.067,1.968c1.409.756,2.844,1.229,2.793,1.425a.049.049,0,0,1-.021.026c0,.009.015.016.016.026.017.169-.912.322-1.9.276a13.383,13.383,0,0,1-2.265-.29,13.943,13.943,0,0,1-1.976-.549,17.121,17.121,0,0,0,1.973,1.282,16.459,16.459,0,0,0,2.455,1.052c1.106.386,2.2.622,2.168.824,0,.01-.018.017-.025.026s.023.016.026.027c.038.16-1.092.49-2.344.535a10.917,10.917,0,0,1-2.872-.256,9.351,9.351,0,0,1-2.856-1.134,5.27,5.27,0,0,1-.507-.346c.026.029.049.059.075.088a11.257,11.257,0,0,0,1.818,1.651,18,18,0,0,0,2.267,1.341c1.03.528,2.052.942,1.989,1.134,0,.009-.018.012-.025.019s.014.022.012.033c-.034.161-1.1.053-2.253-.1a18.838,18.838,0,0,1-2.649-.537,9.98,9.98,0,0,1-1.037-.355,9.242,9.242,0,0,1-1.6-.884q-.186-.129-.36-.269a9.612,9.612,0,0,0,3.107,3.317c.86.6,1.78.994,1.713,1.187,0,.008-.017.011-.023.018a.059.059,0,0,1,.01.034c-.011.078-.458.083-1.124-.059a8.71,8.71,0,0,1-2.361-.937,10.822,10.822,0,0,1-2.161-1.654,11.313,11.313,0,0,1-1.087-1.248,13.841,13.841,0,0,1-.952-1.444,12.681,12.681,0,0,1-1.145-2.654c-.6-1.94-.558-3.858-.369-3.856"/>
    <path id="패스_21518" data-name="패스 21518" class="cls-5" d="M37.025,171.25h1.468l-.259,2.6s-1.421-1.748-1.758-2.022Z"/>
    <path id="패스_21519" data-name="패스 21519" class="cls-5" d="M112.74,77.314a32.988,32.988,0,0,1,.688-3.715c.238-.953.473-1.862.675-2.425.075-.355.179-.594.3-.58.009,0,.016.011.025.014a.065.065,0,0,1,.031-.005c.024.006.04.039.05.092a5.371,5.371,0,0,1,.171,1.472c.034.792.106,1.624.129,1.806s.141.957.277,1.685c.011.063.022.126.032.188a1.579,1.579,0,0,1,.608-.515,1.4,1.4,0,0,1,.586-.133,1.451,1.451,0,0,1,.562.089,1.583,1.583,0,0,1,.72.535,1.285,1.285,0,0,1,.087.142,1.462,1.462,0,0,1,.6-.514,1.322,1.322,0,0,1,.544-.119,1.385,1.385,0,0,1,.522.084,1.451,1.451,0,0,1,.666.5,1.207,1.207,0,0,1,.082.132c.013-.116.026-.233.041-.353l.238-1.856c.016-.187.085-.965.155-1.758.069-.685.153-1.331.35-1.455,0,0,.007-.013.012-.015a.088.088,0,0,1,.023,0c.008,0,.021-.012.033-.012.046,0,.087.053.121.144a4.064,4.064,0,0,1,.418.773,10.282,10.282,0,0,1,.631,2.331,16.121,16.121,0,0,1,.038,4.1,21.442,21.442,0,0,1-.728,3.775c-.451,1.6-1.058,2.881-1.322,2.881l-6.343-.015c-.091.041-.346-.3-.583-.9a8.562,8.562,0,0,1-.545-2.328,17.49,17.49,0,0,1,.1-4.045"/>
  </g>
</svg>
