<svg id="그룹_16813" data-name="그룹 16813" xmlns="http://www.w3.org/2000/svg" xmlns:xlink="http://www.w3.org/1999/xlink" width="471.284" height="364.935" viewBox="0 0 471.284 364.935">
  <defs>
    <style>
      .cls-1 {
        fill: none;
      }

      .cls-2 {
        fill: #fff;
      }

      .cls-3 {
        fill: #9d6c53;
      }

      .cls-4 {
        fill: #885945;
      }

      .cls-5 {
        fill: #c57452;
      }

      .cls-6 {
        fill: #efeeec;
      }

      .cls-7 {
        fill: #acaba3;
      }

      .cls-8 {
        fill: #ac6347;
      }

      .cls-9 {
        fill: #2b2622;
      }

      .cls-10 {
        fill: #f5f5f5;
      }

      .cls-11 {
        clip-path: url(#clip-path);
      }

      .cls-12 {
        fill: #376356;
      }

      .cls-13 {
        fill: #ca7119;
      }

      .cls-14 {
        fill: #aa541b;
      }

      .cls-15 {
        fill: #5f5648;
      }

      .cls-16 {
        fill: #af5345;
      }

      .cls-17 {
        fill: #e9bfb1;
      }

      .cls-18 {
        fill: #cf9083;
      }

      .cls-19 {
        fill: #c8b1b0;
      }

      .cls-20 {
        fill: #b4adb6;
      }

      .cls-21 {
        fill: #efe5db;
      }

      .cls-22 {
        fill: #040504;
      }
    </style>
    <clipPath id="clip-path">
      <rect id="사각형_3707" data-name="사각형 3707" class="cls-1" width="471.284" height="364.935"/>
    </clipPath>
  </defs>
  <path id="패스_22585" data-name="패스 22585" class="cls-2" d="M495.866,192.055v-6.72H70.671v6.72h3.378v280H70.671v8.7H495.866v-8.7h-3.377v-280Z" transform="translate(-48.284 -126.624)"/>
  <path id="패스_22586" data-name="패스 22586" class="cls-3" d="M1143.872,0V33.386l68.816,3.048V0Z" transform="translate(-781.512)"/>
  <rect id="사각형_3675" data-name="사각형 3675" class="cls-4" width="19.7" height="6.487" transform="translate(364.274 3.828)"/>
  <rect id="사각형_3676" data-name="사각형 3676" class="cls-4" width="19.7" height="6.487" transform="translate(386.886 3.828)"/>
  <rect id="사각형_3677" data-name="사각형 3677" class="cls-4" width="19.7" height="6.487" transform="translate(409.498 3.828)"/>
  <rect id="사각형_3678" data-name="사각형 3678" class="cls-4" width="10.942" height="6.487" transform="translate(362.36 12.407)"/>
  <rect id="사각형_3679" data-name="사각형 3679" class="cls-4" width="9.85" height="6.487" transform="translate(421.326 12.407)"/>
  <rect id="사각형_3680" data-name="사각형 3680" class="cls-4" width="19.7" height="6.487" transform="translate(376.214 12.407)"/>
  <rect id="사각형_3681" data-name="사각형 3681" class="cls-4" width="19.7" height="6.487" transform="translate(398.826 12.407)"/>
  <rect id="사각형_3682" data-name="사각형 3682" class="cls-4" width="19.7" height="6.487" transform="translate(364.274 20.988)"/>
  <rect id="사각형_3683" data-name="사각형 3683" class="cls-4" width="19.7" height="6.487" transform="translate(386.886 20.988)"/>
  <rect id="사각형_3684" data-name="사각형 3684" class="cls-4" width="19.7" height="6.487" transform="translate(409.498 20.988)"/>
  <rect id="사각형_3685" data-name="사각형 3685" class="cls-4" width="10.942" height="6.487" transform="translate(362.36 29.568)"/>
  <rect id="사각형_3686" data-name="사각형 3686" class="cls-4" width="9.85" height="6.487" transform="translate(421.326 29.568)"/>
  <rect id="사각형_3687" data-name="사각형 3687" class="cls-4" width="19.7" height="6.487" transform="translate(376.214 29.568)"/>
  <rect id="사각형_3688" data-name="사각형 3688" class="cls-4" width="19.7" height="6.487" transform="translate(398.826 29.568)"/>
  <rect id="사각형_3689" data-name="사각형 3689" class="cls-3" width="121.602" height="274.805" transform="translate(246.418 79.324)"/>
  <path id="패스_22587" data-name="패스 22587" class="cls-5" d="M499.774,76.86,81.335,58.326V98.56h418.44Z" transform="translate(-55.569 -39.849)"/>
  <rect id="사각형_3690" data-name="사각형 3690" class="cls-6" width="116.887" height="270.782" transform="translate(248.728 81.437)"/>
  <path id="패스_22588" data-name="패스 22588" class="cls-3" d="M1193.447,667.751v1.319h3.5v3.875h48.684V669.07h3.5v-1.319Z" transform="translate(-815.382 -456.219)"/>
  <path id="패스_22589" data-name="패스 22589" class="cls-3" d="M1247.131,330.148V250.4h-55.691v79.748h-.932v2.582h57.557v-2.582Z" transform="translate(-813.375 -171.078)"/>
  <rect id="사각형_3691" data-name="사각형 3691" class="cls-7" width="57.557" height="1.654" transform="translate(377.132 161.653)"/>
  <rect id="사각형_3692" data-name="사각형 3692" class="cls-3" width="202.329" height="2.582" transform="translate(34.599 213.745)"/>
  <path id="패스_22590" data-name="패스 22590" class="cls-3" d="M310.032,384.822V250.4H110.741V384.822h-1.519V387.4H311.551v-2.582Z" transform="translate(-74.622 -171.077)"/>
  <rect id="사각형_3693" data-name="사각형 3693" class="cls-7" width="202.329" height="2.036" transform="translate(34.599 216.327)"/>
  <rect id="사각형_3694" data-name="사각형 3694" class="cls-6" width="194.196" height="130.195" transform="translate(38.666 81.437)"/>
  <rect id="사각형_3695" data-name="사각형 3695" class="cls-6" width="50.593" height="75.338" transform="translate(380.583 81.437)"/>
  <path id="패스_22591" data-name="패스 22591" class="cls-8" d="M81.333,174.38V169.3l418.439,2.511v2.567Z" transform="translate(-55.568 -115.669)"/>
  <path id="패스_22592" data-name="패스 22592" class="cls-7" d="M499.773,206.547H81.333V210.8l418.44-.384Z" transform="translate(-55.568 -141.117)"/>
  <rect id="사각형_3696" data-name="사각형 3696" class="cls-9" width="1.342" height="13.027" transform="translate(364.274 97.892)"/>
  <rect id="사각형_3697" data-name="사각형 3697" class="cls-9" width="1.342" height="13.026" transform="translate(364.274 322.719)"/>
  <path id="패스_22593" data-name="패스 22593" class="cls-10" d="M874.365,257.074l-89.2,245.183v25.6h10.179l98.279-270.782Z" transform="translate(-536.44 -175.637)"/>
  <path id="패스_22594" data-name="패스 22594" class="cls-10" d="M993.314,464.768,918.74,669.756h26.75L993.314,537.99Z" transform="translate(-627.698 -317.537)"/>
  <path id="패스_22595" data-name="패스 22595" class="cls-10" d="M785.168,348.287l33.1-91.213h-3.186l-29.918,82.244Z" transform="translate(-536.439 -175.637)"/>
  <path id="패스_22596" data-name="패스 22596" class="cls-10" d="M785.168,462.392l74.518-205.314H848.539L785.168,431.269Z" transform="translate(-536.439 -175.64)"/>
  <path id="패스_22597" data-name="패스 22597" class="cls-10" d="M931.635,257.074l-98.51,270.782h3.416l98.279-270.782Z" transform="translate(-569.205 -175.637)"/>
  <path id="패스_22598" data-name="패스 22598" class="cls-10" d="M1201.4,297.084l14.485-40.01h-4.113L1201.4,285.585Z" transform="translate(-820.814 -175.638)"/>
  <path id="패스_22599" data-name="패스 22599" class="cls-10" d="M1293.246,353.133l16.285-44.983V287.4l-23.913,65.733Z" transform="translate(-878.355 -196.356)"/>
  <path id="패스_22600" data-name="패스 22600" class="cls-10" d="M1201.789,332.417h15.269l27.275-75.338H1229.2Z" transform="translate(-821.082 -175.641)"/>
  <path id="패스_22601" data-name="패스 22601" class="cls-10" d="M122.058,387.269l47.365-130.195h35L157.29,387.269Z" transform="translate(-83.392 -175.637)"/>
  <path id="패스_22602" data-name="패스 22602" class="cls-10" d="M248.617,387.269l47.365-130.195h11.413L260.261,387.269Z" transform="translate(-169.859 -175.637)"/>
  <path id="패스_22603" data-name="패스 22603" class="cls-10" d="M700.935,530.673,685.1,574.2h11.644l4.19-11.574Z" transform="translate(-468.073 -362.565)"/>
  <path id="패스_22604" data-name="패스 22604" class="cls-10" d="M454.72,387.269l47.365-130.195h19.26L474.211,387.269Z" transform="translate(-310.672 -175.637)"/>
  <path id="패스_22605" data-name="패스 22605" class="cls-10" d="M644.311,302.857,602.223,418.548h4.259l37.829-104.492Z" transform="translate(-411.448 -206.917)"/>
  <path id="패스_22606" data-name="패스 22606" class="cls-10" d="M122.058,337.493l29.112-80.418h-4.027l-25.085,68.953Z" transform="translate(-83.392 -175.637)"/>
  <rect id="사각형_3698" data-name="사각형 3698" class="cls-5" width="220.653" height="3.875" transform="translate(25.765 244.198)"/>
  <rect id="사각형_3699" data-name="사각형 3699" class="cls-5" width="76.186" height="3.875" transform="translate(368.019 244.198)"/>
  <rect id="사각형_3700" data-name="사각형 3700" class="cls-5" width="220.653" height="3.874" transform="translate(25.765 252.784)"/>
  <rect id="사각형_3701" data-name="사각형 3701" class="cls-5" width="76.186" height="3.874" transform="translate(368.019 252.784)"/>
  <rect id="사각형_3702" data-name="사각형 3702" class="cls-9" width="471.284" height="0.471" transform="translate(0 353.893)"/>
  <g id="그룹_16812" data-name="그룹 16812">
    <g id="그룹_16811" data-name="그룹 16811" class="cls-11">
      <path id="패스_22607" data-name="패스 22607" class="cls-12" d="M255.709,885.022c-.9-1.275-2.775-1.359-4.28-.954a15.589,15.589,0,0,0-6.6,4.2,25.239,25.239,0,0,0-7.28,12.234l-.1.164c-2,3.149-3.317,5.881-3.033,6.019s1.6-2.553,3.58-5.672c5.972-2.837,12.069-5.843,16.429-10.8,1.275-1.449,2.4-3.614,1.293-5.191" transform="translate(-160.125 -603.862)"/>
      <path id="패스_22608" data-name="패스 22608" class="cls-12" d="M165.707,895.785a13.987,13.987,0,0,0-5.929-3.769c-1.352-.364-3.038-.288-3.843.855-1,1.416.016,3.36,1.16,4.661,3.865,4.392,9.246,7.078,14.54,9.6,1.745,2.824,2.885,5.138,3.161,5,.258-.127-.809-2.4-2.51-5.179a22.568,22.568,0,0,0-6.579-11.165" transform="translate(-106.26 -609.307)"/>
      <path id="패스_22609" data-name="패스 22609" class="cls-12" d="M224.981,823.419a38.065,38.065,0,0,0,15.182-15.548,10.288,10.288,0,0,0,1.521-5.86c-.248-2.036-1.916-4.023-3.965-3.953-1.8.062-3.184,1.576-4.251,3.031a47.581,47.581,0,0,0-8.865,21.688,50.359,50.359,0,0,0-3.4,6.434c-.093.24-.174.47-.245.69-.017-3.263-.063-7.26-.112-11.581q-.021-1.793-.04-3.5l2.045-7.51c1.862-6.838,3.726-14.1,1.748-20.908a6.582,6.582,0,0,0-1.332-2.674,2.879,2.879,0,0,0-2.7-.969,3.283,3.283,0,0,0-1.426.862c-2.188,2.079-2.617,5.379-2.657,8.4a52.989,52.989,0,0,0,2.456,16.628c.415,1.313.881,2.623,1.2,3.96.019,1.813.041,3.732.064,5.722.126,11,.227,19.909.551,19.906.174,0,.225-2.564.216-6.632a16.62,16.62,0,0,1,.764-2.178,60.635,60.635,0,0,1,3.255-6" transform="translate(-147.898 -534.751)"/>
      <path id="패스_22610" data-name="패스 22610" class="cls-12" d="M183.388,865.663q-.136-.36-.272-.713a39.879,39.879,0,0,0-4.127-16.581,9.773,9.773,0,0,0-3.713-4.5c-1.738-.943-4.264-.684-5.261,1.023a4.956,4.956,0,0,0,.114,4.282,27.4,27.4,0,0,0,4.825,7.139l7.63,9.063c.066.171.131.343.2.516a84.545,84.545,0,0,1,2.858,9.06c.6,2.357.884,3.837,1.056,3.809.148-.022.018-1.54-.5-3.94a67.738,67.738,0,0,0-2.8-9.157" transform="translate(-115.854 -576.175)"/>
      <path id="패스_22611" data-name="패스 22611" class="cls-13" d="M191.216,953.721H172.774l.542,6.475h1.989s4.158,49.05,7.955,56.1h15.911c3.8-7.052,7.955-56.1,7.955-56.1h1.989l.542-6.475Z" transform="translate(-118.042 -651.598)"/>
      <path id="패스_22612" data-name="패스 22612" class="cls-14" d="M180.764,974.163h31.822s-.245,3.57-.523,5.8c0,0-21.4-1.074-31.054-3.012,0,0-.107-1.64-.246-2.785" transform="translate(-123.501 -665.564)"/>
      <path id="패스_22613" data-name="패스 22613" class="cls-12" d="M1276.523,799.312c.807-3.523,1.143-7.389-.509-10.6-.71-1.379-1.8-2.708-1.7-4.256.034-.583.238-1.141.315-1.72.62-4.65-6.547-7.177-6.682-11.866-3.466,7.787-6.989,16.53-4.178,24.577,1.719,4.922,5.561,8.729,9.408,12.285a87.03,87.03,0,0,1,1.229,8.807,53.588,53.588,0,0,1,.127,7.4c-.23,4.211-.928,6.75-.7,6.805.152.051,1.057-2.48,1.394-6.76a48.048,48.048,0,0,0-.041-7.505c-.167-2.19-.475-4.536-.887-6.973l.147.424c.032-3.614,1.271-7.09,2.078-10.613" transform="translate(-862.728 -526.669)"/>
      <path id="패스_22614" data-name="패스 22614" class="cls-12" d="M1326.027,810.2c-6.418.451-12.2,4.856-15.126,10.584-2.919,5.708-3.215,12.524-1.679,18.749-2.358,9.585-2.869,17.578-2.508,17.594.431.044.946-7.985,3.326-17.587.023-.1.047-.19.071-.285,1.682-1.363,4.2-1.217,6.351-1.774a9.453,9.453,0,0,0,6.336-11.638,3.184,3.184,0,0,1-.282-1.508c.241-1.386,2.264-1.58,3.048-2.747.717-1.065.166-2.476-.187-3.71a10.956,10.956,0,0,1,.65-7.679" transform="translate(-892.697 -553.542)"/>
      <path id="패스_22615" data-name="패스 22615" class="cls-12" d="M1227.579,854.618c-.753-5.5-1.771-11.016-4.467-15.832-3.123-5.577-9.076-10.062-15.444-9.5,2.053,2.627-.512,6.958,1.46,9.647,1.109,1.511,3.453,2.143,3.8,3.985a6.267,6.267,0,0,1-.084,1.795,8.942,8.942,0,0,0,2.805,7.162,13.123,13.123,0,0,0,7.091,3.337,14.025,14.025,0,0,1,4.677,1.09c1.7,4.1,2.91,7.866,3.73,10.44a16.749,16.749,0,0,0-2.154-2.677,15.674,15.674,0,0,0-3.774-2.841c-1.08-.557-1.817-.734-1.889-.56-.177.385,2.594,1.405,5.1,3.96a31.346,31.346,0,0,1,3.683,5.012c.145.366.253.558.325.539.363-.079-1.156-6.671-4.35-14.341q-.252-.615-.508-1.211" transform="translate(-825.099 -566.547)"/>
      <path id="패스_22616" data-name="패스 22616" class="cls-12" d="M1314.227,923.653a16.125,16.125,0,0,0-5.462,7.875c-.346,1.2-.373,1.976-.19,2.011.413.1.867-2.9,2.976-5.91,2.076-3.029,4.729-4.506,4.492-4.859-.094-.161-.814.139-1.816.882" transform="translate(-893.964 -630.423)"/>
      <path id="패스_22617" data-name="패스 22617" class="cls-12" d="M1285.3,907.533c-.393.158,1.179,3.5,1.736,7.972.593,4.469-.084,8.1.337,8.151.365.079,1.063-3.666.454-8.253-.571-4.59-2.193-8.039-2.527-7.87" transform="translate(-878.096 -620.038)"/>
      <path id="패스_22618" data-name="패스 22618" class="cls-13" d="M1256.6,953.721h-18.442l.542,6.475h1.989s4.158,49.05,7.954,56.1h15.911c3.8-7.052,7.956-56.1,7.956-56.1h1.989l.543-6.475Z" transform="translate(-845.93 -651.598)"/>
      <path id="패스_22619" data-name="패스 22619" class="cls-14" d="M1246.149,974.163h31.821s-.245,3.57-.522,5.8c0,0-21.4-1.074-31.053-3.012,0,0-.108-1.64-.246-2.785" transform="translate(-851.39 -665.564)"/>
      <path id="패스_22620" data-name="패스 22620" class="cls-3" d="M414.679,925.675H369.2V928.7h3.764L370.707,997h1.651l3.426-68.308h7.955L381.479,997h1.651l3.426-68.308h8.905L398.887,997h1.651L398.279,928.7h9.941L411.645,997H413.3L411.037,928.7h3.641Z" transform="translate(-252.245 -632.437)"/>
      <path id="패스_22621" data-name="패스 22621" class="cls-4" d="M381.084,935.212v1.851l2.624,2.014.194-3.865Z" transform="translate(-260.363 -638.952)"/>
      <path id="패스_22622" data-name="패스 22622" class="cls-4" d="M415.093,935.212v1.851l2.624,2.014.194-3.865Z" transform="translate(-283.599 -638.952)"/>
      <path id="패스_22623" data-name="패스 22623" class="cls-4" d="M495.19,935.212l.06,1.805-2.683,2.059-.194-3.865Z" transform="translate(-336.397 -638.952)"/>
      <path id="패스_22624" data-name="패스 22624" class="cls-4" d="M454.916,935.212l.06,1.805-2.684,2.059-.194-3.865Z" transform="translate(-308.881 -638.952)"/>
      <path id="패스_22625" data-name="패스 22625" class="cls-3" d="M615.522,925.675H570.045V928.7h3.764L571.55,997H573.2l3.426-68.308h7.956L582.323,997h1.651L587.4,928.7H596.3L599.73,997h1.651L599.122,928.7h9.941L612.488,997h1.651L611.881,928.7h3.64Z" transform="translate(-389.464 -632.437)"/>
      <path id="패스_22626" data-name="패스 22626" class="cls-4" d="M581.928,935.212v1.851l2.624,2.014.194-3.865Z" transform="translate(-397.583 -638.952)"/>
      <path id="패스_22627" data-name="패스 22627" class="cls-4" d="M615.936,935.212v1.851l2.624,2.014.194-3.865Z" transform="translate(-420.818 -638.952)"/>
      <path id="패스_22628" data-name="패스 22628" class="cls-4" d="M696.034,935.212l.06,1.805-2.684,2.059-.194-3.865Z" transform="translate(-473.617 -638.952)"/>
      <path id="패스_22629" data-name="패스 22629" class="cls-4" d="M655.759,935.212l.06,1.805-2.683,2.059-.194-3.865Z" transform="translate(-446.1 -638.952)"/>
      <path id="패스_22630" data-name="패스 22630" class="cls-9" d="M834.435,1111.855l2.335,6.587s9.026,3.611,9.159,5.892H829.3a1.884,1.884,0,0,1-1.374-1.662c-.133-1.374-.233-10.819-.233-10.819Z" transform="translate(-565.494 -759.637)"/>
      <path id="패스_22631" data-name="패스 22631" class="cls-9" d="M700.326,1111.855l-2.762,6.587s-9.026,3.611-9.159,5.892h16.629a1.882,1.882,0,0,0,1.374-1.662c.133-1.374.659-10.819.659-10.819Z" transform="translate(-470.33 -759.637)"/>
      <path id="패스_22632" data-name="패스 22632" class="cls-15" d="M762.695,651.646s-2.624,5.079-20.961,5.085c-13.183,0-19.3-3.062-20.845-4.75a3.769,3.769,0,0,1-.523-1.325C717.893,671.478,713,717.989,713,717.989c-3.175,25.809-7.971,80.889-7.971,80.889h15.509s10.366-60.861,12.2-81.474c.858-3.736,3.2-12.2,5.963-21.937,1.533,12.495,2.819,22.051,2.819,22.051-2.823,27.4-.061,81.36-.061,81.36h15.93s2.143-54.785,3.75-81.674c1.742-29.132,1.588-61.274,1.559-65.564Z" transform="translate(-481.689 -444.54)"/>
      <path id="패스_22633" data-name="패스 22633" class="cls-16" d="M815.581,412.481c.367-3.5.634-7.372.794-11.632l-3.317-.975s-1.994,4.413-4.288,9.82c-.75-.265-1.218-.418-1.218-.418a19.188,19.188,0,0,0-1.556,4l.353,1.216a141.208,141.208,0,0,0-5.227,13.677c-1.77-1.693-9.085-8.6-16.925-14.638-.217-.177-.428-.338-.63-.483l-.013-.01-.018-.013L783.5,413c-.043-.032-.088-.063-.133-.092a7.955,7.955,0,0,0-2.189-1.118s-9.087-3.148-17.581.936c-9.44,4.538-11.124,27.015-12.53,43.788-1.2,14.35-.052,22.967.924,24.133,1.539,1.688,7.66,4.755,20.844,4.75,18.336-.006,20.961-5.085,20.961-5.085,1.936-2.753,1.3-10.65,1.314-16.624a198.1,198.1,0,0,0-1.729-20.955c.265-.331.53-.658.8-1l-1.257-2.509q-.161-1.172-.33-2.324,1.473.73,3.115,1.466a12.489,12.489,0,0,0,6.957,1.235v0c.017,0,.034-.008.051-.01.231-.036.457-.088.683-.143.072-.018.145-.03.217-.049a8.824,8.824,0,0,0,3.118-1.588c.095-.071.187-.142.279-.217.062-.052.123-.1.185-.156,6.586-5.516,9.187-19.288,9.187-19.288l.738-.478a16.032,16.032,0,0,0,.654-4.01c-.656-.4-1.4-.8-2.187-1.183" transform="translate(-512.787 -273.2)"/>
      <path id="패스_22634" data-name="패스 22634" class="cls-17" d="M805.047,362.651l11.054.637-.8,13.9-11.051-.637Z" transform="translate(-549.475 -247.769)"/>
      <path id="패스_22635" data-name="패스 22635" class="cls-17" d="M808.889,362.923l9.534.551s1.38,5.671.182,9.842c-.649,2.259-1.881,4.043-4.625,4.208a6.44,6.44,0,0,1-6.107-4.869c-.862-4.252,1.017-9.732,1.017-9.732" transform="translate(-551.797 -247.955)"/>
      <path id="패스_22636" data-name="패스 22636" class="cls-17" d="M813.708,402.835c-4.249,2.1-15.054-.26-15.054-.26a76.036,76.036,0,0,0,2.146-16.74l10.9.38a42.27,42.27,0,0,0,2,16.62" transform="translate(-545.654 -263.609)"/>
      <path id="패스_22637" data-name="패스 22637" class="cls-18" d="M827.861,402a4.71,4.71,0,0,1-5.446,1.977s1.465,5.893,6.256,5.14a40.621,40.621,0,0,1-.81-7.117" transform="translate(-561.887 -274.653)"/>
      <path id="패스_22638" data-name="패스 22638" class="cls-19" d="M796.542,453.545c-1.5,5.794-3.046,13.792-4.565,23.043a71.506,71.506,0,0,1,9.06-5.6c.116-.331.331-.9.331-.9a32.2,32.2,0,0,1,5.072-2.6l.5,1.334c2.894-1.6,8.608-4.012,10.515-4.807-.926-7.045-1.541-11.007-1.541-11.007s-2.173-11.626-7.39-15.008a4.3,4.3,0,0,0-2.185-.963s6.183,4.841,8.19,15.783a61.329,61.329,0,0,0-16.409.439c-1.568-16.468-7.942-15.583-7.942-15.583a10.264,10.264,0,0,0-2.145,1.117c7.485-1.469,8.513,14.751,8.513,14.751" transform="translate(-538.394 -298.591)"/>
      <path id="패스_22639" data-name="패스 22639" class="cls-19" d="M796.748,538.735a77.5,77.5,0,0,1-8.545,9.4l.393,2.411a17.669,17.669,0,0,1-3.485,3.018l-1.225-.036s-6.874,5.97-15.459,6.675c-6.292,43.386-11.684,101.107-11.684,101.107,30.448,2.106,47.861-.129,47.861-.129.142-50.768-4.85-98.424-7.857-122.445" transform="translate(-517.019 -368.073)"/>
      <path id="패스_22640" data-name="패스 22640" class="cls-9" d="M797.732,522.3a63.482,63.482,0,0,1,10.137-6.427l.283-.863a42.455,42.455,0,0,1,4.787-2.511s.181.505.459,1.347l.01-.005,1.069-.522.058-.028,1.035-.5.06-.029q.517-.25,1.02-.49l.016-.008c1.035-.5,2.018-.962,2.919-1.386l.024-.011.858-.4.022-.01.776-.362.069-.032c1.018-.474,1.854-.859,2.442-1.127l.024-.011.371-.169.046-.021.228-.1.063-.03.213-.1s-7.649,3.137-11.155,5.072l-.5-1.334a32.215,32.215,0,0,0-5.072,2.6s-.214.569-.331.9a70.153,70.153,0,0,0-9.193,5.708,147.937,147.937,0,0,0,.314-18.912c.354,6.172-.718,16.689-1.054,19.765" transform="translate(-545.024 -343.337)"/>
      <path id="패스_22641" data-name="패스 22641" class="cls-9" d="M799.156,491.665c-.538.688-1.075,1.354-1.611,2.008-.166.2-.332.4-.5.6q-.579.7-1.158,1.362c-.172.2-.345.4-.517.6-.507.577-1.014,1.142-1.518,1.689-.171.186-.342.362-.513.544-.349.371-.7.737-1.043,1.094-.238.245-.476.487-.714.726-.283.285-.566.562-.848.837-.245.238-.489.48-.733.712q-.665.631-1.324,1.228c.158.837.29,1.66.378,2.439a23.6,23.6,0,0,1-3.234,2.721h-1.368s-8.631,5.973-16.851,5.867c-4.741.2-7.949-2.01-8.7-6.182-1.916-10.707,2.854-34.947,2.854-34.947-2.471,10.1-3.652,24.982-3.652,24.982-.549,7.849-1.216,16.9,8.515,17.368s18.01-6.722,18.01-6.722l1.225.036a17.664,17.664,0,0,0,3.485-3.018l-.392-2.411c4.315-3.692,10.2-11.529,10.2-11.529" transform="translate(-517.771 -323.134)"/>
      <path id="패스_22642" data-name="패스 22642" class="cls-9" d="M868.75,457.442s2.59,3.981,4.253,16.54c0,0-.86-10.693-4.253-16.54" transform="translate(-593.544 -312.532)"/>
      <path id="패스_22643" data-name="패스 22643" class="cls-20" d="M905.548,398.139,887.4,377.453a.2.2,0,0,0-.177-.08.236.236,0,0,0-.175.077l-18.807,20.689h-14v24.64H919.6v-24.64Zm-18.331-20.177,17.7,20.177H868.876Z" transform="translate(-583.632 -257.827)"/>
      <path id="패스_22644" data-name="패스 22644" class="cls-17" d="M954.879,380.814l.005-.005Z" transform="translate(-652.389 -260.175)"/>
      <path id="패스_22645" data-name="패스 22645" class="cls-17" d="M954.917,380.744l-.017.019Z" transform="translate(-652.403 -260.131)"/>
      <path id="패스_22646" data-name="패스 22646" class="cls-17" d="M954.9,380.806h0v0Z" transform="translate(-652.4 -260.172)"/>
      <path id="패스_22647" data-name="패스 22647" class="cls-17" d="M941.714,381.06a18.382,18.382,0,0,0,.051-3.444,27.525,27.525,0,0,0-.918,2.978c0-.4,0-.884.005-1.275l-1.2,1.318a11.024,11.024,0,0,0-.671,1.38,9.088,9.088,0,0,0-.362,2.65s-1.993,4.413-4.288,9.82a68.639,68.639,0,0,1,6.811,2.788c.367-3.5.634-7.372.794-11.632a6.159,6.159,0,0,0,1.165-3.351Z" transform="translate(-638.352 -257.992)"/>
      <path id="패스_22648" data-name="패스 22648" class="cls-9" d="M804.883,350.826c-1.806-2.276-11.328,2.276-11.328,2.276l-.574-.288s-9.046,14.4-4.847,26.177l7.349,1.672s1.883-2.955,0-8.433a30.706,30.706,0,0,1-1.2-11.66v0c-2.194-.706-2.4-2.975-1.477-3.83,1.293-1.2,2.62.257,2.62.257a4.645,4.645,0,0,1,.206.538,8.221,8.221,0,0,0,.222-2.575s.76,3.4,8.477-.186c0,0,.2.938.225,1.1,0,0,2.135-2.774.33-5.051" transform="translate(-537.707 -239.255)"/>
      <path id="패스_22649" data-name="패스 22649" class="cls-17" d="M806.784,370.1s-1.328-1.453-2.62-.257c-1.07.987-.631,3.865,2.637,4.037a4.449,4.449,0,0,0-.017-3.781" transform="translate(-549.063 -252.363)"/>
      <path id="패스_22650" data-name="패스 22650" class="cls-9" d="M840.05,399.25a6.724,6.724,0,0,1-.439.866,42.384,42.384,0,0,0,1.8,11.056c.4.112.617.188.617.188a9.6,9.6,0,0,1,3.444,2.108l.019,0c.628-7.063-5.437-14.22-5.437-14.22Z" transform="translate(-573.636 -272.774)"/>
      <rect id="사각형_3703" data-name="사각형 3703" class="cls-21" width="63.042" height="22.444" transform="translate(271.769 141.41)"/>
      <path id="패스_22651" data-name="패스 22651" class="cls-17" d="M863.433,509.048a21.228,21.228,0,0,0,3.884-1.4c-.039-.157-6.788.824-6.788.824-.079-.581-.335-4.826-.335-4.826a38.1,38.1,0,0,1-1.689,5.613s-5.364,2.423-11.322,5.346a79.471,79.471,0,0,1,2.537,9.423,90.222,90.222,0,0,0,10.475-11.4c2.608-.51,7.829-3.58,7.829-3.58Z" transform="translate(-578.809 -344.096)"/>
      <path id="패스_22652" data-name="패스 22652" class="cls-22" d="M867.071,486.447a3.416,3.416,0,0,1,0-4.475,2.922,2.922,0,0,1,2.159-.835,3.133,3.133,0,0,1,1.864.544,2.588,2.588,0,0,1,1.013,1.556h-1.993a.876.876,0,0,0-.845-.538.985.985,0,0,0-.872.415,2.234,2.234,0,0,0,0,2.186.948.948,0,0,0,.835.415,1.037,1.037,0,0,0,.539-.118,1,1,0,0,0,.344-.42h1.993a2.673,2.673,0,0,1-1.024,1.54,3.036,3.036,0,0,1-1.852.571,2.911,2.911,0,0,1-2.159-.84" transform="translate(-591.827 -328.721)"/>
      <path id="패스_22653" data-name="패스 22653" class="cls-22" d="M887.432,486.426a3.464,3.464,0,0,1,0-4.422,2.541,2.541,0,0,1,1.944-.866,2.041,2.041,0,0,1,1.761.851V481.2h1.841v6.01h-1.841v-.872a2.083,2.083,0,0,1-1.789.948,2.517,2.517,0,0,1-1.917-.862m3.307-1.12a1.465,1.465,0,0,0,.4-1.1,1.446,1.446,0,0,0-.4-1.093,1.281,1.281,0,0,0-1.831.005,1.462,1.462,0,0,0-.4,1.1,1.445,1.445,0,0,0,.4,1.094,1.281,1.281,0,0,0,1.831-.006" transform="translate(-605.764 -328.721)"/>
      <path id="패스_22654" data-name="패스 22654" class="cls-22" d="M913.6,481.2v.883a1.966,1.966,0,0,1,1.82-.948,2.337,2.337,0,0,1,1.19.3,2.071,2.071,0,0,1,.813.862,2.565,2.565,0,0,1,.867-.845,2.5,2.5,0,0,1,2.935.361,2.622,2.622,0,0,1,.646,1.885v3.511h-1.831v-3.263a1.241,1.241,0,0,0-.307-.9,1.284,1.284,0,0,0-1.691,0,1.243,1.243,0,0,0-.307.9v3.263h-1.831v-3.263a1.243,1.243,0,0,0-.307-.9,1.284,1.284,0,0,0-1.691,0,1.24,1.24,0,0,0-.307.9v3.263h-1.841V481.2Z" transform="translate(-622.931 -328.721)"/>
      <path id="패스_22655" data-name="패스 22655" class="cls-22" d="M950.459,481.988a2.039,2.039,0,0,1,1.761-.851,2.541,2.541,0,0,1,1.944.867,3.463,3.463,0,0,1,0,4.421,2.53,2.53,0,0,1-1.928.862,2.038,2.038,0,0,1-1.777-.948v3.737h-1.842V481.2h1.842Zm2.229,3.323a1.444,1.444,0,0,0,.4-1.093,1.462,1.462,0,0,0-.4-1.1,1.281,1.281,0,0,0-1.831-.005,1.444,1.444,0,0,0-.4,1.093,1.462,1.462,0,0,0,.4,1.1,1.281,1.281,0,0,0,1.831.005" transform="translate(-648.111 -328.721)"/>
      <path id="패스_22656" data-name="패스 22656" class="cls-22" d="M971.753,486.426a3.465,3.465,0,0,1,0-4.422,2.541,2.541,0,0,1,1.944-.866,2.041,2.041,0,0,1,1.761.851V481.2H977.3v6.01h-1.841v-.872a2.082,2.082,0,0,1-1.788.948,2.518,2.518,0,0,1-1.917-.862m3.307-1.12a1.463,1.463,0,0,0,.4-1.1,1.443,1.443,0,0,0-.4-1.093,1.281,1.281,0,0,0-1.831.005,1.463,1.463,0,0,0-.4,1.1,1.446,1.446,0,0,0,.4,1.094,1.28,1.28,0,0,0,1.831-.006" transform="translate(-663.373 -328.721)"/>
      <path id="패스_22657" data-name="패스 22657" class="cls-22" d="M997.414,475.2a1.1,1.1,0,1,1,.313-.77,1.039,1.039,0,0,1-.313.77m-1.68.679h1.841v6.01h-1.841Z" transform="translate(-680.191 -323.401)"/>
      <path id="패스_22658" data-name="패스 22658" class="cls-22" d="M1006.4,486.426a3.465,3.465,0,0,1,0-4.422,2.541,2.541,0,0,1,1.944-.866,2.04,2.04,0,0,1,1.761.851V481.2h1.842v5.978a3.2,3.2,0,0,1-.689,2.1,2.223,2.223,0,0,1-.942.667,3.729,3.729,0,0,1-1.384.237,3.782,3.782,0,0,1-2.187-.559,2.211,2.211,0,0,1-.916-1.713h1.81q.258.679,1.292.678a1.129,1.129,0,0,0,.84-.339,1.48,1.48,0,0,0,.334-1.072v-.84a2.082,2.082,0,0,1-1.788.948,2.518,2.518,0,0,1-1.917-.862m3.307-1.12a1.464,1.464,0,0,0,.4-1.1,1.444,1.444,0,0,0-.4-1.093,1.28,1.28,0,0,0-1.831.005,1.461,1.461,0,0,0-.4,1.1,1.444,1.444,0,0,0,.4,1.094,1.28,1.28,0,0,0,1.831-.006" transform="translate(-687.043 -328.721)"/>
      <path id="패스_22659" data-name="패스 22659" class="cls-22" d="M1032.57,481.2v.883a1.966,1.966,0,0,1,1.82-.948,2.18,2.18,0,0,1,1.675.689,2.645,2.645,0,0,1,.641,1.874v3.511h-1.831v-3.263a1.241,1.241,0,0,0-.307-.9,1.284,1.284,0,0,0-1.691,0,1.241,1.241,0,0,0-.307.9v3.263h-1.842V481.2Z" transform="translate(-704.21 -328.721)"/>
      <path id="패스_22660" data-name="패스 22660" class="cls-22" d="M904.943,456.558h1.739a1.488,1.488,0,0,1,.972.3.941.941,0,0,1-.43,1.671,1,1,0,0,1,.644.336.975.975,0,0,1,.24.656.927.927,0,0,1-.35.761,1.522,1.522,0,0,1-.978.282h-1.836Zm.975.741v.867h.639a.508.508,0,0,0,.339-.108.4.4,0,0,0,.128-.322.407.407,0,0,0-.128-.325.5.5,0,0,0-.339-.111Zm0,2.52h.736a.471.471,0,0,0,.331-.12.425.425,0,0,0,.131-.331.455.455,0,0,0-.125-.336.44.44,0,0,0-.325-.125h-.747Z" transform="translate(-618.272 -311.928)"/>
      <path id="패스_22661" data-name="패스 22661" class="cls-22" d="M917.021,458.947v-2.389H918v2.389a.793.793,0,0,0,.177.553.667.667,0,0,0,.519.194.686.686,0,0,0,.525-.194.777.777,0,0,0,.182-.553v-2.389h.975v2.389a1.652,1.652,0,0,1-.248.915,1.49,1.49,0,0,1-.627.562,1.926,1.926,0,0,1-.824.177,1.688,1.688,0,0,1-1.175-.433,1.562,1.562,0,0,1-.479-1.22" transform="translate(-626.524 -311.928)"/>
      <path id="패스_22662" data-name="패스 22662" class="cls-22" d="M931.514,460.561h-.975v-1.289l-1.386-2.714h1.106l.77,1.808.764-1.808H932.9l-1.386,2.714Z" transform="translate(-634.813 -311.928)"/>
      <path id="패스_22663" data-name="패스 22663" class="cls-22" d="M949.172,457.147a.452.452,0,0,0-.3.1.342.342,0,0,0-.117.279.4.4,0,0,0,.108.294.7.7,0,0,0,.282.171q.174.06.388.114a4.377,4.377,0,0,1,.425.131,1.865,1.865,0,0,1,.385.191.832.832,0,0,1,.282.322,1.068,1.068,0,0,1,.109.5,1.118,1.118,0,0,1-.414.87,1.593,1.593,0,0,1-1.089.362,1.711,1.711,0,0,1-1.089-.325,1.106,1.106,0,0,1-.413-.924h1.038a.451.451,0,0,0,.49.479.466.466,0,0,0,.33-.112.367.367,0,0,0,.12-.282.379.379,0,0,0-.108-.279.754.754,0,0,0-.282-.171c-.116-.042-.245-.081-.388-.117a3.875,3.875,0,0,1-.424-.134,2.035,2.035,0,0,1-.385-.191.809.809,0,0,1-.282-.319,1.058,1.058,0,0,1-.108-.493,1.093,1.093,0,0,1,.416-.9,1.638,1.638,0,0,1,1.063-.337,1.723,1.723,0,0,1,1.046.294,1.113,1.113,0,0,1,.416.927h-1.061a.536.536,0,0,0-.14-.334.406.406,0,0,0-.3-.117" transform="translate(-647.504 -311.804)"/>
      <path id="패스_22664" data-name="패스 22664" class="cls-22" d="M959.5,459.9a2.111,2.111,0,0,1,0-2.939,2.123,2.123,0,0,1,2.914,0,2.122,2.122,0,0,1,0,2.939,2.112,2.112,0,0,1-2.911,0m2.224-.633a1.364,1.364,0,0,0,0-1.676,1.1,1.1,0,0,0-1.539,0,1.363,1.363,0,0,0,0,1.676,1.1,1.1,0,0,0,1.539,0" transform="translate(-655.141 -311.805)"/>
      <path id="패스_22665" data-name="패스 22665" class="cls-22" d="M973.686,459.893a2.107,2.107,0,0,1,0-2.937,2.013,2.013,0,0,1,1.457-.579,2.055,2.055,0,0,1,1.186.354,1.842,1.842,0,0,1,.724.981H975.89a.765.765,0,0,0-.73-.439,1.019,1.019,0,0,0-.79.314,1.364,1.364,0,0,0,0,1.676,1.019,1.019,0,0,0,.79.314.766.766,0,0,0,.73-.439h1.163a1.842,1.842,0,0,1-.724.981,2.057,2.057,0,0,1-1.186.354,2.012,2.012,0,0,1-1.457-.579" transform="translate(-664.831 -311.804)"/>
      <rect id="사각형_3704" data-name="사각형 3704" class="cls-22" width="0.975" height="4.003" transform="translate(312.849 144.63)"/>
      <path id="패스_22666" data-name="패스 22666" class="cls-22" d="M995.089,460.536l-.222-.673H993.43l-.222.673H992.17l1.391-4.014h1.186l1.386,4.014Zm-1.414-1.414h.946l-.473-1.426Z" transform="translate(-677.867 -311.903)"/>
      <path id="패스_22667" data-name="패스 22667" class="cls-22" d="M1006.192,456.558h.975v3.262h1.215v.741h-2.19Z" transform="translate(-687.447 -311.928)"/>
      <rect id="사각형_3705" data-name="사각형 3705" class="cls-9" width="160.922" height="0.47" transform="translate(310.362 364.464)"/>
      <rect id="사각형_3706" data-name="사각형 3706" class="cls-9" width="265.299" height="0.47" transform="translate(36.118 364.464)"/>
    </g>
  </g>
</svg>
