<svg xmlns="http://www.w3.org/2000/svg" width="112.533" height="170.669" viewBox="0 0 112.533 170.669">
  <defs>
    <style>
      .cls-1 {
        fill: #ff6c80;
        font-size: 100px;
        font-family: SegoeUI, Segoe UI;
      }

      .cls-2 {
        fill: #fff;
        stroke: #fff;
      }
    </style>
  </defs>
  <g id="그룹_14784" data-name="그룹 14784" transform="translate(-849.598 -428.323)">
    <text id="_" data-name="♥" class="cls-1" transform="translate(869.559 536.323)"><tspan x="0" y="0">♥</tspan></text>
    <g id="그룹_14666" data-name="그룹 14666" transform="translate(850.098 485.031)">
      <path id="패스_21044" data-name="패스 21044" class="cls-2" d="M437.718,414.312l7.723-41.519a2.89,2.89,0,0,0-2.848-3.424H357.029c-5.133-11.622-11.772-20.283-20.167-20.283a2.9,2.9,0,0,0,0,5.794c11.938,0,21.613,31.679,26.592,58.845,0,.017-.012.041-.012.058a2.815,2.815,0,0,0,.232,1.13c.892,4.979,1.625,9.791,2.178,14.2a2.9,2.9,0,0,0,2.874,2.535h66.145a2.9,2.9,0,0,0,0-5.794H371.264c-.3-2.184-.773-5.365-1.416-9.177h65.024A2.9,2.9,0,0,0,437.718,414.312Zm-68.905-3.427c-1.984-10.573-5.061-24.046-9.435-35.723h79.73l-6.645,35.723Z" transform="translate(-333.965 -349.086)"/>
      <path id="패스_21045" data-name="패스 21045" class="cls-2" d="M381.841,391.688a11.1,11.1,0,1,0-11.106,11.106A11.116,11.116,0,0,0,381.841,391.688Zm-16.416,0a5.311,5.311,0,1,1,5.31,5.313A5.314,5.314,0,0,1,365.426,391.688Z" transform="translate(-285.28 -289.333)"/>
      <path id="패스_21046" data-name="패스 21046" class="cls-2" d="M365.341,391.688a11.1,11.1,0,1,0-11.106,11.106A11.116,11.116,0,0,0,365.341,391.688Zm-16.416,0a5.311,5.311,0,1,1,5.31,5.313A5.314,5.314,0,0,1,348.925,391.688Z" transform="translate(-316.578 -289.333)"/>
    </g>
  </g>
</svg>
