<svg id="그룹_14545" data-name="그룹 14545" xmlns="http://www.w3.org/2000/svg" width="143.141" height="28" viewBox="0 0 143.141 28">
  <defs>
    <style>
      .cls-1 {
        fill: #fff;
      }

      .cls-2 {
        fill: #b2b2b2;
      }
    </style>
  </defs>
  <g id="그룹_6" data-name="그룹 6">
    <path id="패스_16" data-name="패스 16" class="cls-1" d="M181.052,401.59a11.992,11.992,0,0,0-6.887,2.169,12.054,12.054,0,1,0,0,19.769,12.051,12.051,0,1,0,6.887-21.938Z" transform="translate(-155.224 -401.59)"/>
    <g id="그룹_5" data-name="그룹 5">
      <path id="패스_17" data-name="패스 17" class="cls-2" d="M201.037,413.234l-18.129,14.01a12.057,12.057,0,0,0,18.129-14.01Z" transform="translate(-163.848 -405.217)"/>
      <path id="패스_18" data-name="패스 18" class="cls-2" d="M175,408.915l3.079-2,7.323-4.755a11.982,11.982,0,0,0-1.907-.414L177.7,406.4,175,408.57l-5.042,3.4-12.063,8.123a12.273,12.273,0,0,0,.887,1.235l11.082-8.478Z" transform="translate(-156.055 -401.638)"/>
      <path id="패스_19" data-name="패스 19" class="cls-2" d="M197.336,411.8a11.936,11.936,0,0,0-.676-1.382l-12.794,9.743-4.563,3.475-1.784,1.126-5.8,3.663c.232.014.465.022.7.022a12.1,12.1,0,0,0,2.18-.2l3.366-3.051,1.342-1.216,4.187-2.829Z" transform="translate(-160.361 -404.341)"/>
      <path id="패스_20" data-name="패스 20" class="cls-2" d="M178.029,420.762l5.042-3.394,12.063-8.12a12.116,12.116,0,0,0-.887-1.235l-11.082,8.476-5.135,3.927-3.082,2-7.321,4.757a12.04,12.04,0,0,0,1.906.414l5.789-4.653Z" transform="translate(-159.088 -403.591)"/>
      <path id="패스_21" data-name="패스 21" class="cls-2" d="M175.542,411.672l4.083-2.692,8.522-5.617a12.036,12.036,0,0,0-1.561-.7l-7.264,5.7-3.78,2.968-5.14,3.444-10.757,7.209a12.164,12.164,0,0,0,1.092,1.081l9.744-7.5Z" transform="translate(-156.601 -401.923)"/>
      <path id="패스_22" data-name="패스 22" class="cls-2" d="M176.216,414.594,181,411.41l9.624-6.4a12.265,12.265,0,0,0-1.308-.912l-8.523,6.607-4.578,3.549-4.786,3.186-9.623,6.406a11.985,11.985,0,0,0,1.309.913l8.52-6.609Z" transform="translate(-157.275 -402.37)"/>
      <path id="패스_23" data-name="패스 23" class="cls-2" d="M177.032,417.628l5.139-3.442,10.758-7.206a12.16,12.16,0,0,0-1.091-1.082l-9.746,7.493-5.06,3.891-4.086,2.695-8.52,5.621a11.954,11.954,0,0,0,1.562.7l7.263-5.7Z" transform="translate(-158.09 -402.932)"/>
      <path id="패스_24" data-name="패스 24" class="cls-2" d="M167.277,401.59a12.06,12.06,0,0,0-11.359,16.092l18.125-14.013A11.994,11.994,0,0,0,167.277,401.59Z" transform="translate(-155.224 -401.59)"/>
      <path id="패스_25" data-name="패스 25" class="cls-2" d="M174.575,406.392l1.779-1.122,5.8-3.659c-.229-.013-.461-.021-.694-.021a12.092,12.092,0,0,0-2.168.2l-3.378,3.053-1.341,1.212-4.187,2.829-13.848,9.358a12.085,12.085,0,0,0,.676,1.381l12.8-9.751Z" transform="translate(-155.634 -401.59)"/>
    </g>
  </g>
  <g id="그룹_9" data-name="그룹 9" transform="translate(43.849 2.865)">
    <g id="그룹_7" data-name="그룹 7">
      <path id="패스_26" data-name="패스 26" class="cls-2" d="M247.628,406.145a9.2,9.2,0,0,0-7.829,4.35v-4.348h-6.6l-.993,0a9.211,9.211,0,0,0-7.628,4.025v-4.019h-5.661v18.368h5.661V420.5a9.211,9.211,0,0,0,7.628,4.026h7.6v-4.35a9.2,9.2,0,0,0,7.829,4.352h10.03v-4.973h-9.634l.01.007a4.2,4.2,0,0,1-3.4-1.736h13.027v-4.973H244.644a4.2,4.2,0,0,1,3.391-1.721l.639-.009h8.985v-4.973h-9.037ZM232.6,419.553l.01.007a4.215,4.215,0,0,1,0-8.43l.639-.009h6.191a9.145,9.145,0,0,0,0,8.432Z" transform="translate(-218.915 -405.874)"/>
      <path id="패스_27" data-name="패스 27" class="cls-2" d="M329.451,406.338l-.343-.084a18.758,18.758,0,0,0-8.7.016l-.249.061a9.216,9.216,0,0,0-5.351,3.861v-4.169h-10.03a9.2,9.2,0,0,0-8.928,6.935,9.2,9.2,0,0,0-8.927-6.936l-.993,0h-9.037V411h8.985l.639.008a4.216,4.216,0,0,1,4.213,4.216,4.261,4.261,0,0,1-4.207,4.205h-9.63v.115h0v11.342h5.661V424.4h3.872l.5,0a9.2,9.2,0,0,0,8.929-6.94,9.2,9.2,0,0,0,8.927,6.939l.5,0h9.53v-4.158a9.215,9.215,0,0,0,5.351,3.86l.249.061a18.763,18.763,0,0,0,8.7.016l.341-.084a9.182,9.182,0,0,0,6.818-8.872v-.013A9.18,9.18,0,0,0,329.451,406.338Zm-15.111,13.09h-9.164l.009.006a4.215,4.215,0,0,1,0-8.43l.64-.006h8.518a9.125,9.125,0,0,0-1.027,4.212v.014A9.126,9.126,0,0,0,314.339,419.428Zm16.519-4.191a4.218,4.218,0,0,1-3.084,4.063c-.19.052-.388.083-.582.118a13.685,13.685,0,0,1-4.78,0l-.613-.124a4.218,4.218,0,0,1-3.071-4.058v-.014a4.218,4.218,0,0,1,3.085-4.062c.189-.053.386-.083.582-.118a13.688,13.688,0,0,1,4.781,0l.613.123a4.218,4.218,0,0,1,3.071,4.059Z" transform="translate(-236.976 -405.751)"/>
    </g>
  </g>
</svg>
