<svg xmlns="http://www.w3.org/2000/svg" width="39.003" height="39.668" viewBox="0 0 39.003 39.668">
  <defs>
    <style>
      .cls-1 {
        fill: #fff;
        stroke: #fff;
        stroke-width: 0.5px;
      }
    </style>
  </defs>
  <g id="그룹_14654" data-name="그룹 14654" transform="translate(8983.25 6225.25)">
    <path id="패스_21044" data-name="패스 21044" class="cls-1" d="M369.782,371.6l2.666-14.333a1,1,0,0,0-.983-1.182H341.927c-1.772-4.012-4.064-7-6.962-7a1,1,0,0,0,0,2c4.121,0,7.461,10.936,9.18,20.314,0,.006,0,.014,0,.02a.971.971,0,0,0,.08.39c.308,1.719.561,3.38.752,4.9a1,1,0,0,0,.992.875H368.8a1,1,0,0,0,0-2H346.841c-.1-.754-.267-1.852-.489-3.168H368.8A1,1,0,0,0,369.782,371.6Zm-23.787-1.183a77.472,77.472,0,0,0-3.257-12.332h27.524l-2.294,12.332Z" transform="translate(-9316.965 -6574.086)"/>
    <path id="패스_21045" data-name="패스 21045" class="cls-1" d="M367.3,384.42a3.834,3.834,0,1,0-3.834,3.834A3.837,3.837,0,0,0,367.3,384.42Zm-5.667,0a1.834,1.834,0,1,1,1.833,1.834A1.835,1.835,0,0,1,361.632,384.42Z" transform="translate(-9316.965 -6574.086)"/>
    <path id="패스_21046" data-name="패스 21046" class="cls-1" d="M350.8,384.42a3.834,3.834,0,1,0-3.834,3.834A3.837,3.837,0,0,0,350.8,384.42Zm-5.667,0a1.834,1.834,0,1,1,1.833,1.834A1.835,1.835,0,0,1,345.132,384.42Z" transform="translate(-9316.965 -6574.086)"/>
  </g>
</svg>
