<svg xmlns="http://www.w3.org/2000/svg" width="22" height="21" viewBox="0 0 22 21">
  <defs>
    <style>
      .cls-1 {
        fill: #fff;
      }
    </style>
  </defs>
  <path id="Path" class="cls-1" d="M11.23.027l.041.011.087.029.125.058.082.051.1.078.075.074,10,11a1,1,0,0,1-1.39,1.433l-.09-.088L12,3.585V20a1,1,0,0,1-1.993.117L10,20V3.585L1.74,12.673a1,1,0,0,1-1.315.146l-.1-.079a1,1,0,0,1-.146-1.315l.079-.1,10-11a1.012,1.012,0,0,1,.1-.094l.077-.058L10.558.1A1,1,0,0,1,11,0l.117.007Z"/>
</svg>
