<svg xmlns="http://www.w3.org/2000/svg" width="723.06" height="392.103" viewBox="0 0 723.06 392.103">
  <defs>
    <style>
      .cls-1 {
        fill: #97a3ad;
      }

      .cls-2 {
        fill: #503a2e;
      }

      .cls-3 {
        fill: #2b2622;
      }

      .cls-4 {
        fill: #faad40;
      }

      .cls-5 {
        fill: #302c29;
      }

      .cls-6 {
        fill: #e9bfb1;
      }

      .cls-7 {
        fill: #d7271a;
      }

      .cls-8 {
        fill: #cf9083;
      }

      .cls-9 {
        fill: #f5f5f5;
      }

      .cls-10 {
        fill: #dbdbdb;
      }

      .cls-11 {
        fill: #121212;
      }

      .cls-12 {
        fill: #3a8870;
      }

      .cls-13 {
        fill: #fff;
      }

      .cls-14 {
        fill: #d63819;
      }

      .cls-15 {
        fill: #263c91;
      }

      .cls-16 {
        fill: #103082;
      }

      .cls-17 {
        fill: #6a7527;
      }

      .cls-18 {
        fill: #71882b;
      }

      .cls-19 {
        fill: #2e503a;
      }

      .cls-20 {
        fill: #e5a00d;
      }

      .cls-21 {
        fill: #dab1a6;
      }

      .cls-22 {
        fill: #9d401a;
      }

      .cls-23 {
        fill: #040504;
      }

      .cls-24 {
        fill: #f58c09;
      }

      .cls-25 {
        fill: #67c1ef;
      }

      .cls-26 {
        fill: #4cabd6;
      }

      .cls-27 {
        fill: #2c3645;
      }

      .cls-28 {
        fill: #d4d3d2;
      }

      .cls-29 {
        fill: #2051a0;
      }

      .cls-30 {
        fill: #225aa7;
      }

      .cls-31 {
        fill: #65b98a;
      }

      .cls-32 {
        fill: #89c8a4;
      }

      .cls-33 {
        fill: #b7582a;
      }

      .cls-34 {
        fill: #62483d;
      }

      .cls-35 {
        fill: #f8ced4;
      }

      .cls-36 {
        fill: #af5d5f;
      }

      .cls-37 {
        fill: #cc6f6f;
      }

      .cls-38 {
        fill: #da8689;
      }

      .cls-39 {
        fill: #e83755;
      }
    </style>
  </defs>
  <g id="그룹_14789" data-name="그룹 14789" transform="translate(-20.392 0)">
    <path id="패스_21274" data-name="패스 21274" class="cls-1" d="M571.132,373.888l-2.327,9s-17.909,5.653-18.114,9.215l29.782-.023a2.94,2.94,0,0,0,2.141-2.6c.206-2.144-.929-15.6-.929-15.6Z"/>
    <path id="패스_21275" data-name="패스 21275" class="cls-2" d="M562.592,143.33s-2.285,64.727.157,102.458c2.448,37.813,8.48,128.1,8.48,128.1h12.964s15.73-89.481,7.965-127.915c0,0,15.411-63.418,17.91-98.748Z"/>
    <path id="패스_21276" data-name="패스 21276" class="cls-2" d="M627.053,144.246c3.356,14.68,6.781,101.727,6.781,101.727,8.132,34.572-3.906,127.915-3.906,127.915H616.964s-9.57-91.326-12.54-128.1c-2.534-5.56-30.594-101.322-30.594-101.322Z"/>
    <path id="패스_21277" data-name="패스 21277" class="cls-3" d="M597.3,223.421l-14.185-47.448s9,52.3,13.211,51.879Z"/>
    <path id="패스_21278" data-name="패스 21278" class="cls-4" d="M640.074,74.33c-12.479-16.609-23.014-26.324-26.683-29.509a16.014,16.014,0,0,0-1.374-1.16L612,43.646a13.089,13.089,0,0,0-2.163-1.326c-13.226-6.358-28.906-1.762-28.906-1.762s-2.332.361-5.327,3.265c-3.706,2.834-21.516,16.467-26.057,20.1,0,0,4.1,8.78,14.043,17.269-2.092,14.659-3.62,30.821-3.6,38.923.026,9.3,0,19.645,3.359,24.528,0,0,3.966,9.267,32.511,9.272,27.235,0,28.8-7.039,31.2-9.667,1.777-4.489,3.13-10.894,2.539-33.82a237.185,237.185,0,0,0-2.043-25.269,60.183,60.183,0,0,0,12.52-10.829"/>
    <path id="패스_21279" data-name="패스 21279" class="cls-5" d="M610.853,67.22h0c.025.081.068.215.129.4-.045-.138-.088-.269-.129-.4"/>
    <path id="패스_21280" data-name="패스 21280" class="cls-5" d="M621.294,88.543a88.757,88.757,0,0,1-9.636-18.9c1.65,4.852,4.53,15.344,8.558,20.768l3.531-1.872s2.775,11.268,5.447,13.12c0,0-.442-5.331-.681-8.337-1.136-1.9-2.374-4.068-3.7-6.534-1.134.627-2.3,1.222-3.519,1.755"/>
    <path id="패스_21281" data-name="패스 21281" class="cls-5" d="M571.322,49.465s-3.407,2.846-6.814,25.631c0,0,3.121-19.8,6.814-25.631"/>
    <path id="패스_21282" data-name="패스 21282" class="cls-6" d="M600.845,24.08l-.556-9.65v-.078l-.148-2.59c1.495-1.521,1.411-3.784.322-4.789a2.99,2.99,0,0,0-.624-.451l-.207-3.6-2.364.136-14.841.859s-2.147,8.829-.282,15.32a12.666,12.666,0,0,0,1.3,3.085,62.058,62.058,0,0,1-3.238,18.5c6.616,3.268,23.435-.4,23.435-.4a101.022,101.022,0,0,1-2.8-16.337"/>
    <path id="패스_21283" data-name="패스 21283" class="cls-7" d="M619.528,85.816c4.418-2.592,13.225-8.157,18.505-14.16-.212-.275-.425-.551-.636-.822-5.124,5.886-14,11.511-18.4,14.108.184.308.363.6.531.874"/>
    <path id="패스_21284" data-name="패스 21284" class="cls-7" d="M551.592,62.912c2.081,3.242,6.626,10.318,12.827,15.8l.352-1.048c-5.933-5.345-10.3-12.152-12.325-15.3l-.309-.481-.8.628Z"/>
    <path id="패스_21285" data-name="패스 21285" class="cls-8" d="M583.435,22.325a7.329,7.329,0,0,0,8.478,3.078s-2.281,9.173-9.739,8a63.356,63.356,0,0,0,1.261-11.078"/>
    <path id="패스_21286" data-name="패스 21286" class="cls-6" d="M603.63,40.411,582.42,45.4,580.2,40.816a176.585,176.585,0,0,1,23.435-.405"/>
    <path id="패스_21287" data-name="패스 21287" class="cls-9" d="M585.094,42.223,591.1,50.5l13.535-9.9-.578-3.807Z"/>
    <path id="패스_21288" data-name="패스 21288" class="cls-10" d="M585.094,42.224,582.42,45.4l4.253-1Z"/>
    <path id="패스_21289" data-name="패스 21289" class="cls-9" d="M581.493,41.774l-7.051,5.879,4.388-7.464,1.984-1.237Z"/>
    <path id="패스_21290" data-name="패스 21290" class="cls-10" d="M581.492,41.774l.927,3.627-1.52-3.133Z"/>
    <path id="패스_21291" data-name="패스 21291" class="cls-5" d="M602.9,9.487c-.413-7.423-2.854-8.713-2.854-8.713C598.4-.791,583.869-.1,582.422,3.913a5.223,5.223,0,0,0-.669,3.769s5.142.421,10.471.421l.481-1.855a38.5,38.5,0,0,0,3.013,4.007,7.069,7.069,0,0,1,.663-2.884s2.066-2.262,4.079-.4c1.421,1.312,1.128,4.766-2.155,5.917l.131.114c-1.87,5.884.056,16.278.056,16.278l11.157-1.021c-.592-9.515-6.343-11.517-6.746-18.772"/>
    <path id="패스_21292" data-name="패스 21292" class="cls-5" d="M583.433,22.318a12.707,12.707,0,0,1-1.3-3.085,22.64,22.64,0,0,1-.755-5.957l-.007-.018s.02,4.816-1.672,7.608-3.12,5.487-3.42,7.4l6.567,1.018c.284-2.1.5-4.437.587-6.966"/>
    <path id="패스_21293" data-name="패스 21293" class="cls-6" d="M650.636,97.173a132.5,132.5,0,0,0-11.361-21.936,59.912,59.912,0,0,1-14.463,11.557c6.32,11.725,10.694,16.907,10.694,16.907-21.206,14.6-41.782,37.665-41.782,37.665s-5.144,2.673-7,6.6h7.647s4.166-.088,4.409-2.987c0,0,30.959-18.885,45.584-29.477,6.22-4.5,9.642-9.929,6.272-18.329"/>
    <path id="패스_21294" data-name="패스 21294" class="cls-1" d="M615.968,373.888l-2.327,9s-3.784,4.394-2.092,9.215l13.76-.023a2.94,2.94,0,0,0,2.141-2.6c.206-2.144-.929-15.6-.929-15.6Z"/>
    <path id="패스_21295" data-name="패스 21295" class="cls-6" d="M550.493,65.689c-4.953,4.432-10.168,9.185-15.206,13.929,0,0-17.166,3.253-55.909,16.785,0,0-7.629-.129-9,.906l3.852.845a22.047,22.047,0,0,1-3.688,3.1c-1.458.8-5.895,1.17-5.759,1.5s4.7.49,6.122.1a46.339,46.339,0,0,0-5.613,2.34c-1.991,1.1,6.341-.667,6.341-.667s-4.828,2.751-4.706,2.994,5.3-1.647,5.3-1.647-2.81,2.827-2.6,3.065,4.118-2.87,4.118-2.87,5.131-1.525,7.082-3.432c0,0,34-.173,60.858-10.558a122.817,122.817,0,0,0,20.042-12.552,60.347,60.347,0,0,1-11.234-13.838"/>
    <rect id="사각형_2600" data-name="사각형 2600" class="cls-11" width="114.155" height="74.508" transform="translate(508.489 59.037)"/>
    <rect id="사각형_2601" data-name="사각형 2601" class="cls-5" width="109.967" height="70.407" transform="translate(510.583 61.088)"/>
    <rect id="사각형_2602" data-name="사각형 2602" class="cls-5" width="18.582" height="30.724" transform="translate(555.529 115.041)"/>
    <path id="패스_21296" data-name="패스 21296" class="cls-5" d="M576.378,147.988v-2.252H553.266v2.252H529.347v3.017H600.3v-3.017Z"/>
    <path id="패스_21297" data-name="패스 21297" class="cls-11" d="M574.111,115.042l1.3,16.453h-1.3Z"/>
    <path id="패스_21298" data-name="패스 21298" class="cls-11" d="M555.528,145.765s9.859-3.526,18.582,0Z"/>
    <rect id="사각형_2603" data-name="사각형 2603" class="cls-11" width="70.95" height="0.396" transform="translate(529.345 147.988)"/>
    <rect id="사각형_2604" data-name="사각형 2604" class="cls-11" width="31.805" height="6.726" transform="translate(548.918 75.823)"/>
    <rect id="사각형_2605" data-name="사각형 2605" class="cls-5" width="6.831" height="35.592" transform="translate(507.096 109.343)"/>
    <rect id="사각형_2606" data-name="사각형 2606" class="cls-11" width="44.098" height="14.857" transform="translate(488.246 95.513)"/>
    <rect id="사각형_2607" data-name="사각형 2607" class="cls-12" width="41.522" height="12.593" transform="translate(489.533 96.75)"/>
    <path id="패스_21299" data-name="패스 21299" class="cls-5" d="M517.508,147.509v-2.575H503.08v2.575h-2.757v3.5h19.941v-3.5Z"/>
    <path id="패스_21300" data-name="패스 21300" class="cls-11" d="M555.529,115.042,554.266,131.5h1.263Z"/>
    <path id="패스_21301" data-name="패스 21301" class="cls-11" d="M507.1,144.935a9.769,9.769,0,0,1,6.827,0Z"/>
    <rect id="사각형_2608" data-name="사각형 2608" class="cls-11" width="19.94" height="0.459" transform="translate(500.325 147.51)"/>
    <path id="패스_21302" data-name="패스 21302" class="cls-11" d="M513.927,109.342l1.339,22.152h-1.339Z"/>
    <path id="패스_21303" data-name="패스 21303" class="cls-13" d="M494.494,104.773a.819.819,0,1,1-.818-.819.819.819,0,0,1,.818.819"/>
    <path id="패스_21304" data-name="패스 21304" class="cls-13" d="M501.228,104.773a.819.819,0,1,1-.819-.819.819.819,0,0,1,.819.819"/>
    <path id="패스_21305" data-name="패스 21305" class="cls-13" d="M507.963,104.773a.82.82,0,1,1-.819-.819.819.819,0,0,1,.819.819"/>
    <path id="패스_21306" data-name="패스 21306" class="cls-13" d="M514.7,104.773a.819.819,0,1,1-.818-.819.819.819,0,0,1,.818.819"/>
    <path id="패스_21307" data-name="패스 21307" class="cls-13" d="M521.427,104.773a.819.819,0,1,1-.819-.819.819.819,0,0,1,.819.819"/>
    <path id="패스_21308" data-name="패스 21308" class="cls-13" d="M528.166,104.773a.819.819,0,1,1-.819-.819.819.819,0,0,1,.819.819"/>
    <rect id="사각형_2609" data-name="사각형 2609" class="cls-14" width="81.566" height="3.596" transform="translate(381.472 110.207)"/>
    <rect id="사각형_2610" data-name="사각형 2610" class="cls-15" width="2.697" height="25.221" transform="translate(420.907 85.01)"/>
    <path id="패스_21309" data-name="패스 21309" class="cls-15" d="M459.1,158.657H385.4L383.137,113.8h78.237Z"/>
    <path id="패스_21310" data-name="패스 21310" class="cls-16" d="M394.781,153.361H390.7L389.246,119.1h4.944Z"/>
    <path id="패스_21311" data-name="패스 21311" class="cls-16" d="M409.331,153.361h-4.078l-.442-34.263h4.944Z"/>
    <path id="패스_21312" data-name="패스 21312" class="cls-16" d="M449.729,153.361h4.079l1.456-34.263H450.32Z"/>
    <path id="패스_21313" data-name="패스 21313" class="cls-16" d="M435.18,153.361h4.079L439.7,119.1h-4.944Z"/>
    <path id="패스_21314" data-name="패스 21314" class="cls-16" d="M423.881,153.361H419.8L419.36,119.1H424.3Z"/>
    <path id="패스_21315" data-name="패스 21315" class="cls-16" d="M383.137,113.8h78.237l-.078,1.062H383.217Z"/>
    <path id="패스_21316" data-name="패스 21316" class="cls-17" d="M431.112,110.207a12.159,12.159,0,0,1-1.121-9.5s-6.069-7.2-.952-14.622c0,0,1.269-4.635,4.822-4.762s4.822,3.941,4.948,4.762a13.022,13.022,0,0,1,0,14.145s2.326,5.366-1.1,10Z"/>
    <path id="패스_21317" data-name="패스 21317" class="cls-18" d="M436.342,110.207a7,7,0,0,1,4.947-6.488s-2.537-12.5,7.107-16.622c0,0,3.109-3.489,7.359-2.538a4.877,4.877,0,0,1,4.016,5.266c.045.634,2.9,11.086-5.6,15.734a10.371,10.371,0,0,1,.635,4.671Z"/>
    <path id="패스_21318" data-name="패스 21318" class="cls-3" d="M339.022,375.86l2.039,8.546s14.886,4.685,15.058,7.645H330.345a2.44,2.44,0,0,1-1.782-2.156c-.172-1.781,1.054-14.035,1.054-14.035Z"/>
    <path id="패스_21319" data-name="패스 21319" class="cls-3" d="M302.674,375.86l.977,8.546s10.485,4.685,10.658,7.645H292.936a2.442,2.442,0,0,1-1.781-2.156c-.172-1.781,2.116-14.035,2.116-14.035Z"/>
    <path id="패스_21320" data-name="패스 21320" class="cls-19" d="M364.926,144.958c.023-8.424-2.585-27.146-5.557-42.343,4.9-6.067,6.107-18.171,6.107-18.171a119.947,119.947,0,0,0-19.668-12.275,15.608,15.608,0,0,0-4.416-2.028,36.467,36.467,0,0,0-26.006,2.553c-10.223,5.2-14.771,42.438-14.883,62.273-.117,20.776.861,30.724,2.953,34.123,2.192,2.4,3.569,6.96,29.667,6.762s29.835-7.239,29.835-7.239c2.476-3.988,1.945-15.152,1.968-23.655"/>
    <path id="패스_21321" data-name="패스 21321" class="cls-6" d="M342.418,70.89a56.738,56.738,0,0,1-2.96-16.913,11.557,11.557,0,0,0,1.184-2.821c1.7-5.934-.258-14.007-.258-14.007l-13.569-.785-2.163-.125-.176,3.068a2.378,2.378,0,0,0-1.228.637c-1.126,1.039-1.075,3.549.91,4.886l-.107,1.861v.071l-.508,8.825A92.541,92.541,0,0,1,321,70.518s7.876,10.368,17.607,10.191,3.815-9.819,3.815-9.819"/>
    <path id="패스_21322" data-name="패스 21322" class="cls-20" d="M352.971,166.09h-50.72c-3.07,10.525-4.136,92.812-4.136,92.812-10.166,28.063-5.8,116.958-5.8,116.958h11.854S314.339,327.907,325,258.733q2.733-9.6,5.263-18.307c.943,10.9,1.589,18.476,1.589,18.476C322.894,291.364,328.6,375.86,328.6,375.86h11.854s10.636-53.832,18.288-117.127c5.242-46.21,5.242-92.643,5.242-92.643Z"/>
    <path id="패스_21323" data-name="패스 21323" class="cls-3" d="M330.246,242.42l14.65-50.672s-10.859,51.182-14.239,54.864Z"/>
    <path id="패스_21324" data-name="패스 21324" class="cls-3" d="M346.57,166.09l-.677,5.919s3.468.168,3.214-5.919Z"/>
    <path id="패스_21325" data-name="패스 21325" class="cls-6" d="M423.6,85.01s3.2-2.5,3.37-2.333-1.283,4.15-3.37,5.458Z"/>
    <path id="패스_21326" data-name="패스 21326" class="cls-6" d="M424.593,140.257l-3.458-2.442a17.977,17.977,0,0,0-1.86-1.314l-2.558-1.807a14.077,14.077,0,0,0,2.836-1.106c.08-.268-5.273-1.119-5.273-1.119a8.788,8.788,0,0,0-4.714-.416,466.406,466.406,0,0,0-54.918-13.932,248.2,248.2,0,0,0-15.506-20.975,34.522,34.522,0,0,1-15.127,13.973c5.307,6.46,11.525,12.993,18.122,17.844,8.278,6.086,9.55,6.414,26.342,8.19,9.743,1.031,35.8.048,39.7-.107a58.213,58.213,0,0,0,16.414,3.211"/>
    <path id="패스_21327" data-name="패스 21327" class="cls-3" d="M352.919,78.919s2.718,4.024,5.783,19.628a44.292,44.292,0,0,0-5.783-19.628"/>
    <path id="패스_21328" data-name="패스 21328" class="cls-3" d="M339.935,127.264c-.2-.164-.408-.331-.612-.5q-.863-.707-1.714-1.443c-.162-.141-.327-.279-.489-.421q-1.066-.94-2.115-1.921c-.132-.124-.262-.251-.393-.375q-.877-.832-1.74-1.69c-.174-.173-.347-.345-.52-.519q-1.008-1.014-1.992-2.054l-.022-.023q-1.035-1.1-2.037-2.216c-.126-.14-.25-.28-.375-.42q-.861-.964-1.7-1.936l-.275-.318q-.987-1.155-1.939-2.311c-.742.356-1.511.7-2.314,1.014L310.708,94.36c.007.013,9.6,17.515,10.489,19.286a6.748,6.748,0,0,0,2.615-1.066s10.026,13.819,21.37,18.7c-1.011-.759-2.023-1.561-3.048-2.315-.737-.545-1.47-1.117-2.2-1.7"/>
    <path id="패스_21329" data-name="패스 21329" class="cls-6" d="M422.255,82.669c-.108-.135-5.523,1.363-5.523,1.363-25.21,2.851-45.208,6.935-45.208,6.935q-3.348-2.484-6.3-4.656c-.5,3.275-1.84,10.154-4.823,14.85,6.6,2.751,9.6,2.875,9.6,2.875,23.917-1.269,48.324-14.526,48.324-14.526a17.611,17.611,0,0,1,2.58-.828V85.009a1.7,1.7,0,0,0-.241-.325,11.9,11.9,0,0,0,1.591-2.015"/>
    <path id="패스_21330" data-name="패스 21330" class="cls-3" d="M341.222,47.924a17.9,17.9,0,0,1-.58,3.232,11.6,11.6,0,0,1-1.18,2.779,59.945,59.945,0,0,0,2.789,16.49c1.6.64,3.325,1.937,6.442,3.215l.166-.26c1.37-2.022-.707-7.133-4.662-13.5a21.228,21.228,0,0,1-2.975-11.956"/>
    <path id="패스_21331" data-name="패스 21331" class="cls-8" d="M339.456,53.983A6.7,6.7,0,0,1,331.7,56.8s2.086,8.387,8.9,7.316a57.785,57.785,0,0,1-1.149-10.13"/>
    <path id="패스_21332" data-name="패스 21332" class="cls-3" d="M335.479,31.282c-5.971-1.327-11.4-.559-12.6,3.77-.767,2.776-2.318,10.2-4.822,15.734-2.655,5.87-10.578,14.762-4.533,23.252,0,0,1.709-1.5,7.462-3.519,0,0,5.576.143,5.289-11.109a124.991,124.991,0,0,1,.7-13.72c-4.636-.255-5.258-4.341-3.738-5.745a2.382,2.382,0,0,1,3.225-.07c2.677.361,9.47.964,11.375-1.893,0,0,1.238,1.99,3.009,1.652.009,0,.6-7.026-5.367-8.352"/>
    <rect id="사각형_2611" data-name="사각형 2611" class="cls-3" width="27.498" height="0.792" transform="translate(234.828 391.259)"/>
    <path id="패스_21333" data-name="패스 21333" class="cls-21" d="M246.582,384.4l-1.256-5.268a27.936,27.936,0,0,1-.763-6.6c.07-18.055.316-81.139.434-112.983.139-37.532,2.858-101.523,2.858-101.523H201.421c2.466,34.877,18.909,102.5,18.909,102.5-6.589,36.706,14.8,116.944,14.8,116.944h.053c.113,3.389.377,11.038.51,12.417a2.444,2.444,0,0,0,1.782,2.157h24.157c-.169-2.96-15.055-7.646-15.055-7.646"/>
    <path id="패스_21334" data-name="패스 21334" class="cls-21" d="M228.433,157.2l-45.582-1.865c-3.314,14.491,5.463,98.5,5.463,98.5-4.049,33.8,6.56,122.02,6.56,122.02s.391,12.253.563,14.035a2.443,2.443,0,0,0,1.782,2.156h15.149c-.172-2.959-6.05-7.646-6.05-7.646l-1.3-5.442a18.1,18.1,0,0,1-.43-5.715c1.287-15.284,7.337-87.182,9.95-119.529,2.073-13.066,13.9-96.514,13.9-96.514"/>
    <path id="패스_21335" data-name="패스 21335" class="cls-22" d="M251.052,238.353s-1.668-54.818-3.2-81.934l-46.433-1.082s-.019.266-.051.758l-18.524-.758s-2.422,24.2,2.191,86.661H223.1s.076-1.307.21-3.6c8.128.057,18.461.079,27.741-.044"/>
    <path id="패스_21336" data-name="패스 21336" class="cls-11" d="M216.4,242h6.7s2.867-48.025,3.236-53.854c0,0-1.351,46.544-1.7,55.341h-2.027a14.119,14.119,0,0,1-5.325,2.469S216.567,243,216.4,242"/>
    <path id="패스_21337" data-name="패스 21337" class="cls-5" d="M242.631,63.653c-3.766-7.91-11.257-11.092-14.029-12.137l-20.5-.683a25.2,25.2,0,0,0-8.169,2.025,15.792,15.792,0,0,0-5.085,4.111c-2.317,2.2-41.886,39.994-45.692,57.684a17.263,17.263,0,0,0,1.624,12.383s4.99,13.687,30.111,19.193c.342,4.642.933,7.444,1.957,9.107,2.366,2.594,5.494,8.318,32.8,8.9,27.424.582,32.212-7.815,32.212-7.815,2.975-4.23,3.173-16.371,3.2-25.552.033-14.808-3.973-57.862-8.429-67.216m-72.89,54.64a156.665,156.665,0,0,0,11.224-11.6c-.372,4.854-.543,9.424-.542,13.394v1.956c-3.5-1.32-7.127-2.614-10.681-3.754Z"/>
    <path id="패스_21338" data-name="패스 21338" class="cls-3" d="M242.632,63.657s20.3,55.308,7.924,75.514l-3.634-7.882Z"/>
    <path id="패스_21339" data-name="패스 21339" class="cls-11" d="M181.006,108.833s8.947-7.744,11.486-19.019l-.012.016a24.331,24.331,0,0,1-1.5,3.241,53.228,53.228,0,0,1-9.607,11.518l-.006.008s-.327,3.708-.361,4.236"/>
    <path id="패스_21340" data-name="패스 21340" class="cls-11" d="M212.662,135.055c.108.478-.139,7.569-7.769,16Z"/>
    <path id="패스_21341" data-name="패스 21341" class="cls-11" d="M245.172,72.569a368.391,368.391,0,0,1,5.754,52.531,215.852,215.852,0,0,0-5.754-52.531"/>
    <path id="패스_21342" data-name="패스 21342" class="cls-11" d="M211.292,138.7l-7.591-3.349-.775-3.871s-15.867-7.278-22.5-9.452v-.693s15.821,6.09,22.8,9.685l.846,4.031Z"/>
    <path id="패스_21343" data-name="패스 21343" class="cls-11" d="M207.832,145.9l-5.041-.216-2.178,2.759a107.735,107.735,0,0,1-19.726-2.214s.177,2.284.329,3.327c0,0,12.092,1.383,19.4.2l2.525-3.341,4.693-.127Z"/>
    <path id="패스_21344" data-name="패스 21344" class="cls-3" d="M255.891,387.911s-6.289-.22-10.5,3.832h1.48a20.045,20.045,0,0,1,10.165-3.3,1.656,1.656,0,0,0-1.145-.531"/>
    <path id="패스_21345" data-name="패스 21345" class="cls-3" d="M207.091,387.911s-6.289-.22-10.5,3.832h1.481a20.042,20.042,0,0,1,10.165-3.3,1.658,1.658,0,0,0-1.146-.531"/>
    <path id="패스_21346" data-name="패스 21346" class="cls-23" d="M229.209,59.087a7.5,7.5,0,0,0,2.033-6.437c-.28-.133-.546-.259-.8-.376a6.955,6.955,0,0,1-1.762,6.27c-2.96,2.908-8.732,3.065-12.841,1.984-5.309-1.4-8.6-6.551-10.058-9.393-.27.046-.532.1-.8.15,1.441,2.911,4.87,8.456,10.658,9.98a20.044,20.044,0,0,0,5.013.634c3.224,0,6.5-.794,8.552-2.812"/>
    <path id="패스_21347" data-name="패스 21347" class="cls-23" d="M231.114,61.194a8.925,8.925,0,0,0,2.527-7.233c-.276-.168-.546-.327-.813-.477a8.391,8.391,0,0,1-2.249,7.167c-3.653,3.589-10.766,3.789-15.831,2.455-6.328-1.666-10.339-7.667-12.217-11.225-.261.078-.509.16-.754.243,1.887,3.656,6.016,9.939,12.777,11.719a24.461,24.461,0,0,0,6.129.776c3.935,0,7.931-.967,10.431-3.425"/>
    <path id="패스_21348" data-name="패스 21348" class="cls-24" d="M167.144,343.6l6.7-15.777s13.176-2.2,20.447,8.029l-1.18,7.748Z"/>
    <rect id="사각형_2612" data-name="사각형 2612" class="cls-14" width="81.567" height="3.597" transform="translate(149.963 343.601)"/>
    <path id="패스_21349" data-name="패스 21349" class="cls-15" d="M227.6,392.051H153.9L151.626,347.2h78.237Z"/>
    <path id="패스_21350" data-name="패스 21350" class="cls-16" d="M163.272,386.752h-4.079l-1.456-34.263h4.944Z"/>
    <path id="패스_21351" data-name="패스 21351" class="cls-16" d="M177.822,386.752h-4.079l-.441-34.263h4.944Z"/>
    <path id="패스_21352" data-name="패스 21352" class="cls-16" d="M218.22,386.752H222.3l1.456-34.263H218.81Z"/>
    <path id="패스_21353" data-name="패스 21353" class="cls-16" d="M203.67,386.752h4.079l.441-34.263h-4.948Z"/>
    <path id="패스_21354" data-name="패스 21354" class="cls-16" d="M192.372,386.752h-4.079l-.441-34.263H192.8Z"/>
    <path id="패스_21355" data-name="패스 21355" class="cls-16" d="M151.628,347.2h78.237l-.078,1.062H151.706Z"/>
    <rect id="사각형_2613" data-name="사각형 2613" class="cls-25" width="10.024" height="27.663" transform="translate(159.15 315.938)"/>
    <path id="패스_21356" data-name="패스 21356" class="cls-26" d="M159.149,343.6h-4.187V317.335l4.187-1.4Z"/>
    <rect id="사각형_2614" data-name="사각형 2614" class="cls-15" width="2.697" height="25.221" transform="translate(189.398 318.404)"/>
    <path id="패스_21357" data-name="패스 21357" class="cls-6" d="M228.6,51.516a114.891,114.891,0,0,1-2.569-18.461,12.621,12.621,0,0,0,1.241-2.987c1.841-6.407-.279-15.123-.279-15.123L212.345,14.1l-2.335-.134-.094,3.369a2.714,2.714,0,0,0-1.061.631c-1.2,1.107-1.161,3.761.9,5.217l-.337,12.176h.006c-.22,4.952-.615,10.833-1.323,15.475,0,0,4.3,8.546,13.231,8.016,9.321-.553,7.271-7.331,7.271-7.331"/>
    <path id="패스_21358" data-name="패스 21358" class="cls-5" d="M227.856,15.058c.642-1.207,1.484-3.247.938-4.918-1.555-4.759-16.767,1.776-16.767,1.776l-.636,1.606-1.473-.886s-6.528-.594-.327,18.1a41.486,41.486,0,0,0,2.137-6.724c-3.937-.841-4.378-4.661-2.873-6.049a2.657,2.657,0,0,1,3.7.093v0a3.664,3.664,0,0,1,.323.3,7.175,7.175,0,0,1,.434,1.215,20.153,20.153,0,0,1,.775,5.1h.508a24.9,24.9,0,0,0,.129-7.338c.155-.029.31-.057.474-.093,1.142-.246,9.741-2.04,12.039-1.143.112.562.384,2.322.384,2.322a2.5,2.5,0,0,0,.341-3.443.98.98,0,0,0-.106.08"/>
    <path id="패스_21359" data-name="패스 21359" class="cls-8" d="M226.029,33.063a7.3,7.3,0,0,1-8.405,3.1s2.252,9.055,9.614,7.9a85.338,85.338,0,0,1-1.209-11"/>
    <rect id="사각형_2617" data-name="사각형 2617" class="cls-27" width="336.222" height="93.725" transform="translate(398.615 298.376)"/>
    <path id="패스_21360" data-name="패스 21360" class="cls-13" d="M430,173.8H703.452a40,40,0,0,1,40,40V385.46H390V213.8a40,40,0,0,1,40-40"/>
    <path id="패스_21361" data-name="패스 21361" class="cls-28" d="M417.043,225.887A28.658,28.658,0,0,1,445.7,197.229H691.982a28.523,28.523,0,0,1,15.977,4.866,28.534,28.534,0,0,0-18.094-6.438H443.585a28.658,28.658,0,0,0-28.658,28.658V379.9h2.116Z"/>
    <rect id="사각형_2618" data-name="사각형 2618" class="cls-29" width="16.628" height="6.891" transform="translate(656.233 145.872)"/>
    <path id="패스_21362" data-name="패스 21362" class="cls-29" d="M674.6,164.161H654.492l.735-11.4h18.64Z"/>
    <path id="패스_21363" data-name="패스 21363" class="cls-30" d="M656.232,152.763a26.63,26.63,0,0,0,16.629,0Z"/>
    <path id="패스_21364" data-name="패스 21364" class="cls-13" d="M659.62,149.318a.582.582,0,1,1-.582-.582.582.582,0,0,1,.582.582"/>
    <path id="패스_21365" data-name="패스 21365" class="cls-7" d="M661.4,149.318a.582.582,0,1,1-.582-.582.583.583,0,0,1,.582.582"/>
    <rect id="사각형_2619" data-name="사각형 2619" class="cls-7" width="4.061" height="4.567" transform="translate(667.411 145.872)"/>
    <rect id="사각형_2620" data-name="사각형 2620" class="cls-31" width="16.628" height="6.891" transform="translate(634.155 145.872)"/>
    <path id="패스_21366" data-name="패스 21366" class="cls-31" d="M652.524,164.161H632.415l.735-11.4h18.64Z"/>
    <path id="패스_21367" data-name="패스 21367" class="cls-32" d="M634.154,152.763a26.627,26.627,0,0,0,16.628,0Z"/>
    <path id="패스_21368" data-name="패스 21368" class="cls-13" d="M637.545,149.318a.582.582,0,1,1-.582-.582.583.583,0,0,1,.582.582"/>
    <path id="패스_21369" data-name="패스 21369" class="cls-29" d="M639.317,149.318a.582.582,0,1,1-.582-.582.583.583,0,0,1,.582.582"/>
    <rect id="사각형_2621" data-name="사각형 2621" class="cls-29" width="4.061" height="4.567" transform="translate(645.333 145.872)"/>
    <path id="패스_21370" data-name="패스 21370" class="cls-33" d="M683.682,167.392v-3.23H621.241V151H489.173v16.387H396.779V173.8H736.673v-6.405Z"/>
    <rect id="사각형_2622" data-name="사각형 2622" class="cls-28" width="6.819" height="151.613" transform="translate(436.104 227.854)"/>
    <rect id="사각형_2623" data-name="사각형 2623" class="cls-28" width="6.818" height="151.613" transform="translate(468.007 227.854)"/>
    <rect id="사각형_2624" data-name="사각형 2624" class="cls-28" width="6.818" height="151.613" transform="translate(659.424 227.854)"/>
    <rect id="사각형_2625" data-name="사각형 2625" class="cls-28" width="6.819" height="151.613" transform="translate(691.327 227.854)"/>
    <path id="패스_21371" data-name="패스 21371" class="cls-34" d="M98.814,156.188l-11.7.854c.169-.554.262-.854.262-.854l-51.8,3.131c-3.251,11.476,1.124,93.749,1.124,93.749-6.808,27.362.773,122.083.773,122.083H49.846s10.84-66.576,14.923-122.259c.6-6.143,1.7-13.162,3.1-20.549,2.146,12.115,3.709,20.725,3.709,20.725-6.808,27.362,5.2,122.083,5.2,122.083H89.156s6.407-66.576,10.49-122.259c0-43.259-.832-96.7-.832-96.7"/>
    <path id="패스_21372" data-name="패스 21372" class="cls-35" d="M106.482,124.508h-.005a21.715,21.715,0,0,0-.2-3.025c-6.29-33.876-13.39-49.274-17.844-56.066a13.135,13.135,0,0,1,.837,1.781A19.425,19.425,0,0,0,75.127,56.035,38.3,38.3,0,0,0,47.982,58.7a13.28,13.28,0,0,0-3.83,3.013l-.014-.028-.165.227a23.253,23.253,0,0,0-3.008,4.484A129.358,129.358,0,0,0,27.806,93.664c-9.28,27.671-9.959,34.762-1.413,47.3,2.122,3.112,4.389,6.065,6.719,8.842.572,4.879,1.419,7.894,2.417,9.516,1.621,1.778,2.819,4.685,13.075,6.153a137.521,137.521,0,0,0,15.7,11.95l7.125-6.178q-1.629-2.53-3.168-4.893A102.033,102.033,0,0,0,81.706,165.3c-1.264,3.325-2.047,5.416-2.047,5.416l8.863,4.849c18.7-27.165,17.96-51.053,17.96-51.053M92.948,79.765a302.317,302.317,0,0,1,7.111,41.478c-.063.086-.13.184-.2.291a412.175,412.175,0,0,0-6.91-41.769Z"/>
    <path id="패스_21373" data-name="패스 21373" class="cls-36" d="M71.579,253.068s-1.563-8.612-3.709-20.726c-1.4,7.386-2.505,14.406-3.1,20.549-.737,10.048-1.694,20.45-2.767,30.752v.006h7.519c-.175-12.712.356-23.748,2.057-30.581"/>
    <path id="패스_21374" data-name="패스 21374" class="cls-3" d="M87.674,375.151l3.236,8.919s15.539,4.893,15.719,7.981h-26.9a2.548,2.548,0,0,1-1.86-2.251c-.18-1.86-.008-14.649-.008-14.649Z"/>
    <path id="패스_21375" data-name="패스 21375" class="cls-3" d="M48.4,375.151l3.236,8.919s10.945,4.893,11.125,7.981H40.454a2.548,2.548,0,0,1-1.86-2.251c-.18-1.86-.008-14.649-.008-14.649Z"/>
    <path id="패스_21376" data-name="패스 21376" class="cls-3" d="M67.87,232.34s4.829-27.15,9.188-39.728c0,0-6.014,41.716-8.307,44.693Z"/>
    <path id="패스_21377" data-name="패스 21377" class="cls-3" d="M91.059,72.3s7.6,30.7,8.951,50.656c0,0-.233-19.141-8.951-50.656"/>
    <path id="패스_21378" data-name="패스 21378" class="cls-37" d="M50.55,57.486s1.755-2.757,3.771-2.994l-.469,1.848s-2.9,1-3.3,1.146"/>
    <path id="패스_21379" data-name="패스 21379" class="cls-37" d="M75.528,54.492a6.182,6.182,0,0,1,3.617,2.726,20.088,20.088,0,0,0-3.064-1s-.269-.723-.553-1.726"/>
    <path id="패스_21380" data-name="패스 21380" class="cls-3" d="M73.106,38.889s4.948,9.822,6.038,18.326c0,0-.711-1.686-3.617-2.726a56.426,56.426,0,0,1-2.421-15.6"/>
    <path id="패스_21381" data-name="패스 21381" class="cls-6" d="M70.963,171.651s2.2,1.6,3.4,2.364v5.456a11.185,11.185,0,0,1-9.346-2.662Z"/>
    <path id="패스_21382" data-name="패스 21382" class="cls-6" d="M80.757,171.311s-3.619-.989-5.734.068l-.662.93h2.7v7.164s6.239-1.04,9.318-5.088Z"/>
    <path id="패스_21383" data-name="패스 21383" class="cls-37" d="M38.573,124.719s6.636,7.139,22.564,30.853c2.044-44.737,3.878-81.862,3.878-81.862C50.839,68.8,52.172,56.9,52.172,56.9c-5.622,1.608-8.035,4.787-8.035,4.787s7.378,14.06-5.564,63.036"/>
    <path id="패스_21384" data-name="패스 21384" class="cls-37" d="M30.226,146.226c-5.97,66.824-8.587,147-8.587,147,5.618-1.5,34.28-7.355,34.28-7.355.673-25.907,2.507-69.931,4.354-111.182a147.489,147.489,0,0,1-30.047-28.462"/>
    <path id="패스_21385" data-name="패스 21385" class="cls-6" d="M76.2,56.539a59.264,59.264,0,0,1-3.09-17.655,12.123,12.123,0,0,0,1.236-2.944c1.78-6.194-.27-14.621-.27-14.621L59.91,20.5l-2.258-.13-.184,3.2a2.475,2.475,0,0,0-1.282.665c-1.175,1.085-1.122,3.7.95,5.1l-.112,1.943v.071l-.556,9.667a95.431,95.431,0,0,1-2.617,15.319C55.186,69.694,69.806,70.7,75.07,66.821S76.2,56.539,76.2,56.539"/>
    <path id="패스_21386" data-name="패스 21386" class="cls-37" d="M85.873,154.448c5.121-13.191,11.9-30.093,14.186-33.206-.938-8.6-2.1-16.981-3.555-25l-.04-.216q-.288-1.577-.589-3.133c-.031-.16-.062-.318-.094-.477q-.28-1.436-.575-2.856c-.05-.239-.1-.476-.151-.714q-.274-1.3-.56-2.594c-.07-.313-.142-.624-.213-.936-.178-.784-.357-1.566-.542-2.342-.092-.387-.188-.768-.282-1.152-.171-.7-.341-1.4-.518-2.092-.117-.457-.239-.909-.358-1.363-.162-.616-.322-1.233-.488-1.842-.147-.536-.3-1.063-.449-1.594s-.293-1.048-.444-1.566c-.191-.653-.389-1.3-.587-1.94-.119-.389-.234-.784-.356-1.17q-.485-1.546-.993-3.059v-.007a13.29,13.29,0,0,0-.834-1.775l.008.013A18.292,18.292,0,0,0,77.746,56.7s5.748,7.623,0,15.046c0,0,3.844,38.342,8.127,82.706"/>
    <path id="패스_21387" data-name="패스 21387" class="cls-37" d="M102.286,147.888a107.027,107.027,0,0,1-13.762,27.67l-.659-.361c4.46,46.743,8.828,94.608,9.4,108.451,0,0,7.632-52.554,6.617-95.506-.32-13.36-.78-26.92-1.6-40.254"/>
    <path id="패스_21388" data-name="패스 21388" class="cls-38" d="M33.389,150.131C30.722,205.786,27.537,271.517,26.4,292.1l.514-.115c1.14-20.678,4.3-85.875,6.955-141.285l-.481-.567"/>
    <path id="패스_21389" data-name="패스 21389" class="cls-38" d="M44.143,99.224q-.315,1.913-.689,3.949c-.368,8.036-.77,16.79-1.194,26l.48.61c.5-10.968.979-21.3,1.4-30.559"/>
    <path id="패스_21390" data-name="패스 21390" class="cls-38" d="M45.6,67.341c.141-3.085.254-5.571.335-7.36-.193.15-.367.293-.528.431-.058,1.271-.13,2.849-.214,4.7.139.64.278,1.38.407,2.224"/>
    <path id="패스_21391" data-name="패스 21391" class="cls-38" d="M40.917,158.3c-2.421,52.38-5.112,109.832-6.274,132l.513-.11c1.163-22.2,3.835-79.258,6.246-131.407Z"/>
    <path id="패스_21392" data-name="패스 21392" class="cls-38" d="M50.477,140.162c1.614-34.656,2.978-64.235,3.485-75.229q-.255-.486-.464-.962c-.465,10.1-1.849,40.112-3.5,75.527Z"/>
    <path id="패스_21393" data-name="패스 21393" class="cls-38" d="M48.778,165.624c-2.258,48.28-4.7,99.842-5.894,122.941l.513-.107c1.194-23.106,3.621-74.343,5.869-122.413Z"/>
    <path id="패스_21394" data-name="패스 21394" class="cls-38" d="M56.765,172.107c-2.132,44.353-4.409,91.192-5.634,114.746l.513-.106c1.224-23.537,3.488-70.1,5.611-114.27Z"/>
    <path id="패스_21395" data-name="패스 21395" class="cls-38" d="M58.27,151.331c1.722-35.941,3.209-67.276,3.759-78.87-.166-.082-.336-.162-.5-.246-.537,11.336-2.017,42.526-3.737,78.421Z"/>
    <path id="패스_21396" data-name="패스 21396" class="cls-38" d="M80.811,57.951a144,144,0,0,1,15.456,37q-.544-2.925-1.145-5.782a140.988,140.988,0,0,0-13.407-30.7c-.295-.182-.588-.358-.9-.518"/>
    <path id="패스_21397" data-name="패스 21397" class="cls-38" d="M98.6,123.814c.124-.248.245-.485.361-.706-5.129-22.658-9.51-37.689-12.688-47.2-3.725-11.156-6.374-16.607-7.638-18.89-.245-.089-.484-.183-.74-.263,1.09,1.883,3.887,7.308,7.9,19.314,3.205,9.58,7.625,24.78,12.805,47.745"/>
    <path id="패스_21398" data-name="패스 21398" class="cls-38" d="M93.577,135.152C87.747,103.689,82.362,75.668,80.29,64.94a11.31,11.31,0,0,1-.191,1.691c2.28,11.823,7.5,39.062,13.121,69.383Z"/>
    <path id="패스_21399" data-name="패스 21399" class="cls-38" d="M97.953,158.987q-.183.4-.37.8c2.221,12.227,4.4,24.441,6.386,35.892q0-1.539-.018-3.066c-1.882-10.8-3.923-22.216-6-33.626"/>
    <path id="패스_21400" data-name="패스 21400" class="cls-38" d="M89.4,145.459c-4.442-34.276-8.829-64.916-10.39-75.692-.125.24-.26.482-.408.723,1.652,11.417,6.017,41.97,10.413,75.942Z"/>
    <path id="패스_21401" data-name="패스 21401" class="cls-38" d="M92.013,170.167c4.823,39.224,7.692,68.369,8.5,86.215q.168-1.663.338-3.393c-1.189-21.506-4.786-54.025-8.416-83.525-.137.234-.279.468-.422.7"/>
    <path id="패스_21402" data-name="패스 21402" class="cls-3" d="M74.075,21.32c-2.226-4.936-13.3-7.7-17.611-6.569-4.525,1.184-8.247,6.936-7.825,23.516.393,15.414-6.514,37.22-6.514,37.22l18.588-1.015c1.366-9.68-.778-24.866-1.587-34.952,1.335,7.1,2.54,18.356,2.54,18.356,0-8.375-2.7-26.555-2.7-26.555.055-.416.127-.811.214-1.189-4.007-.716-4.477-4.525-2.995-5.892,1.92-1.778,3.893.381,3.893.381a6.809,6.809,0,0,1,.581,2.035,9.933,9.933,0,0,1,7.858-4.038c2.876-.084,3.553-.93,3.553-.93a3.29,3.29,0,0,0,2.413,1.322,1.379,1.379,0,0,0-.408-1.69"/>
    <path id="패스_21403" data-name="패스 21403" class="cls-8" d="M73.106,38.889a7,7,0,0,1-8.091,2.937s2.177,8.754,9.3,7.636a60.416,60.416,0,0,1-1.209-10.573"/>
    <path id="패스_21404" data-name="패스 21404" class="cls-3" d="M99.869,119.558c-6.84,11.1-20.208,51.151-20.208,51.151s16.556-44.233,20.4-49.467c-.063-.564-.129-1.122-.192-1.684"/>
    <path id="패스_21405" data-name="패스 21405" class="cls-3" d="M46.04,82.932v.006c-.574,9.667-2.557,23.209-7.464,41.781,0,0,9.447,10.16,32.858,46.525-12.948-22.609-31.335-47.4-31.335-47.4,4.946-17.859,5.941-40.912,5.941-40.912"/>
    <rect id="사각형_2626" data-name="사각형 2626" class="cls-14" width="81.567" height="3.596" transform="translate(34.926 197.504)"/>
    <rect id="사각형_2627" data-name="사각형 2627" class="cls-15" width="2.697" height="25.221" transform="translate(74.361 172.307)"/>
    <path id="패스_21406" data-name="패스 21406" class="cls-15" d="M112.558,245.954h-73.7L36.588,201.1h78.24Z"/>
    <path id="패스_21407" data-name="패스 21407" class="cls-16" d="M48.235,240.658H44.156L42.7,206.394h4.944Z"/>
    <path id="패스_21408" data-name="패스 21408" class="cls-16" d="M62.785,240.658H58.706l-.441-34.264h4.944Z"/>
    <path id="패스_21409" data-name="패스 21409" class="cls-16" d="M103.183,240.658h4.079l1.454-34.264h-4.944Z"/>
    <path id="패스_21410" data-name="패스 21410" class="cls-16" d="M88.633,240.658h4.079l.441-34.264H88.21Z"/>
    <path id="패스_21411" data-name="패스 21411" class="cls-16" d="M77.334,240.658H73.255l-.441-34.264h4.944Z"/>
    <path id="패스_21412" data-name="패스 21412" class="cls-16" d="M36.591,201.1h78.237l-.078,1.062H36.669Z"/>
    <path id="패스_21413" data-name="패스 21413" class="cls-39" d="M587.742,253.773c.853.048,1.7.119,2.527.231-.832-.112-1.674-.183-2.527-.231"/>
    <path id="패스_21414" data-name="패스 21414" class="cls-39" d="M566.989,259.634A33.065,33.065,0,0,0,515,286.767a29.308,29.308,0,0,0,2.181,10.87L566.635,259.4c.116.082.239.15.354.232"/>
    <path id="패스_21415" data-name="패스 21415" class="cls-39" d="M566.989,266.861l4.883-3.079,15.87-10.009c-.616-.033-1.225-.093-1.848-.093a33.06,33.06,0,0,0-5.981.567l-9.24,8.349-3.684,3.328L555.5,273.687l-37.658,25.448a39.789,39.789,0,0,0,1.9,3.726L554.47,276.4Z"/>
    <path id="패스_21416" data-name="패스 21416" class="cls-39" d="M566.988,273.653l8.453-5.489,20.092-13.047A32.761,32.761,0,0,0,590.268,254l-15.853,12.737-7.427,5.965-13.838,9.319-32.677,22.008c.726,1.16,1.5,2.3,2.338,3.423l30.083-23.016Z"/>
    <path id="패스_21417" data-name="패스 21417" class="cls-39" d="M553.1,291.128l13.891-10.688,11.21-7.389,23.389-15.414a32.917,32.917,0,0,0-6.055-2.519c.588.18,1.158.4,1.735.612l-19.9,15.626L566.993,279.5l-14.106,9.452-29.234,19.591c.849,1.083,1.748,2.144,2.68,3.184.02-.013.027-.025.047-.039Z"/>
    <path id="패스_21418" data-name="패스 21418" class="cls-39" d="M601.588,257.636c.455.248.888.533,1.33.8l-23.363,18.109-12.568,9.741-13.134,8.746-26.588,17.732c.956,1.02,1.95,2.012,2.967,2.986l.829-.654,23.359-18.115,12.567-9.747,13.136-8.74,26.4-17.569c.368.3.722.6,1.079.915l-26.728,20.549-13.89,10.682-11.214,7.4-23.383,15.424-1.184.786c1.037.964,2.1,1.9,3.178,2.812l2.328-1.691,19.9-15.632,10.378-8.15,14.106-9.448,29.5-19.762c.3.338.618.663.9,1.015l-30.417,23.26-14.092,10.781-8.456,5.5-20.093,13.05-2.965,1.992q1.784,1.468,3.6,2.844l4.626-3.723,15.856-12.742,7.429-5.974,13.839-9.314,33.085-22.269c.241.38.479.762.7,1.153l-35.1,26.728-12.525,9.537-4.894,3.091-15.877,10.018L540,323.942c1.66,1.23,3.319,2.4,4.961,3.5L556.3,317.274l7-6.344,3.68-3.337,11.5-7.765,38-25.664c.208.5.382,1.024.566,1.542l-49.712,38.418L547.45,329.081a153.784,153.784,0,0,0,19.538,10.683s51.991-22.545,51.991-52.994a33.078,33.078,0,0,0-17.391-29.134"/>
    <path id="패스_21419" data-name="패스 21419" class="cls-39" d="M516.934,297.827c.183.516.354,1.037.562,1.54l.345-.231c-.225-.5-.459-.995-.661-1.5Z"/>
    <path id="패스_21420" data-name="패스 21420" class="cls-39" d="M573.036,256.3c.028-.012.058-.027.087-.038-.033.011-.059.026-.087.038"/>
    <path id="패스_21421" data-name="패스 21421" class="cls-13" d="M558.533,305.362l8.457-5.5,14.1-10.779,30.417-23.26c-.287-.353-.6-.677-.906-1.016l-29.511,19.764-14.1,9.448-10.379,8.152-19.9,15.63-2.328,1.692q.545.462,1.1.916l2.965-1.993Z"/>
    <path id="패스_21422" data-name="패스 21422" class="cls-13" d="M555.775,300.467l11.216-7.4,13.889-10.681,26.726-20.549c-.354-.31-.711-.62-1.079-.915l-26.4,17.569-13.136,8.74-12.569,9.747-23.358,18.115-.83.654c.325.312.644.625.974.93l1.182-.786Z"/>
    <path id="패스_21423" data-name="패스 21423" class="cls-13" d="M566.988,286.287l12.567-9.741,23.364-18.11c-.443-.266-.875-.551-1.33-.8L578.2,273.052l-11.21,7.388L553.1,291.129l-26.723,20.564c-.019.013-.026.024-.045.037.312.347.618.695.935,1.036l26.589-17.732Z"/>
    <path id="패스_21424" data-name="패스 21424" class="cls-13" d="M617.046,275.71c-.185-.519-.357-1.037-.565-1.542l-38,25.664-11.5,7.765-3.68,3.337-7,6.343-11.341,10.171q1.254.842,2.486,1.635l19.888-14.957Z"/>
    <path id="패스_21425" data-name="패스 21425" class="cls-13" d="M566.989,279.5l10.374-8.147,19.9-15.626c-.576-.21-1.145-.432-1.735-.612l-20.086,13.048-8.453,5.49-14.1,10.786-30.083,23.016c.272.366.554.727.837,1.088l29.235-19.591Z"/>
    <path id="패스_21426" data-name="패스 21426" class="cls-13" d="M566.989,272.707l7.427-5.966L590.269,254c-.831-.111-1.674-.185-2.526-.232l-15.87,10.009-4.883,3.079-12.519,9.54-34.725,26.462c.229.4.484.782.729,1.171l32.677-22.007Z"/>
    <path id="패스_21427" data-name="패스 21427" class="cls-13" d="M566.991,265.925l3.684-3.328,9.24-8.351a33.107,33.107,0,0,0-6.787,2.018c-.031.011-.06.026-.088.038-.939.4-1.848.846-2.741,1.324-.21.114-.42.225-.627.342-.918.518-1.819,1.064-2.679,1.665-.114-.081-.237-.149-.355-.229l-49.454,38.231c.2.506.437,1,.661,1.5L555.5,273.686Z"/>
    <path id="패스_21428" data-name="패스 21428" class="cls-13" d="M562.095,309.738l4.894-3.09,12.525-9.536,35.1-26.728c-.223-.391-.461-.773-.7-1.154L580.828,291.5l-13.837,9.313-7.43,5.975L543.7,319.529l-4.626,3.723c.309.234.617.462.927.692l6.213-4.186Z"/>
  </g>
</svg>
