<svg xmlns="http://www.w3.org/2000/svg" width="21.001" height="21.997" viewBox="0 0 21.001 21.997">
  <defs>
    <style>
      .cls-1 {
        fill: #fff;
      }
    </style>
  </defs>
  <g id="그룹_14593" data-name="그룹 14593" transform="translate(11007 4997)">
    <path id="Path" class="cls-1" d="M9,18a9,9,0,1,1,9-9A9.01,9.01,0,0,1,9,18ZM9,2a7,7,0,1,0,7,7A7.008,7.008,0,0,0,9,2Z" transform="translate(-11007 -4997)"/>
    <path id="Path-2" data-name="Path" class="cls-1" d="M.36.232A1,1,0,0,1,1.768.36l5,6A1,1,0,0,1,5.233,7.637l-5-6A1,1,0,0,1,.36.232Z" transform="translate(-10993 -4983)"/>
  </g>
</svg>
