<svg xmlns="http://www.w3.org/2000/svg" xmlns:xlink="http://www.w3.org/1999/xlink" width="378.96" height="356.585" viewBox="0 0 378.96 356.585">
  <defs>
    <style>
      .cls-1 {
        fill: none;
      }

      .cls-2 {
        clip-path: url(#clip-path);
      }

      .cls-3 {
        fill: #779f7f;
      }

      .cls-4 {
        fill: #2e503a;
      }

      .cls-5 {
        fill: #2b2622;
      }

      .cls-6 {
        fill: #c8ced3;
      }

      .cls-7 {
        fill: #e9bfb1;
      }

      .cls-8 {
        fill: #cf9083;
      }

      .cls-9 {
        fill: #bb783b;
      }

      .cls-10 {
        fill: #d9d8d6;
      }

      .cls-11 {
        fill: #97a3ad;
      }

      .cls-12 {
        fill: #c4c2c0;
      }

      .cls-13 {
        fill: #fff;
      }

      .cls-14 {
        fill: #d6c288;
      }

      .cls-15 {
        fill: #c0aa6a;
      }

      .cls-16 {
        fill: #121212;
      }

      .cls-17 {
        fill: #9c5b1c;
      }

      .cls-18 {
        fill: #5b7429;
      }

      .cls-19 {
        fill: #d38d45;
      }

      .cls-20 {
        fill: #ecb05e;
      }

      .cls-21 {
        fill: #040504;
      }

      .cls-22 {
        fill: #96531b;
      }

      .cls-23 {
        fill: #71441c;
      }

      .cls-24 {
        fill: #ca7119;
      }

      .cls-25 {
        fill: #d63f42;
      }

      .cls-26 {
        fill: #536325;
      }

      .cls-27 {
        fill: #70882b;
      }

      .cls-28 {
        fill: #a14731;
      }

      .cls-29 {
        fill: #cb481a;
      }

      .cls-30 {
        fill: #89392a;
      }

      .cls-31 {
        fill: #f1f5f7;
      }

      .cls-32 {
        fill: #5cb687;
      }

      .cls-33 {
        fill: #6b9b81;
      }

      .cls-34 {
        fill: #925035;
      }

      .cls-35 {
        fill: #ac633e;
      }

      .cls-36 {
        fill: #5e3c25;
      }

      .cls-37 {
        fill: #96a3ac;
      }

      .cls-38 {
        fill: #d63919;
      }
    </style>
    <clipPath id="clip-path">
      <rect id="사각형_2696" data-name="사각형 2696" class="cls-1" width="378.96" height="356.585"/>
    </clipPath>
  </defs>
  <g id="그룹_14822" data-name="그룹 14822" class="cls-2">
    <path id="패스_21520" data-name="패스 21520" class="cls-3" d="M290.423,119.377c-8.278-13.683-19.862-25.364-23.449-28.837q-.48-.5-.969-.924l-.136-.126V89.5a11.908,11.908,0,0,0-7.228-2.93s-13.405-2.47-21.85,1.817a9.708,9.708,0,0,0-3.017,2.542s-19.587,21.825-26.141,40.589c-2.316,6.629.166,12.319,3.962,16.407a84.93,84.93,0,0,0,11.767,10.184c.421,6.175,1.252,9.7,2.284,11.372,1.843,2.021,3,5.855,24.957,5.688s25.1-6.089,25.1-6.089c2.319-3.3,2.472-12.756,2.492-19.909v-.009c5.728-2.769,11.073-5.935,13.7-9.045,6.277-7.426,2.407-14.33-1.472-20.741M223.666,131.12c-.268,3.5-.43,6.785-.5,9.655-.012.464-.022.915-.032,1.367a39.433,39.433,0,0,0-4.566-3.56s2.269-3.085,5.1-7.463Zm53.693,5.374c-.338-3.326-.762-6.93-1.246-10.587a48.036,48.036,0,0,0,7.8,6.784c-1.889.966-4.142,2.292-6.549,3.8Z" transform="translate(-22.092 -9.175)"/>
    <path id="패스_21521" data-name="패스 21521" class="cls-4" d="M226.883,177.266c-.472,26.4.757,77.536.757,77.536-3.456,27.163.845,98.392.845,98.392h9.973s9.983-69.7,10.235-98.535c1.13-14.478,13.595-73.457,13.595-73.457Z" transform="translate(-24.182 -18.942)"/>
    <path id="패스_21522" data-name="패스 21522" class="cls-4" d="M280.621,177.266c1.622,20.415,2.421,77.536,2.421,77.536,3.79,28.144,1.054,98.392,1.054,98.392h-9.972s-11.883-69.7-12.134-98.535C260.86,240.182,245.3,181.2,245.3,181.2Z" transform="translate(-26.212 -18.942)"/>
    <path id="패스_21523" data-name="패스 21523" class="cls-5" d="M251.825,215.454s5.1,2.187,8.631,0" transform="translate(-26.91 -23.023)"/>
    <path id="패스_21524" data-name="패스 21524" class="cls-4" d="M257.855,157.71l-2.982-4.9s9-6.769,17.908-12.737c-3.426-19.861-5.976-32.647-5.976-32.647h0s-.767-13.371-2.353-19.365a11.442,11.442,0,0,0-2.178-.872s.788,12.4.542,20.237H241c-.246-7.834.542-20.407.542-20.407a13.03,13.03,0,0,0-2.177.6c-1.587,5.994-2.354,19.8-2.354,19.8s-3.237,16.222-7.313,40.508c7.19,7.494,13.921,16.1,13.921,16.1l-4.136,4.084s-5.395-2.94-11.885-7.4c-5.943,37.048-12.734,86.952-14.012,128.052h76.64c-1.391-44.721-9.308-99.866-15.559-137.528-8.621,3.8-16.815,6.463-16.815,6.463" transform="translate(-22.824 -9.299)"/>
    <rect id="사각형_2635" data-name="사각형 2635" class="cls-6" width="2.109" height="0.638" transform="translate(216.122 100.37)"/>
    <rect id="사각형_2636" data-name="사각형 2636" class="cls-6" width="2.109" height="0.638" transform="translate(239.76 100.37)"/>
    <path id="패스_21525" data-name="패스 21525" class="cls-5" d="M279.184,123.854a27.469,27.469,0,0,0,5.181,10.325s-.358-3.087-.534-4.385c0,0-3.232-3.841-4.647-5.939" transform="translate(-29.833 -13.235)"/>
    <path id="패스_21526" data-name="패스 21526" class="cls-5" d="M231.008,126.542a64.646,64.646,0,0,1-5.333,8.884l-.377,5.621s3-2.871,5.71-14.506" transform="translate(-24.075 -13.522)"/>
    <path id="패스_21527" data-name="패스 21527" class="cls-7" d="M261.4,71.766l.108-5.583a20.253,20.253,0,0,0,.331-3.708c3-.822,3.187-3.795,1.966-4.813a1.864,1.864,0,0,0-2.126-.294l.044-2.269-13.255-.256-.048,2.495a1.906,1.906,0,0,0-2.372.16c-1.232,1.027-1.031,4.041,2.044,4.833,0,0-1.078,14.138-1.684,17.655-.214,1.152-.445,2.309-.693,3.448.095,3.587,2.469,6.014,9.584,5.763,8.3-.295,8.335-5.743,8.335-5.743a44.234,44.234,0,0,1-2.274-11.688Zm-13.3-9.433v.021l-.007-.022Z" transform="translate(-26.217 -5.86)"/>
    <path id="패스_21528" data-name="패스 21528" class="cls-8" d="M262.426,69.849a7.78,7.78,0,0,1-8.149,3.762s3.1,6.615,8.837,5.713a30.586,30.586,0,0,1-.688-9.474" transform="translate(-27.172 -7.464)"/>
    <path id="패스_21529" data-name="패스 21529" class="cls-5" d="M247.328,63.006a3.561,3.561,0,0,1-2.48-1.877c.012.494.04,1.014.092,1.565.6,6.473-9.131,14.609-6.422,24.151l.018,0a8.23,8.23,0,0,1,1.6-1.1,20.956,20.956,0,0,1,4.813-1.68c.245-1.125.472-2.267.684-3.406a14.88,14.88,0,0,0,2.788-5.783c1.065-4.73-.924-11.291-1.093-11.832a.236.236,0,0,1,0-.036" transform="translate(-25.437 -6.532)"/>
    <path id="패스_21530" data-name="패스 21530" class="cls-5" d="M266.123,62.655c.063-.682.093-1.316.1-1.909a3.41,3.41,0,0,1-2.577,2.361v.023c-.147.473-2.167,7.087-1.1,11.843a14.128,14.128,0,0,0,1.476,3.8,36.834,36.834,0,0,0,1.368,5.167,12.357,12.357,0,0,1,6.092,2.613l.673.607c2.708-9.541-6.638-18.035-6.035-24.509" transform="translate(-28.022 -6.491)"/>
    <path id="패스_21531" data-name="패스 21531" class="cls-5" d="M261.327,55.3l.054,1.329a2.7,2.7,0,0,1,.35-.2,1.865,1.865,0,0,1,2.126.293,1.885,1.885,0,0,1,.547.8c-.32-3.788-1.776-5.236-1.776-5.236l-.017.029.007-.029-1.451-.981a21.144,21.144,0,0,0-3.386-.6,3.337,3.337,0,1,0-6.074.068,22.672,22.672,0,0,0-2.749.535l-1.451.981s-1.293,1.287-1.709,4.609a1.74,1.74,0,0,1,.3-.335,1.983,1.983,0,0,1,2.648.027L248.8,55.3S257.253,57.064,261.327,55.3Z" transform="translate(-26.265 -4.917)"/>
    <path id="패스_21532" data-name="패스 21532" class="cls-5" d="M263.151,165.16s18.1-5.362,21.07-7.059v-1.356a194.559,194.559,0,0,1-21.07,8.415" transform="translate(-28.12 -16.749)"/>
    <path id="패스_21533" data-name="패스 21533" class="cls-5" d="M240.743,176.642a127.907,127.907,0,0,1-15.394-9.892s.114,1.535.162,2.035a115.732,115.732,0,0,0,15.233,7.857" transform="translate(-24.08 -17.819)"/>
    <path id="패스_21534" data-name="패스 21534" class="cls-5" d="M286.45,374.242l2.818,7.949s7.323,4.359,7.485,7.112h-16.5A2.271,2.271,0,0,1,278.6,387.3c-.161-1.658-.281-13.056-.281-13.056Z" transform="translate(-29.74 -39.991)"/>
    <path id="패스_21535" data-name="패스 21535" class="cls-5" d="M228.655,374.242l-2.818,7.949s-7.323,4.359-7.485,7.112h16.5a2.271,2.271,0,0,0,1.658-2.005c.161-1.658.281-13.056.281-13.056Z" transform="translate(-23.333 -39.991)"/>
    <path id="패스_21536" data-name="패스 21536" class="cls-9" d="M26.759,216.259l8.013-4.859H354.553v4.859Z" transform="translate(-2.859 -22.59)"/>
    <path id="패스_21537" data-name="패스 21537" class="cls-10" d="M331.454,181.768l-1.653-3.509v-1.838H316.262v1.838l-1.653,3.509-.663,27.353h18.171Z" transform="translate(-33.548 -18.852)"/>
    <path id="패스_21538" data-name="패스 21538" class="cls-5" d="M317.2,174.658h12.138a.98.98,0,0,1,.98.98v.6h-14.1v-.6a.979.979,0,0,1,.979-.98" transform="translate(-33.791 -18.664)"/>
    <path id="패스_21539" data-name="패스 21539" class="cls-11" d="M330.108,178.491h-2.787s-4.741,21.2-4.482,30.85h10.225l-.662-27.353-1.653-3.509Z" transform="translate(-34.497 -19.072)"/>
    <path id="패스_21540" data-name="패스 21540" class="cls-12" d="M316.442,178.479h9.5l-.31.581-9.992,1.116Z" transform="translate(-33.729 -19.072)"/>
    <rect id="사각형_2637" data-name="사각형 2637" class="cls-12" width="13.538" height="0.147" transform="translate(282.713 157.805)"/>
    <rect id="사각형_2638" data-name="사각형 2638" class="cls-12" width="13.538" height="0.147" transform="translate(282.713 158.369)"/>
    <path id="패스_21541" data-name="패스 21541" class="cls-13" d="M330.966,187.72h-5a2.815,2.815,0,0,0-5.63-.005v.005h-5l-.25,11.318h16.128Z" transform="translate(-33.669 -19.758)"/>
    <rect id="사각형_2639" data-name="사각형 2639" class="cls-5" width="11.878" height="5.101" transform="translate(283.543 169.793)"/>
    <rect id="사각형_2640" data-name="사각형 2640" class="cls-5" width="11.878" height="0.183" transform="translate(283.543 176.245)"/>
    <rect id="사각형_2641" data-name="사각형 2641" class="cls-5" width="11.878" height="0.182" transform="translate(283.543 177.441)"/>
    <path id="패스_21542" data-name="패스 21542" class="cls-10" d="M354.956,181.768l-1.654-3.509v-1.838H339.765v1.838l-1.653,3.509-.663,27.353H355.62Z" transform="translate(-36.059 -18.852)"/>
    <path id="패스_21543" data-name="패스 21543" class="cls-5" d="M340.708,174.658h12.138a.98.98,0,0,1,.98.98v.6h-14.1v-.6a.98.98,0,0,1,.98-.98" transform="translate(-36.303 -18.664)"/>
    <path id="패스_21544" data-name="패스 21544" class="cls-11" d="M353.611,178.491h-2.788s-4.74,21.2-4.482,30.85h10.226l-.663-27.353-1.653-3.509Z" transform="translate(-37.008 -19.072)"/>
    <path id="패스_21545" data-name="패스 21545" class="cls-12" d="M339.945,178.479h9.5l-.31.581-9.992,1.116Z" transform="translate(-36.24 -19.072)"/>
    <rect id="사각형_2642" data-name="사각형 2642" class="cls-12" width="13.538" height="0.147" transform="translate(303.705 157.805)"/>
    <rect id="사각형_2643" data-name="사각형 2643" class="cls-12" width="13.538" height="0.147" transform="translate(303.705 158.369)"/>
    <path id="패스_21546" data-name="패스 21546" class="cls-13" d="M354.469,187.72h-5a2.815,2.815,0,1,0-5.629-.005v.005h-5l-.251,11.318H354.72Z" transform="translate(-36.181 -19.758)"/>
    <rect id="사각형_2644" data-name="사각형 2644" class="cls-5" width="11.878" height="5.101" transform="translate(304.535 169.793)"/>
    <rect id="사각형_2645" data-name="사각형 2645" class="cls-5" width="11.878" height="0.183" transform="translate(304.535 176.245)"/>
    <rect id="사각형_2646" data-name="사각형 2646" class="cls-5" width="11.878" height="0.182" transform="translate(304.535 177.441)"/>
    <path id="패스_21547" data-name="패스 21547" class="cls-10" d="M378.459,181.768l-1.654-3.509v-1.838H363.268v1.838l-1.654,3.509-.662,27.353h18.171Z" transform="translate(-38.571 -18.852)"/>
    <path id="패스_21548" data-name="패스 21548" class="cls-5" d="M364.211,174.658h12.138a.98.98,0,0,1,.98.98v.6h-14.1v-.6a.98.98,0,0,1,.98-.98" transform="translate(-38.814 -18.664)"/>
    <path id="패스_21549" data-name="패스 21549" class="cls-11" d="M377.114,178.491h-2.787s-4.741,21.2-4.483,30.85H380.07l-.662-27.353-1.654-3.509Z" transform="translate(-39.52 -19.072)"/>
    <path id="패스_21550" data-name="패스 21550" class="cls-12" d="M363.448,178.479h9.5l-.31.581-9.992,1.116Z" transform="translate(-38.752 -19.072)"/>
    <rect id="사각형_2647" data-name="사각형 2647" class="cls-12" width="13.538" height="0.147" transform="translate(324.696 157.805)"/>
    <rect id="사각형_2648" data-name="사각형 2648" class="cls-12" width="13.538" height="0.147" transform="translate(324.696 158.369)"/>
    <path id="패스_21551" data-name="패스 21551" class="cls-13" d="M377.971,187.72h-5a2.815,2.815,0,0,0-5.63-.005v.005h-5l-.25,11.318h16.128Z" transform="translate(-38.693 -19.758)"/>
    <rect id="사각형_2649" data-name="사각형 2649" class="cls-5" width="11.878" height="5.101" transform="translate(325.526 169.793)"/>
    <rect id="사각형_2650" data-name="사각형 2650" class="cls-5" width="11.878" height="0.183" transform="translate(325.526 176.245)"/>
    <rect id="사각형_2651" data-name="사각형 2651" class="cls-5" width="11.878" height="0.182" transform="translate(325.526 177.441)"/>
    <rect id="사각형_2652" data-name="사각형 2652" class="cls-14" width="63.57" height="21.393" transform="translate(204.574 170.047)"/>
    <path id="패스_21552" data-name="패스 21552" class="cls-15" d="M229.05,190.392h63.57v4.872L229.05,192Z" transform="translate(-24.476 -20.345)"/>
    <rect id="사각형_2653" data-name="사각형 2653" class="cls-14" width="64.964" height="3.299" transform="translate(203.878 166.749)"/>
    <path id="패스_21553" data-name="패스 21553" class="cls-5" d="M363.5,77.4H349.725l.405,4.836h1.485s3.105,15.124,5.941,20.391h11.884c2.835-5.267,5.942-20.391,5.942-20.391h1.485l.4-4.836Z" transform="translate(-37.371 -8.271)"/>
    <path id="패스_21554" data-name="패스 21554" class="cls-16" d="M351.842,82.813h23.766s-.731,3.358-.941,4.252c0,0-15.154-.68-22.367-2.127,0,0-.334-1.419-.458-2.126" transform="translate(-37.597 -8.849)"/>
    <path id="패스_21555" data-name="패스 21555" class="cls-5" d="M328.722,85.992H314.948l.405,4.837h1.485s3.105,15.124,5.942,20.39h11.883c2.835-5.266,5.942-20.39,5.942-20.39h1.485l.4-4.837Z" transform="translate(-33.655 -9.189)"/>
    <path id="패스_21556" data-name="패스 21556" class="cls-16" d="M317.065,91.407h23.767s-.732,3.358-.942,4.252c0,0-15.154-.68-22.367-2.127,0,0-.333-1.419-.458-2.126" transform="translate(-33.881 -9.768)"/>
    <path id="패스_21557" data-name="패스 21557" class="cls-5" d="M328.722,95.14H314.948l.405,4.836h1.485s3.105,15.125,5.942,20.391h11.883c2.835-5.266,5.942-20.391,5.942-20.391h1.485l.4-4.836Z" transform="translate(-33.655 -10.166)"/>
    <path id="패스_21558" data-name="패스 21558" class="cls-16" d="M317.065,100.555h23.767s-.732,3.358-.942,4.252c0,0-15.154-.68-22.367-2.127,0,0-.333-1.419-.458-2.126" transform="translate(-33.881 -10.745)"/>
    <rect id="사각형_2654" data-name="사각형 2654" class="cls-17" width="14.428" height="1.704" transform="translate(287.853 110.201)"/>
    <path id="패스_21559" data-name="패스 21559" class="cls-5" d="M328.722,106.524H314.948l.405,4.836h1.485s3.105,15.124,5.942,20.391h11.883c2.835-5.267,5.942-20.391,5.942-20.391h1.485l.4-4.836Z" transform="translate(-33.655 -11.383)"/>
    <path id="패스_21560" data-name="패스 21560" class="cls-16" d="M317.065,111.939h23.767s-.732,3.358-.942,4.252c0,0-15.154-.68-22.367-2.127,0,0-.333-1.419-.458-2.126" transform="translate(-33.881 -11.962)"/>
    <rect id="사각형_2655" data-name="사각형 2655" class="cls-17" width="14.428" height="1.704" transform="translate(287.853 120.368)"/>
    <path id="패스_21561" data-name="패스 21561" class="cls-5" d="M328.722,113.8H314.948l.405,4.836h1.485s3.105,15.124,5.942,20.391h11.883c2.835-5.267,5.942-20.391,5.942-20.391h1.485l.4-4.836Z" transform="translate(-33.655 -12.161)"/>
    <path id="패스_21562" data-name="패스 21562" class="cls-16" d="M317.065,119.221h23.767s-.732,3.358-.942,4.252c0,0-15.154-.68-22.367-2.127,0,0-.333-1.42-.458-2.126" transform="translate(-33.881 -12.74)"/>
    <rect id="사각형_2656" data-name="사각형 2656" class="cls-17" width="14.428" height="1.705" transform="translate(287.853 126.872)"/>
    <path id="패스_21563" data-name="패스 21563" class="cls-5" d="M363.5,84.679H349.725l.4,4.837h1.485s3.105,15.124,5.942,20.39h11.884c2.835-5.266,5.942-20.39,5.942-20.39h1.485l.4-4.837Z" transform="translate(-37.371 -9.049)"/>
    <path id="패스_21564" data-name="패스 21564" class="cls-16" d="M351.842,90.1h23.766s-.731,3.358-.941,4.252c0,0-15.154-.68-22.367-2.127,0,0-.334-1.42-.458-2.126" transform="translate(-37.597 -9.627)"/>
    <path id="패스_21565" data-name="패스 21565" class="cls-5" d="M363.5,91.96H349.725l.405,4.837h1.485s3.105,15.124,5.941,20.39h11.884c2.835-5.266,5.942-20.39,5.942-20.39h1.485l.4-4.837Z" transform="translate(-37.371 -9.827)"/>
    <path id="패스_21566" data-name="패스 21566" class="cls-16" d="M351.842,97.376h23.766s-.731,3.358-.941,4.252c0,0-15.154-.68-22.367-2.127,0,0-.334-1.419-.458-2.126" transform="translate(-37.597 -10.405)"/>
    <path id="패스_21567" data-name="패스 21567" class="cls-5" d="M363.5,99.242H349.725l.405,4.837h1.485s3.105,15.124,5.941,20.39h11.884c2.835-5.267,5.942-20.39,5.942-20.39h1.485l.4-4.837Z" transform="translate(-37.371 -10.605)"/>
    <path id="패스_21568" data-name="패스 21568" class="cls-16" d="M351.842,104.657h23.766s-.731,3.358-.941,4.252c0,0-15.154-.68-22.367-2.127,0,0-.334-1.419-.458-2.126" transform="translate(-37.597 -11.183)"/>
    <rect id="사각형_2657" data-name="사각형 2657" class="cls-17" width="14.428" height="1.704" transform="translate(318.914 113.865)"/>
    <path id="패스_21569" data-name="패스 21569" class="cls-5" d="M363.5,106.524H349.725l.405,4.836h1.485s3.105,15.124,5.941,20.391h11.884c2.835-5.267,5.942-20.391,5.942-20.391h1.485l.4-4.836Z" transform="translate(-37.371 -11.383)"/>
    <path id="패스_21570" data-name="패스 21570" class="cls-16" d="M351.842,111.939h23.766s-.731,3.358-.941,4.252c0,0-15.154-.68-22.367-2.127,0,0-.334-1.419-.458-2.126" transform="translate(-37.597 -11.962)"/>
    <rect id="사각형_2658" data-name="사각형 2658" class="cls-17" width="14.428" height="1.704" transform="translate(318.914 120.368)"/>
    <path id="패스_21571" data-name="패스 21571" class="cls-5" d="M363.5,113.8H349.725l.4,4.837h1.485s3.105,15.124,5.942,20.391h11.884c2.835-5.267,5.942-20.391,5.942-20.391h1.485l.4-4.836Z" transform="translate(-37.371 -12.161)"/>
    <path id="패스_21572" data-name="패스 21572" class="cls-16" d="M351.842,119.221h23.766s-.731,3.358-.941,4.252c0,0-15.154-.68-22.367-2.127,0,0-.334-1.42-.458-2.126" transform="translate(-37.597 -12.74)"/>
    <rect id="사각형_2659" data-name="사각형 2659" class="cls-17" width="14.428" height="1.705" transform="translate(318.914 126.872)"/>
    <path id="패스_21573" data-name="패스 21573" class="cls-18" d="M37.232,74.084A2.838,2.838,0,0,1,38.377,69.5a11.246,11.246,0,0,1-3.339-6.437,4.593,4.593,0,0,1,1.023-4.108,3.614,3.614,0,0,1,4.053-.281A7.03,7.03,0,0,1,42.906,61.9a13.932,13.932,0,0,1-.387,12.762" transform="translate(-3.735 -6.219)"/>
    <path id="패스_21574" data-name="패스 21574" class="cls-18" d="M51.631,74.606a15.269,15.269,0,0,1,.061-11.948A6.761,6.761,0,0,1,54.009,59.6a3.272,3.272,0,0,1,3.652-.076,3.378,3.378,0,0,1,.612,4.2,8.166,8.166,0,0,1-3.406,3.024,3.74,3.74,0,0,1,3.081,3.56,5.24,5.24,0,0,1-2.328,4.329" transform="translate(-5.39 -6.305)"/>
    <rect id="사각형_2660" data-name="사각형 2660" class="cls-19" width="63.507" height="34.223" transform="translate(278.668 112.135)"/>
    <rect id="사각형_2661" data-name="사각형 2661" class="cls-19" width="341.491" height="148.206" transform="translate(17.002 193.664)"/>
    <rect id="사각형_2662" data-name="사각형 2662" class="cls-20" width="341.491" height="1.029" transform="translate(17.002 204.095)"/>
    <rect id="사각형_2663" data-name="사각형 2663" class="cls-20" width="341.491" height="1.029" transform="translate(17.002 226.396)"/>
    <rect id="사각형_2664" data-name="사각형 2664" class="cls-20" width="341.491" height="1.028" transform="translate(17.002 248.699)"/>
    <rect id="사각형_2665" data-name="사각형 2665" class="cls-20" width="341.491" height="1.029" transform="translate(17.002 271.001)"/>
    <rect id="사각형_2666" data-name="사각형 2666" class="cls-20" width="341.491" height="1.028" transform="translate(17.002 293.303)"/>
    <rect id="사각형_2667" data-name="사각형 2667" class="cls-20" width="341.491" height="1.029" transform="translate(17.002 315.605)"/>
    <rect id="사각형_2668" data-name="사각형 2668" class="cls-20" width="341.491" height="1.028" transform="translate(17.002 337.908)"/>
    <rect id="사각형_2669" data-name="사각형 2669" class="cls-20" width="65.524" height="13.205" transform="translate(277.66 131.537)"/>
    <rect id="사각형_2670" data-name="사각형 2670" class="cls-20" width="65.524" height="13.205" transform="translate(277.66 113.751)"/>
    <rect id="사각형_2671" data-name="사각형 2671" class="cls-19" width="6.799" height="62.127" transform="translate(270.861 131.537)"/>
    <rect id="사각형_2672" data-name="사각형 2672" class="cls-19" width="6.799" height="62.127" transform="translate(343.17 131.537)"/>
    <path id="패스_21575" data-name="패스 21575" class="cls-19" d="M19.036,382.772l3.4,9.419H29.5l3.139-9.419Z" transform="translate(-2.034 -40.902)"/>
    <path id="패스_21576" data-name="패스 21576" class="cls-19" d="M399.757,382.772l-3.4,9.419h-7.062l-3.139-9.419Z" transform="translate(-41.264 -40.902)"/>
    <path id="패스_21577" data-name="패스 21577" class="cls-20" d="M382.719,294.369H187.136l4.4-7.091H378.317Z" transform="translate(-19.997 -30.698)"/>
    <rect id="사각형_2673" data-name="사각형 2673" class="cls-17" width="195.584" height="4.286" transform="translate(167.139 263.672)"/>
    <path id="패스_21578" data-name="패스 21578" class="cls-9" d="M187.136,300.017s100.1,22.125,190.979,0Z" transform="translate(-19.997 -32.059)"/>
    <path id="패스_21579" data-name="패스 21579" class="cls-9" d="M19.036,382.772l.513,1.42,12.1,1.553.99-2.973Z" transform="translate(-2.034 -40.902)"/>
    <path id="패스_21580" data-name="패스 21580" class="cls-9" d="M399.757,382.772l-.513,1.42-12.1,1.553-.991-2.973Z" transform="translate(-41.264 -40.902)"/>
    <rect id="사각형_2674" data-name="사각형 2674" class="cls-21" width="156.938" height="0.589" transform="translate(0 350.994)"/>
    <rect id="사각형_2675" data-name="사각형 2675" class="cls-21" width="217.74" height="0.589" transform="translate(161.221 350.994)"/>
    <rect id="사각형_2676" data-name="사각형 2676" class="cls-9" width="65.524" height="2.853" transform="translate(23.801 87.053)"/>
    <rect id="사각형_2677" data-name="사각형 2677" class="cls-9" width="65.524" height="2.853" transform="translate(106.326 87.053)"/>
    <rect id="사각형_2678" data-name="사각형 2678" class="cls-19" width="4.828" height="3.279" transform="translate(277.66 144.742)"/>
    <rect id="사각형_2679" data-name="사각형 2679" class="cls-19" width="4.828" height="3.279" transform="translate(338.35 144.742)"/>
    <path id="패스_21581" data-name="패스 21581" class="cls-20" d="M25.835,101.14H91.358v96.832h6.8V40.313H19.036V197.971h6.8Zm0-53.9H91.357V94.212H25.835Z" transform="translate(-2.034 -4.308)"/>
    <path id="패스_21582" data-name="패스 21582" class="cls-20" d="M118.233,101.14h65.524v96.832h6.8V40.313H111.434V197.971h6.8Zm0-53.9h65.524V94.212H118.233Z" transform="translate(-11.908 -4.308)"/>
    <path id="패스_21583" data-name="패스 21583" class="cls-20" d="M373.342,0H202.6V193.664h6.8V7.091H373.341V193.664h6.8V0Z" transform="translate(-21.649 0)"/>
    <rect id="사각형_2680" data-name="사각형 2680" class="cls-20" width="341.491" height="4.286" transform="translate(17.002 193.669)"/>
    <path id="패스_21584" data-name="패스 21584" class="cls-18" d="M225.633,216.395c.138.094-.969,1.733-2.507,4.522-.774,1.392-1.623,3.089-2.482,5.009a59.5,59.5,0,0,0-4.065,13.046c-.383,2.069-.649,3.948-.8,5.532-.318,3.169-.338,5.146-.5,5.146-.122,0-.248-1.987,0-5.193a54.8,54.8,0,0,1,.747-5.592,58.744,58.744,0,0,1,4.1-13.168,54.378,54.378,0,0,1,2.561-5.028c1.615-2.779,2.848-4.346,2.948-4.274" transform="translate(-22.988 -23.123)"/>
    <path id="패스_21585" data-name="패스 21585" class="cls-18" d="M207.772,202.172c.138-.022.639,2.52,1.281,6.658s1.4,9.873,2.077,16.227,1.12,12.123,1.354,16.3.275,6.771.137,6.778-.335-2.575-.642-6.745-.757-9.93-1.425-16.277-1.431-12.072-2-16.215-.928-6.706-.78-6.73" transform="translate(-22.198 -21.604)"/>
    <path id="패스_21586" data-name="패스 21586" class="cls-18" d="M201.768,228.708c.132-.057.724,1.11,1.6,3.041s2.011,4.625,3.132,7.66a64.95,64.95,0,0,1,2.421,7.927c.466,2.074.6,3.385.467,3.406-.153.027-.427-1.25-.959-3.286s-1.358-4.828-2.471-7.847-2.256-5.7-3.055-7.66-1.263-3.183-1.13-3.241" transform="translate(-21.558 -24.439)"/>
    <path id="패스_21587" data-name="패스 21587" class="cls-18" d="M209.127,211.847a11.784,11.784,0,0,1-2.96-10.761l.324-3.851a21.015,21.015,0,0,1,3.481,4.74,10.717,10.717,0,0,1-.823,10.487" transform="translate(-22.013 -21.076)"/>
    <path id="패스_21588" data-name="패스 21588" class="cls-18" d="M210.942,222.183a10.352,10.352,0,0,1,1.148-7.4,9.852,9.852,0,0,1,.872-1.45,13.341,13.341,0,0,1,4.326-3.312,16.825,16.825,0,0,1-.439,6.181c-.949,2.872-3.385,5.024-6.016,6.517" transform="translate(-22.511 -22.443)"/>
    <path id="패스_21589" data-name="패스 21589" class="cls-18" d="M209.658,223.186a7.047,7.047,0,0,0-2.357-4.675,10.149,10.149,0,0,0-1.044-.785,18.767,18.767,0,0,0-5.657-2.551A12.667,12.667,0,0,0,203,220.4a8.13,8.13,0,0,0,6.644,2.789" transform="translate(-21.436 -22.993)"/>
    <path id="패스_21590" data-name="패스 21590" class="cls-18" d="M204.084,234.531a31.809,31.809,0,0,0-.13-4.547,9.176,9.176,0,0,0-1.059-3.857,10.743,10.743,0,0,0-3.307-3.055l-3.788-2.615c1.115,2.579.481,5.65,1.55,8.25,1.184,2.877,4.146,4.538,6.9,5.981" transform="translate(-20.923 -23.558)"/>
    <path id="패스_21591" data-name="패스 21591" class="cls-18" d="M221.735,223.175a10.352,10.352,0,0,1,3.52-9.1c1.846-1.557,4.223-2.437,5.909-4.165a10.888,10.888,0,0,0-.212,3.75,9.811,9.811,0,0,1-8.829,9.716" transform="translate(-23.686 -22.431)"/>
    <path id="패스_21592" data-name="패스 21592" class="cls-18" d="M219.018,231.428a6.242,6.242,0,0,1,2.636-3.256c3.1-1.878,7.159-.746,10.627-1.8-.522,1.713-1.141,3.539-2.585,4.6a6.866,6.866,0,0,1-2.119.963c-2.754.822-5.907.907-8.339-.625" transform="translate(-23.404 -24.189)"/>
    <path id="패스_21593" data-name="패스 21593" class="cls-18" d="M218.645,231.051a19.133,19.133,0,0,0-.251-4.983,6.433,6.433,0,0,0-2.652-4.091,9.263,9.263,0,0,0,2.766,8.96" transform="translate(-23.031 -23.72)"/>
    <path id="패스_21594" data-name="패스 21594" class="cls-18" d="M207.456,241.137a9.121,9.121,0,0,1-.259-6.964c.561-1.486,1.525-2.888,1.521-4.476,1,2.35,1.81,4.991,1.02,7.418a11.262,11.262,0,0,1-2.619,3.927" transform="translate(-22.08 -24.545)"/>
    <path id="패스_21595" data-name="패스 21595" class="cls-18" d="M205.9,242.01a6.144,6.144,0,0,0-5.166-2.722,15.46,15.46,0,0,0-5.913,1.308c-.152.058-.328.147-.34.309a.425.425,0,0,0,.115.272,7.459,7.459,0,0,0,7.575,2.669,14.577,14.577,0,0,0,3.817-1.8" transform="translate(-20.782 -25.569)"/>
    <path id="패스_21596" data-name="패스 21596" class="cls-18" d="M216.084,243.572a6.817,6.817,0,0,1,4.466-4.182,48.372,48.372,0,0,1,6.206-1.341,3.523,3.523,0,0,1-.482,2.021,7.8,7.8,0,0,1-1.675,2.616,5.946,5.946,0,0,1-2.005,1.1,12.6,12.6,0,0,1-6.84.451" transform="translate(-23.055 -25.438)"/>
    <path id="패스_21597" data-name="패스 21597" class="cls-22" d="M225.408,251.31H191.151v5.057h1.62s-.195,18.564,9.519,29.677h17.484c9.715-11.113,9.52-29.677,9.52-29.677h1.62V251.31Z" transform="translate(-20.426 -26.854)"/>
    <path id="패스_21598" data-name="패스 21598" class="cls-23" d="M193,258.6c13.993,5.4,32.451,5.751,35.909,5.768a57.017,57.017,0,0,0,.575-7.257v-.144H192.964s-.005.6.039,1.633" transform="translate(-20.62 -27.46)"/>
    <rect id="사각형_2681" data-name="사각형 2681" class="cls-24" width="21.435" height="2.169" transform="translate(179.875 259.19)"/>
    <path id="패스_21599" data-name="패스 21599" class="cls-25" d="M257.306,209.069a8.706,8.706,0,0,1-5.5-3.64,13.709,13.709,0,0,1-2.263-6.3,4.3,4.3,0,0,1,.086-1.9,1.713,1.713,0,0,1,1.358-1.208,2.145,2.145,0,0,1,1.084.254,9.375,9.375,0,0,1,4.3,4.969,17.128,17.128,0,0,1,1.348,8.5" transform="translate(-26.659 -20.946)"/>
    <path id="패스_21600" data-name="패스 21600" class="cls-25" d="M278.1,215.948a14.212,14.212,0,0,1,2.588-9.44,4.688,4.688,0,0,1,1.692-1.587,2.049,2.049,0,0,1,2.205.184,2.416,2.416,0,0,1,.681,1.417,7.56,7.56,0,0,1-1.386,5.286,13.5,13.5,0,0,1-5.862,4.986" transform="translate(-29.709 -21.873)"/>
    <path id="패스_21601" data-name="패스 21601" class="cls-26" d="M265.463,250.065c-.186-.009-.076-2.594-.234-6.762-.071-2.085-.256-4.562-.564-7.3-.334-2.736-.807-5.731-1.485-8.84-.7-3.105-1.529-6.022-2.379-8.644-.874-2.613-1.751-4.938-2.565-6.858-1.613-3.848-2.8-6.146-2.637-6.231.071-.038.415.514.982,1.542s1.324,2.549,2.171,4.469,1.759,4.252,2.65,6.88c.865,2.637,1.705,5.576,2.406,8.7.682,3.131,1.159,6.149,1.486,8.906.3,2.76.465,5.257.5,7.357s.007,3.8-.086,4.968a5.6,5.6,0,0,1-.242,1.811" transform="translate(-27.311 -21.951)"/>
    <path id="패스_21602" data-name="패스 21602" class="cls-26" d="M279.712,211.826c.163.074-.72,2.09-1.945,5.421a90.985,90.985,0,0,0-5.6,27.05c-.2,3.544-.19,5.746-.369,5.748-.142.005-.313-2.2-.193-5.774a85.2,85.2,0,0,1,5.638-27.221c1.309-3.327,2.342-5.286,2.471-5.224" transform="translate(-29.019 -22.635)"/>
    <path id="패스_21603" data-name="패스 21603" class="cls-26" d="M265.624,250.132a34.958,34.958,0,0,0-9.4-24.367c.923,4.153.921,8.45,1.428,12.675s1.609,8.554,4.357,11.8" transform="translate(-27.38 -24.125)"/>
    <path id="패스_21604" data-name="패스 21604" class="cls-18" d="M261,250.894a26.3,26.3,0,0,0-10.9-18.341c1.332,6.8,2.852,13.989,7.577,19.061" transform="translate(-26.724 -24.85)"/>
    <path id="패스_21605" data-name="패스 21605" class="cls-26" d="M269.03,250.371a39.737,39.737,0,0,1,10.058-24.235L277.46,238.7c-.526,4.068-1.112,8.3-3.385,11.714" transform="translate(-28.748 -24.164)"/>
    <path id="패스_21606" data-name="패스 21606" class="cls-18" d="M266.256,251.241a39.733,39.733,0,0,1,1.317-26.206q1.346,6.187,2.694,12.374c.874,4.008,1.745,8.189.754,12.171" transform="translate(-28.279 -24.047)"/>
    <path id="패스_21607" data-name="패스 21607" class="cls-18" d="M274.614,250.839a33.314,33.314,0,0,1,10.845-17.374,32.6,32.6,0,0,1-4.9,18.306" transform="translate(-29.345 -24.948)"/>
    <path id="패스_21608" data-name="패스 21608" class="cls-22" d="M280.939,251.31H246.68v5.057H248.3s-.195,18.564,9.52,29.677H275.3c9.715-11.113,9.519-29.677,9.519-29.677h1.621V251.31Z" transform="translate(-26.36 -26.854)"/>
    <path id="패스_21609" data-name="패스 21609" class="cls-23" d="M248.535,258.6c13.992,5.4,32.45,5.751,35.909,5.768a57.017,57.017,0,0,0,.573-7.257v-.144H248.494s-.005.6.041,1.633" transform="translate(-26.554 -27.46)"/>
    <rect id="사각형_2682" data-name="사각형 2682" class="cls-24" width="21.435" height="2.169" transform="translate(229.472 259.19)"/>
    <path id="패스_21610" data-name="패스 21610" class="cls-18" d="M328.846,210.134c.172.044-.313,2.146-.967,5.566a120.512,120.512,0,0,0-2.2,27.058c.094,3.481.233,5.633.056,5.649-.149.014-.453-2.132-.63-5.628a109.564,109.564,0,0,1,2.21-27.193c.739-3.422,1.384-5.49,1.53-5.453" transform="translate(-34.729 -22.454)"/>
    <path id="패스_21611" data-name="패스 21611" class="cls-18" d="M313.676,224.809c.249-.164,3.445,4.975,5.984,11.944,2.576,6.956,3.466,12.942,3.17,12.977-.351.068-1.231-5.855-3.785-12.751-2.517-6.909-5.68-11.995-5.369-12.17" transform="translate(-33.517 -24.022)"/>
    <path id="패스_21612" data-name="패스 21612" class="cls-18" d="M335.378,231.93c.29.183-2.236,3.919-4.426,9.011a30.218,30.218,0,0,0-2.192,6.674c-.322,1.762-.263,2.883-.447,2.892-.142.018-.372-1.137-.12-2.984a26.418,26.418,0,0,1,2.157-6.845c2.213-5.143,4.77-8.925,5.027-8.747" transform="translate(-35.058 -24.783)"/>
    <path id="패스_21613" data-name="패스 21613" class="cls-18" d="M318.2,246.359c.287-.154.986,1.134,1.733,2.778s1.264,3.014.96,3.13-.815-1.235-1.557-2.857-1.427-2.895-1.136-3.05" transform="translate(-33.994 -26.324)"/>
    <path id="패스_21614" data-name="패스 21614" class="cls-18" d="M327.016,217.346a19.157,19.157,0,0,1,1.662-14.9c.849-1.49,2.381-3.036,4.017-2.523,1.329.416,1.905,2,1.939,3.391a13.688,13.688,0,0,1-2.1,6.827,38.091,38.091,0,0,1-5.508,7.554" transform="translate(-34.858 -21.353)"/>
    <path id="패스_21615" data-name="패스 21615" class="cls-18" d="M325,225.532a37.047,37.047,0,0,0-2.879-10.721,6.352,6.352,0,0,0-1.492-2.317,2.434,2.434,0,0,0-2.571-.511,2.352,2.352,0,0,0-1.079,1.2,4.381,4.381,0,0,0,.261,3.635,13.072,13.072,0,0,0,2.273,2.983l5.747,6.189" transform="translate(-33.841 -22.632)"/>
    <path id="패스_21616" data-name="패스 21616" class="cls-18" d="M326.32,225.785a27.26,27.26,0,0,1,5.628-9.565c.855-.94,1.949-1.886,3.214-1.772,1.677.151,2.634,2.221,2.2,3.849a7.285,7.285,0,0,1-3.175,3.79,27.925,27.925,0,0,1-8.013,3.868" transform="translate(-34.854 -22.914)"/>
    <path id="패스_21617" data-name="패스 21617" class="cls-18" d="M332.494,236.856a30.588,30.588,0,0,1,1.978-6.756c1.108-2.618,2.987-5.357,5.812-5.671a2.56,2.56,0,0,1,1.727.335,2.592,2.592,0,0,1,.87,2.488c-.265,2.121-1.91,3.782-3.558,5.144A43.121,43.121,0,0,1,332.5,237" transform="translate(-35.53 -23.979)"/>
    <path id="패스_21618" data-name="패스 21618" class="cls-18" d="M317.1,231.736a24.6,24.6,0,0,0-2.886-11.961,7.233,7.233,0,0,0-2.358-2.855,3.059,3.059,0,0,0-3.5.029,3.155,3.155,0,0,0-.7,3.379,9.257,9.257,0,0,0,2.023,3.026l7.516,8.546" transform="translate(-32.854 -23.122)"/>
    <path id="패스_21619" data-name="패스 21619" class="cls-18" d="M318.892,237.33c-1.81-2.214-3.74-4.518-6.4-5.567a4.029,4.029,0,0,0-2.717-.242,2.011,2.011,0,0,0-1.434,2.11c.195,1.063,1.372,1.6,2.4,1.93a51.408,51.408,0,0,0,8.117,1.889" transform="translate(-32.946 -24.724)"/>
    <path id="패스_21620" data-name="패스 21620" class="cls-18" d="M319.949,237.078a9.35,9.35,0,0,1-.059-7.222c.313-.755.882-1.565,1.7-1.556a1.56,1.56,0,0,1,1.3.932c.535,1.095.1,2.4-.392,3.515a42.434,42.434,0,0,1-2.313,4.518" transform="translate(-34.108 -24.396)"/>
    <path id="패스_21621" data-name="패스 21621" class="cls-18" d="M330.032,243.182a15.648,15.648,0,0,1,7.2-4.952,3.3,3.3,0,0,1,3.1.155c1.131.93.656,2.909-.534,3.761a7.257,7.257,0,0,1-4.219.918l-5.4.062" transform="translate(-35.267 -25.424)"/>
    <path id="패스_21622" data-name="패스 21622" class="cls-18" d="M329.514,242.629a15.3,15.3,0,0,0-.013-6.833,3.283,3.283,0,0,0-.6-1.414,1.3,1.3,0,0,0-1.383-.458c-.691.257-.858,1.16-.79,1.894.222,2.373,1.714,4.409,3.151,6.31" transform="translate(-34.912 -24.992)"/>
    <path id="패스_21623" data-name="패스 21623" class="cls-18" d="M319.042,248.923a19.283,19.283,0,0,1-4.651-3.332,5.7,5.7,0,0,1-2-3.479c-.095-1.366,1.014-2.864,2.372-2.7a3.165,3.165,0,0,1,1.926,1.323,11.814,11.814,0,0,1,2.541,8.429" transform="translate(-33.381 -25.582)"/>
    <path id="패스_21624" data-name="패스 21624" class="cls-22" d="M336.469,251.31H302.211v5.057h1.621s-.195,18.564,9.519,29.677h17.484c9.715-11.113,9.519-29.677,9.519-29.677h1.621V251.31Z" transform="translate(-32.294 -26.854)"/>
    <path id="패스_21625" data-name="패스 21625" class="cls-23" d="M304.064,258.6c13.993,5.4,32.451,5.751,35.909,5.768a56.858,56.858,0,0,0,.575-7.257v-.144H304.025s-.005.6.039,1.633" transform="translate(-32.487 -27.46)"/>
    <rect id="사각형_2683" data-name="사각형 2683" class="cls-24" width="21.435" height="2.169" transform="translate(279.068 259.19)"/>
    <path id="패스_21626" data-name="패스 21626" class="cls-18" d="M376.469,249.227a38.872,38.872,0,0,1-4.981-15.318,11.639,11.639,0,0,1,.6-6.061c.852-1.868,2.816-3.37,4.852-3.088,2.591.358,4.029,3.212,4.508,5.783,1.2,6.43-.806,12.976-2.785,19.21" transform="translate(-39.683 -24.014)"/>
    <path id="패스_21627" data-name="패스 21627" class="cls-26" d="M379.586,250.073a26.288,26.288,0,0,1,4.4-12.568,10.218,10.218,0,0,1,2.771-2.953,4.659,4.659,0,0,1,3.884-.68c2.222.72,3.214,3.517,2.657,5.786s-2.241,4.075-3.975,5.639a47.865,47.865,0,0,1-7.875,5.761" transform="translate(-40.562 -24.972)"/>
    <path id="패스_21628" data-name="패스 21628" class="cls-26" d="M376.015,250.784,372,243.626c-1.039-1.85-2.155-3.782-3.972-4.879s-4.551-.982-5.687.81a3.909,3.909,0,0,0-.214,3.439,7.636,7.636,0,0,0,2.107,2.846c2.721,2.466,6.239,3.828,9.669,5.137" transform="translate(-38.664 -25.437)"/>
    <path id="패스_21629" data-name="패스 21629" class="cls-18" d="M382.893,251.967l4.161-3.974a7.086,7.086,0,0,1,2.918-1.971,2.435,2.435,0,0,1,2.953,1.3,2.755,2.755,0,0,1-.566,2.346,5.948,5.948,0,0,1-4.706,2.47" transform="translate(-40.915 -26.28)"/>
    <path id="패스_21630" data-name="패스 21630" class="cls-18" d="M372.656,251.5l-4.75-2.609a5.911,5.911,0,0,0-2.79-.965,2.035,2.035,0,0,0-2.1,1.7,2.613,2.613,0,0,0,1.57,2.112,9.572,9.572,0,0,0,5.19,1.257" transform="translate(-38.791 -26.493)"/>
    <path id="패스_21631" data-name="패스 21631" class="cls-26" d="M373,201.539c.14-.021.589,2.5,1.188,6.594s1.337,9.763,2.06,16.035,1.294,11.961,1.642,16.084.485,6.68.344,6.691-.428-2.531-.848-6.644-.991-9.8-1.712-16.062-1.461-11.932-1.987-16.035-.833-6.642-.687-6.664" transform="translate(-39.854 -21.536)"/>
    <path id="패스_21632" data-name="패스 21632" class="cls-26" d="M388.865,208.112c.146.059-.642,2.146-1.8,5.559s-2.641,8.168-3.9,13.52-2.051,10.272-2.535,13.842-.712,5.79-.867,5.778c-.133-.01-.051-2.247.364-5.842a128.169,128.169,0,0,1,6.463-27.464c1.231-3.4,2.155-5.443,2.278-5.392" transform="translate(-40.574 -22.238)"/>
    <path id="패스_21633" data-name="패스 21633" class="cls-25" d="M371.273,194.209a2.144,2.144,0,0,0-1.978,2.3c0,.054.01.106.018.16a2.233,2.233,0,0,0,2.7,1.628l.029-.007a2.329,2.329,0,0,0,1.455-2.863c-.359-1.073-1.871-1.725-2.69-.945" transform="translate(-39.461 -20.745)"/>
    <path id="패스_21634" data-name="패스 21634" class="cls-25" d="M362.592,207.134a2.143,2.143,0,0,0-1.978,2.3c0,.054.01.107.018.16a2.233,2.233,0,0,0,2.7,1.629l.029-.008a2.328,2.328,0,0,0,1.455-2.862c-.36-1.074-1.871-1.725-2.69-.945" transform="translate(-38.534 -22.126)"/>
    <path id="패스_21635" data-name="패스 21635" class="cls-25" d="M391.958,201.943a3.718,3.718,0,0,0-1.843,1.884,2.031,2.031,0,0,0,.68,2.394,2.052,2.052,0,0,0,1.029.28,2.592,2.592,0,0,0,2.642-2.434c-.018-1.338-1.3-2.707-2.508-2.123" transform="translate(-41.673 -21.564)"/>
    <path id="패스_21636" data-name="패스 21636" class="cls-26" d="M376.362,248.332c-.163.012-.344-2.114-.839-5.52a91.994,91.994,0,0,0-7.558-25.7c-1.429-3.13-2.428-5.016-2.286-5.094.112-.063,1.24,1.76,2.744,4.879a86.219,86.219,0,0,1,7.6,25.847c.423,3.436.462,5.58.335,5.587" transform="translate(-39.074 -22.656)"/>
    <path id="패스_21637" data-name="패스 21637" class="cls-22" d="M392,251.31H357.742v5.057h1.621s-.195,18.564,9.519,29.677h17.484c9.715-11.113,9.52-29.677,9.52-29.677h1.62V251.31Z" transform="translate(-38.228 -26.854)"/>
    <path id="패스_21638" data-name="패스 21638" class="cls-23" d="M359.6,258.6c13.993,5.4,32.451,5.751,35.909,5.768a56.853,56.853,0,0,0,.575-7.257v-.144H359.556s-.005.6.039,1.633" transform="translate(-38.421 -27.46)"/>
    <rect id="사각형_2684" data-name="사각형 2684" class="cls-24" width="21.436" height="2.169" transform="translate(328.665 259.19)"/>
    <path id="패스_21639" data-name="패스 21639" class="cls-27" d="M65.993,169.277a80.856,80.856,0,0,1,9.021-33.368c1.176-2.26,2.549-4.556,4.724-5.881s5.365-1.318,6.963.665c1.909,2.37.65,5.863-.725,8.578a245.636,245.636,0,0,1-18.364,30.553" transform="translate(-7.052 -13.796)"/>
    <path id="패스_21640" data-name="패스 21640" class="cls-27" d="M59.015,169.121q-3.276-15.066-7.316-29.952a14.421,14.421,0,0,0-2.1-5.056,4.984,4.984,0,0,0-4.768-2.126c-2.161.463-3.471,2.842-3.469,5.053a14.709,14.709,0,0,0,1.963,6.272l13.022,26.666" transform="translate(-4.419 -14.095)"/>
    <path id="패스_21641" data-name="패스 21641" class="cls-18" d="M53.521,142.25c.018,4.851.75,15.038,5.9,24q-2.708-12.059-5.9-24" transform="translate(-5.719 -15.201)"/>
    <path id="패스_21642" data-name="패스 21642" class="cls-18" d="M65.993,170.974l.154.053c3-5.54,4.705-18.337,5.492-26.036a80.9,80.9,0,0,0-5.646,25.983" transform="translate(-7.052 -15.493)"/>
    <path id="패스_21643" data-name="패스 21643" class="cls-27" d="M60.36,168.15c-3.283-10.753-4.774-21.928-6.252-33.048-.586-4.415-1.1-9.207,1.247-13.036,1.131-1.846,3.132-3.409,5.345-3.254,2.942.206,4.763,3.178,5.654,5.895,2.7,8.243,1.622,17.14.518,25.718l-2.335,18.142" transform="translate(-5.729 -12.695)"/>
    <path id="패스_21644" data-name="패스 21644" class="cls-14" d="M61.494,171.929H40.92l.6,7.224h2.219s4.639,22.592,8.875,30.459H70.368c4.237-7.867,8.877-30.457,8.877-30.457h2.218l.606-7.225Z" transform="translate(-4.373 -18.372)"/>
    <path id="패스_21645" data-name="패스 21645" class="cls-15" d="M44.082,180.019h35.5s-1.093,5.017-1.407,6.351c0,0-22.637-1.013-33.41-3.175,0,0-.5-2.123-.684-3.176" transform="translate(-4.711 -19.236)"/>
    <path id="패스_21646" data-name="패스 21646" class="cls-27" d="M152.175,167.306a78.767,78.767,0,0,1-10.74-27.981,25.548,25.548,0,0,1-.5-5.688,15.367,15.367,0,0,1,3.519-9.01,7.493,7.493,0,0,1,5.233-3.041,7.085,7.085,0,0,1,3.522.982c3.78,2.041,6.315,5.917,7.549,10.031a39.361,39.361,0,0,1,1.147,12.772c-.288,7.928-1.375,16.037-5.132,23.025" transform="translate(-15.059 -12.992)"/>
    <path id="패스_21647" data-name="패스 21647" class="cls-27" d="M158.174,139.316l5.31-9.159a12.059,12.059,0,0,1,2.8-3.655,6.009,6.009,0,0,1,9.511,6.216,9.581,9.581,0,0,1-2.939,4.433,22.948,22.948,0,0,1-12.407,5.989" transform="translate(-16.902 -13.383)"/>
    <path id="패스_21648" data-name="패스 21648" class="cls-27" d="M148.918,154.929c-1.125-2.417-2.48-4.874-4.716-6.327s-5.581-1.525-7.3.514c-2.089,2.48-.539,6.582,2.235,8.263s6.223,1.634,9.465,1.535" transform="translate(-14.526 -15.766)"/>
    <path id="패스_21649" data-name="패스 21649" class="cls-27" d="M162.223,171.549a36.507,36.507,0,0,1,4.7-13.386,10.973,10.973,0,0,1,3.594-4.05,4.665,4.665,0,0,1,5.147.035,4.585,4.585,0,0,1,1.485,4.1,10.142,10.142,0,0,1-1.692,4.185,26.875,26.875,0,0,1-9.929,9.269" transform="translate(-17.335 -16.387)"/>
    <path id="패스_21650" data-name="패스 21650" class="cls-18" d="M160.617,145.192a7.459,7.459,0,0,0-.871.022,12.448,12.448,0,0,0,4.211,1.162c.013-.645.016-1.289.012-1.934a22.519,22.519,0,0,1-3.352.749" transform="translate(-17.07 -15.435)"/>
    <path id="패스_21651" data-name="패스 21651" class="cls-18" d="M149.794,160.275c-.895.028-1.806.046-2.714.029.252.6.5,1.194.765,1.784a6.042,6.042,0,0,0,3.035-1.775Z" transform="translate(-15.717 -17.127)"/>
    <path id="패스_21652" data-name="패스 21652" class="cls-18" d="M158.1,139.971l4.148-7.154c-.173-.486-.359-.967-.565-1.442-1.434,3.544-4.225,9.3-4.225,9.3Z" transform="translate(-16.825 -14.038)"/>
    <path id="패스_21653" data-name="패스 21653" class="cls-18" d="M144.907,148.484c2.236,1.453,3.591,3.91,4.716,6.327l.443.62s-1.3-7.659-7.534-8.993c.094.394.2.782.3,1.174a6.591,6.591,0,0,1,2.072.872" transform="translate(-15.231 -15.648)"/>
    <path id="패스_21654" data-name="패스 21654" class="cls-18" d="M166.92,158.415a36.507,36.507,0,0,0-4.7,13.386l.4.019a26.447,26.447,0,0,0,6.242-16.1,15.282,15.282,0,0,0-1.943,2.7" transform="translate(-17.335 -16.64)"/>
    <path id="패스_21655" data-name="패스 21655" class="cls-14" d="M154.992,171.929H134.418l.606,7.224h2.219s4.639,22.592,8.875,30.459h17.751c4.235-7.867,8.875-30.459,8.875-30.459h2.218l.606-7.224Z" transform="translate(-14.364 -18.372)"/>
    <path id="패스_21656" data-name="패스 21656" class="cls-15" d="M137.579,180.019h35.5s-1.093,5.017-1.408,6.351c0,0-22.636-1.013-33.409-3.175,0,0-.5-2.123-.685-3.176" transform="translate(-14.701 -19.236)"/>
    <path id="패스_21657" data-name="패스 21657" class="cls-26" d="M142.092,141.484c-.071.261-.514.139-1.059-.01s-.987-.272-.915-.531.514-.14,1.058.01.987.271.915.531" transform="translate(-14.972 -15.045)"/>
    <path id="패스_21658" data-name="패스 21658" class="cls-26" d="M145.958,129.167c-.191.191-.367.016-.583-.2s-.392-.393-.2-.583.366-.016.583.2.393.39.2.583" transform="translate(-15.504 -13.71)"/>
    <path id="패스_21659" data-name="패스 21659" class="cls-26" d="M152.62,125.984c-.271,0-.271-.395-.271-.882s0-.883.271-.883.27.4.27.883,0,.882-.27.882" transform="translate(-16.28 -13.274)"/>
    <path id="패스_21660" data-name="패스 21660" class="cls-26" d="M154.32,132.568c.2.185-.037.43-.19.827s-.151.736-.424.734-.275-.443-.079-.932.5-.814.694-.629" transform="translate(-16.402 -14.16)"/>
    <path id="패스_21661" data-name="패스 21661" class="cls-26" d="M160.127,128.607c-.223-.161.031-.488.121-.994s-.029-.9.236-.974.414.443.3,1.07-.443,1.062-.654.9" transform="translate(-17.101 -13.531)"/>
    <path id="패스_21662" data-name="패스 21662" class="cls-26" d="M140.117,157.9c-.225-.15-.049-.414.167-.739s.392-.588.617-.438.05.414-.167.738-.392.588-.617.439" transform="translate(-14.961 -16.742)"/>
    <path id="패스_21663" data-name="패스 21663" class="cls-26" d="M141.56,151.541c-.244.118-.372-.148-.53-.475s-.287-.592-.043-.708.372.147.53.475.286.59.043.708" transform="translate(-15.051 -16.064)"/>
    <path id="패스_21664" data-name="패스 21664" class="cls-26" d="M145.073,135.348c-.162.217-.338.086-.555-.077s-.393-.294-.231-.51.339-.085.556.077.392.293.23.51" transform="translate(-15.412 -14.388)"/>
    <path id="패스_21665" data-name="패스 21665" class="cls-26" d="M152.926,143.732c.237-.125.582.517.838,1.37s.329,1.577.063,1.6-.336-.646-.581-1.447-.564-1.4-.321-1.527" transform="translate(-16.332 -15.357)"/>
    <path id="패스_21666" data-name="패스 21666" class="cls-26" d="M172.247,130.358c.116.247-.23.4-.589.706s-.571.618-.795.463.029-.527.446-.875.826-.537.938-.293" transform="translate(-18.249 -13.918)"/>
    <path id="패스_21667" data-name="패스 21667" class="cls-26" d="M169.149,126.847c.268-.038.311.271.363.649s.1.688-.172.724-.311-.271-.364-.649-.1-.687.172-.724" transform="translate(-18.052 -13.554)"/>
    <path id="패스_21668" data-name="패스 21668" class="cls-26" d="M178.013,129.684c.054.266-.167.309-.438.363s-.49.1-.543-.167.166-.309.438-.364.489-.1.543.167" transform="translate(-18.916 -13.836)"/>
    <path id="패스_21669" data-name="패스 21669" class="cls-26" d="M169.441,140.826c-.139.231-.358.1-.63-.063s-.49-.295-.351-.526.359-.1.63.063.49.294.351.526" transform="translate(-17.997 -14.972)"/>
    <path id="패스_21670" data-name="패스 21670" class="cls-26" d="M148.16,153.862c.151.229-.092.377-.234.712s-.086.613-.355.659-.352-.4-.141-.873.591-.728.73-.5" transform="translate(-15.742 -16.432)"/>
    <path id="패스_21671" data-name="패스 21671" class="cls-26" d="M159.748,152.086c.206.175-.016.437-.289.759s-.5.583-.7.408.015-.436.289-.758.5-.584.7-.409" transform="translate(-16.956 -16.246)"/>
    <path id="패스_21672" data-name="패스 21672" class="cls-26" d="M153.083,155.4c.23-.147.354.062.634.2s.521.114.54.388-.375.3-.782.1-.623-.548-.392-.685" transform="translate(-16.348 -16.6)"/>
    <path id="패스_21673" data-name="패스 21673" class="cls-26" d="M174.963,152.1c.214.171-.024.45-.115.9s.012.8-.252.871-.4-.406-.278-.981.441-.962.645-.789" transform="translate(-18.622 -16.249)"/>
    <path id="패스_21674" data-name="패스 21674" class="cls-26" d="M179.41,158.23c0,.271-.483.271-1.079.271s-1.08,0-1.08-.271.484-.271,1.08-.271,1.079,0,1.079.271" transform="translate(-18.941 -16.879)"/>
    <path id="패스_21675" data-name="패스 21675" class="cls-26" d="M173.212,159.36c.195.189.007.374-.146.667s-.2.552-.467.5-.2-.388-.013-.75.435-.606.625-.416" transform="translate(-18.425 -17.022)"/>
    <path id="패스_21676" data-name="패스 21676" class="cls-26" d="M172.5,166.312c-.172.212-.355.055-.64-.038s-.525-.078-.538-.35.325-.292.707-.163.643.347.471.552" transform="translate(-18.307 -17.705)"/>
    <path id="패스_21677" data-name="패스 21677" class="cls-26" d="M161.321,161.525c0,.271-.221.271-.491.271s-.49,0-.49-.271.22-.271.49-.271.491,0,.491.271" transform="translate(-17.133 -17.231)"/>
    <path id="패스_21678" data-name="패스 21678" class="cls-26" d="M151.329,164.85c.046-.265.31-.22.634-.163s.588.1.541.369-.31.221-.635.163-.588-.1-.54-.37" transform="translate(-16.17 -17.594)"/>
    <path id="패스_21679" data-name="패스 21679" class="cls-26" d="M156.563,168.616c-.267-.041-.213-.39-.148-.823s.121-.781.388-.74.213.391.147.823-.12.782-.387.74" transform="translate(-16.708 -17.851)"/>
    <path id="패스_21680" data-name="패스 21680" class="cls-26" d="M162.493,136.742c.26-.074.347.233.455.613s.2.687-.064.761-.347-.234-.456-.613-.2-.686.064-.761" transform="translate(-17.345 -14.611)"/>
    <path id="패스_21681" data-name="패스 21681" class="cls-26" d="M166.432,132.782c.256.093.123.441.074.9s0,.83-.271.864-.328-.4-.268-.924.213-.935.464-.842" transform="translate(-17.733 -14.187)"/>
    <path id="패스_21682" data-name="패스 21682" class="cls-26" d="M175.321,137.137c-.077.259-.384.168-.762.055s-.684-.2-.607-.462.384-.169.762-.056.684.2.607.463" transform="translate(-18.587 -14.593)"/>
    <path id="패스_21683" data-name="패스 21683" class="cls-26" d="M145.4,122.892c.191-.191.455.072.78.4s.589.589.4.78-.455-.072-.78-.4-.589-.589-.4-.78" transform="translate(-15.53 -13.125)"/>
    <path id="패스_21684" data-name="패스 21684" class="cls-26" d="M156.964,122.9c.229.145.092.361-.077.628s-.305.484-.534.339-.092-.361.077-.629.305-.483.534-.339" transform="translate(-16.695 -13.128)"/>
    <path id="패스_21685" data-name="패스 21685" class="cls-26" d="M147.449,145.043c-.086.256-.349.168-.673.059s-.589-.2-.5-.453.349-.169.674-.059.588.2.5.453" transform="translate(-15.629 -15.439)"/>
    <path id="패스_21686" data-name="패스 21686" class="cls-26" d="M159.67,142.366c-.191-.191-.059-.322.1-.485s.3-.3.486-.1.059.323-.1.486-.294.294-.485.1" transform="translate(-17.052 -15.14)"/>
    <path id="패스_21687" data-name="패스 21687" class="cls-27" d="M44.821,73.357a3.908,3.908,0,0,1-1.491-5.627c.266-.362.617-.74.551-1.184a1.542,1.542,0,0,0-.326-.631,8.388,8.388,0,0,1,.937-10.5,2.134,2.134,0,0,0,.565-.714,3.245,3.245,0,0,0,.085-.942,2.224,2.224,0,1,1,3.222,2.127,7.341,7.341,0,0,1,2.109,12.869A3.487,3.487,0,0,1,50.733,74" transform="translate(-4.502 -5.528)"/>
    <path id="패스_21688" data-name="패스 21688" class="cls-14" d="M45.94,75.145H34.276l.343,4.1h1.258s2.629,12.808,5.032,17.267H50.972C53.373,92.049,56,79.241,56,79.241h1.258l.343-4.1Z" transform="translate(-3.663 -8.03)"/>
    <path id="패스_21689" data-name="패스 21689" class="cls-15" d="M36.07,79.731H56.2s-.62,2.844-.8,3.6c0,0-12.834-.574-18.941-1.8,0,0-.285-1.2-.389-1.8" transform="translate(-3.854 -8.52)"/>
    <path id="패스_21690" data-name="패스 21690" class="cls-27" d="M77.442,73.539a13.213,13.213,0,0,1-2.53-4.23,18.529,18.529,0,0,1-1.769-6.847,7.815,7.815,0,0,1,2.687-6.316c2.57-1.993,6.568-1.45,8.922.8a10.111,10.111,0,0,1,2.587,9.006,18.031,18.031,0,0,1-4.486,8.531" transform="translate(-7.816 -5.868)"/>
    <path id="패스_21691" data-name="패스 21691" class="cls-18" d="M74.911,70.223a14.232,14.232,0,0,0,2.227,3.868,5.28,5.28,0,0,0,1-2.127,7.319,7.319,0,0,0-1.2-5.958,6.9,6.9,0,0,0-3.79-2.533,18.712,18.712,0,0,0,1.764,6.75" transform="translate(-7.816 -6.783)"/>
    <path id="패스_21692" data-name="패스 21692" class="cls-27" d="M72.095,74.906a5.821,5.821,0,0,1-3.322-5.492,3.863,3.863,0,0,1,.308-1.372,3.49,3.49,0,0,1,4.188-1.648,5.022,5.022,0,0,1,3.1,3.57,9.185,9.185,0,0,1-.27,4.86" transform="translate(-7.348 -7.077)"/>
    <path id="패스_21693" data-name="패스 21693" class="cls-26" d="M69.328,70.691c.021.27-.33.3-.763.33s-.783.059-.8-.21.33-.3.764-.33.785-.061.8.209" transform="translate(-7.241 -7.529)"/>
    <path id="패스_21694" data-name="패스 21694" class="cls-26" d="M69.774,67.349c-.192.191-.323.059-.485-.1s-.294-.295-.1-.485.323-.06.486.1.294.294.1.485" transform="translate(-7.383 -7.124)"/>
    <path id="패스_21695" data-name="패스 21695" class="cls-26" d="M73.286,67.074c-.262.062-.338-.244-.355-.625s.029-.693.3-.656.229.3.245.631.078.589-.186.65" transform="translate(-7.793 -7.03)"/>
    <path id="패스_21696" data-name="패스 21696" class="cls-26" d="M72.832,71.443c-.128.239-.283.155-.476.053s-.349-.186-.222-.424.283-.155.475-.053.349.186.222.424" transform="translate(-7.703 -7.578)"/>
    <path id="패스_21697" data-name="패스 21697" class="cls-26" d="M76.355,69.966c.177.2.026.337-.163.5s-.339.3-.518.095-.026-.337.163-.5.34-.3.518-.095" transform="translate(-8.078 -7.465)"/>
    <path id="패스_21698" data-name="패스 21698" class="cls-26" d="M72.036,74.693c-.21-.168-.033-.394.224-.63s.5-.395.647-.171-.054.36-.28.569-.379.4-.59.231" transform="translate(-7.688 -7.885)"/>
    <path id="패스_21699" data-name="패스 21699" class="cls-26" d="M73.479,60.006c-.045.265-.244.233-.49.192s-.445-.075-.4-.342.244-.233.489-.192.446.075.4.342" transform="translate(-7.756 -6.373)"/>
    <path id="패스_21700" data-name="패스 21700" class="cls-26" d="M79.149,55.646c-.27,0-.27-.286-.27-.638s0-.638.27-.638.271.286.271.638,0,.638-.271.638" transform="translate(-8.429 -5.81)"/>
    <path id="패스_21701" data-name="패스 21701" class="cls-26" d="M84.575,55.005c.226.148.124.305,0,.5s-.229.355-.455.207-.125-.3,0-.5.23-.352.458-.206" transform="translate(-8.974 -5.872)"/>
    <path id="패스_21702" data-name="패스 21702" class="cls-26" d="M88.346,59.078c.094.255-.223.367-.587.573s-.625.415-.794.2.127-.449.53-.673.758-.354.851-.1" transform="translate(-9.288 -6.298)"/>
    <path id="패스_21703" data-name="패스 21703" class="cls-26" d="M79.758,61.738c-.216.163-.348-.013-.511-.23s-.295-.393-.078-.555.347.013.511.23.293.393.078.555" transform="translate(-8.448 -6.507)"/>
    <path id="패스_21704" data-name="패스 21704" class="cls-26" d="M77.986,64.445c-.046.268-.186.24-.367.263s-.311.08-.418-.17.095-.338.355-.368.478.011.43.275" transform="translate(-8.246 -6.856)"/>
    <path id="패스_21705" data-name="패스 21705" class="cls-26" d="M85.156,61.476c.132.237-.167.4-.537.612s-.668.375-.8.139.166-.4.536-.612.669-.375.8-.139" transform="translate(-8.953 -6.557)"/>
    <path id="패스_21706" data-name="패스 21706" class="cls-26" d="M81.881,69.2c-.272.013-.287-.372-.372-.842s-.2-.838.056-.919.387.318.476.823.109.924-.16.938" transform="translate(-8.699 -7.206)"/>
    <path id="패스_21707" data-name="패스 21707" class="cls-26" d="M86.6,67.466c.023.265-.387.3-.817.106s-.684-.514-.472-.676.376.045.69.181.583.115.6.389" transform="translate(-9.107 -7.142)"/>
    <path id="패스_21708" data-name="패스 21708" class="cls-26" d="M90.115,67.6c0,.268-.346.272-.742.155s-.687-.3-.544-.527.37-.086.694.007.595.092.592.364" transform="translate(-9.488 -7.17)"/>
    <path id="패스_21709" data-name="패스 21709" class="cls-26" d="M87.131,73.473c-.077.259-.43.155-.865.025s-.789-.234-.712-.493.43-.155.865-.026.788.234.711.494" transform="translate(-9.141 -7.784)"/>
    <path id="패스_21710" data-name="패스 21710" class="cls-26" d="M73.059,63.784c0,.271-.154.271-.343.271s-.344,0-.344-.271.155-.271.344-.271.343,0,.343.271" transform="translate(-7.734 -6.787)"/>
    <path id="패스_21711" data-name="패스 21711" class="cls-26" d="M78.078,58.1c.067.263-.155.319-.429.389s-.5.127-.563-.135.155-.319.429-.389.5-.128.563.135" transform="translate(-8.236 -6.188)"/>
    <path id="패스_21712" data-name="패스 21712" class="cls-26" d="M81.289,72.812c.237.132.085.4-.041.76s-.178.664-.443.617-.21-.393-.067-.8.316-.711.551-.58" transform="translate(-8.615 -7.777)"/>
    <path id="패스_21713" data-name="패스 21713" class="cls-14" d="M77.788,75.145H66.124l.343,4.1h1.258s2.63,12.808,5.032,17.267H82.82c2.4-4.459,5.032-17.267,5.032-17.267H89.11l.343-4.1Z" transform="translate(-7.066 -8.03)"/>
    <path id="패스_21714" data-name="패스 21714" class="cls-15" d="M67.916,79.731H88.043s-.621,2.844-.8,3.6c0,0-12.833-.574-18.941-1.8,0,0-.283-1.2-.389-1.8" transform="translate(-7.257 -8.52)"/>
    <path id="패스_21715" data-name="패스 21715" class="cls-28" d="M132.656,52.944l-.784.49-.883-.49-2.02,12.174-3.224,28.559,10.541.459L134.03,65.064Z" transform="translate(-13.437 -5.657)"/>
    <path id="패스_21716" data-name="패스 21716" class="cls-29" d="M133.483,52.944l14.664.687L151.172,65.2,153.7,93.7l-16.587.439-2.255-29.072Z" transform="translate(-14.264 -5.657)"/>
    <path id="패스_21717" data-name="패스 21717" class="cls-30" d="M125.744,98l5.27-4.605,5.271,5.064Z" transform="translate(-13.437 -9.98)"/>
    <path id="패스_21718" data-name="패스 21718" class="cls-31" d="M137.254,66.379h12.424l.655,7.829-12.424.28Z" transform="translate(-14.667 -7.093)"/>
    <path id="패스_21719" data-name="패스 21719" class="cls-31" d="M145.869,78.6a3.7,3.7,0,1,1-3.213,3.667,3.463,3.463,0,0,1,3.213-3.667" transform="translate(-15.244 -8.399)"/>
    <path id="패스_21720" data-name="패스 21720" class="cls-28" d="M162.251,52.944l-.784.49-.883-.49-2.02,12.174-3.224,28.559,10.541.459-2.255-29.073Z" transform="translate(-16.599 -5.657)"/>
    <path id="패스_21721" data-name="패스 21721" class="cls-29" d="M163.078,52.944l14.664.687L180.765,65.2l2.528,28.5-16.587.439-2.255-29.072Z" transform="translate(-17.426 -5.657)"/>
    <path id="패스_21722" data-name="패스 21722" class="cls-30" d="M155.338,98l5.27-4.605,5.271,5.064Z" transform="translate(-16.599 -9.98)"/>
    <path id="패스_21723" data-name="패스 21723" class="cls-31" d="M166.848,66.379h12.424l.654,7.829-12.424.28Z" transform="translate(-17.829 -7.093)"/>
    <path id="패스_21724" data-name="패스 21724" class="cls-31" d="M175.463,78.6a3.7,3.7,0,1,1-3.213,3.667,3.463,3.463,0,0,1,3.213-3.667" transform="translate(-18.406 -8.399)"/>
    <path id="패스_21725" data-name="패스 21725" class="cls-32" d="M202.6,0V11.1a11.1,11.1,0,1,0,22.193,0V0Z" transform="translate(-21.649)"/>
    <path id="패스_21726" data-name="패스 21726" class="cls-32" d="M252.293,0V11.1a11.1,11.1,0,0,0,22.194,0V0Z" transform="translate(-26.96)"/>
    <path id="패스_21727" data-name="패스 21727" class="cls-33" d="M227.445,0V11.1a11.1,11.1,0,1,0,22.194,0V0Z" transform="translate(-24.304)"/>
    <path id="패스_21728" data-name="패스 21728" class="cls-33" d="M277.142,0V11.1a11.1,11.1,0,1,0,22.194,0V0Z" transform="translate(-29.615)"/>
    <path id="패스_21729" data-name="패스 21729" class="cls-32" d="M301.991,0V11.1a11.1,11.1,0,1,0,22.193,0V0Z" transform="translate(-32.27)"/>
    <path id="패스_21730" data-name="패스 21730" class="cls-33" d="M326.839,0V11.1a11.1,11.1,0,1,0,22.194,0V0Z" transform="translate(-34.925)"/>
    <path id="패스_21731" data-name="패스 21731" class="cls-32" d="M351.687,0V11.1a11.1,11.1,0,0,0,22.194,0V0Z" transform="translate(-37.581)"/>
    <path id="패스_21732" data-name="패스 21732" class="cls-33" d="M376.536,0V11.1a11.1,11.1,0,1,0,22.194,0V0Z" transform="translate(-40.236)"/>
    <rect id="사각형_2685" data-name="사각형 2685" class="cls-34" width="83.128" height="62.023" transform="translate(42.594 294.267)"/>
    <rect id="사각형_2686" data-name="사각형 2686" class="cls-35" width="89.31" height="17.745" transform="translate(39.503 294.267)"/>
    <rect id="사각형_2687" data-name="사각형 2687" class="cls-35" width="89.31" height="17.745" transform="translate(39.503 316.407)"/>
    <rect id="사각형_2688" data-name="사각형 2688" class="cls-35" width="89.31" height="17.745" transform="translate(39.503 338.546)"/>
    <rect id="사각형_2689" data-name="사각형 2689" class="cls-34" width="64.259" height="47.946" transform="translate(180.66 308.346)"/>
    <rect id="사각형_2690" data-name="사각형 2690" class="cls-35" width="69.037" height="13.717" transform="translate(178.272 308.346)"/>
    <rect id="사각형_2691" data-name="사각형 2691" class="cls-35" width="69.037" height="13.717" transform="translate(178.272 325.46)"/>
    <rect id="사각형_2692" data-name="사각형 2692" class="cls-35" width="69.037" height="13.717" transform="translate(178.272 342.574)"/>
    <path id="패스_21733" data-name="패스 21733" class="cls-27" d="M99.126,268.036a6.685,6.685,0,0,1-1.5-6.5,19.638,19.638,0,0,1,3.262-6.157c3.6-5.186,7.257-10.433,12.065-14.522a17.087,17.087,0,0,1,8.12-4.233c3.053-.488,6.491.522,8.229,3.08,1.787,2.634,1.387,6.283-.15,9.07s-4.029,4.9-6.465,6.95l-11.206,9.427a18.671,18.671,0,0,1-5.721,3.721c-2.166.742-4.8.564-6.438-1.038" transform="translate(-10.405 -25.272)"/>
    <path id="패스_21734" data-name="패스 21734" class="cls-27" d="M84.292,270.091c2.194-5.194-.084-11.223-3.3-15.852a41.54,41.54,0,0,0-14.816-13.044c-2.533-1.322-5.492-2.395-8.2-1.484-3.974,1.338-5.49,6.483-4.384,10.527a13.137,13.137,0,0,0,4.272,6.612c5.184,4.282,13.14,4.2,17.9,8.942,1.3,1.292,2.308,2.906,3.849,3.9s3.5,1.191,4.682.4" transform="translate(-5.689 -25.579)"/>
    <path id="패스_21735" data-name="패스 21735" class="cls-26" d="M106.347,260.119a15.188,15.188,0,0,1-2.031,3.063,87.79,87.79,0,0,0-4.91,7.335,44.587,44.587,0,0,0-2.187,4.319,33.028,33.028,0,0,0-1.336,3.714c-.628,2.16-.812,3.548-.97,3.528a9.753,9.753,0,0,1,.514-3.654,28.165,28.165,0,0,1,1.3-3.8,42.969,42.969,0,0,1,2.209-4.382,70.212,70.212,0,0,1,5-7.348,13.79,13.79,0,0,1,2.411-2.779" transform="translate(-10.137 -27.795)"/>
    <path id="패스_21736" data-name="패스 21736" class="cls-26" d="M79.2,260.338a10.018,10.018,0,0,1,2.445,2.527A35.985,35.985,0,0,1,88.637,278.2a10.042,10.042,0,0,1,.3,3.5c-.15.015-.313-1.309-.765-3.409a38.068,38.068,0,0,0-6.9-15.143c-1.287-1.719-2.18-2.711-2.07-2.815" transform="translate(-8.462 -27.819)"/>
    <path id="패스_21737" data-name="패스 21737" class="cls-26" d="M78.546,249.26a21.53,21.53,0,0,0,2.448,6.252c2.141,3.615,3.68,11.582,6.466,14.252,1.313-4.857-.83-10.247-3.768-14.469a41.26,41.26,0,0,0-5.146-6.035" transform="translate(-8.393 -26.635)"/>
    <path id="패스_21738" data-name="패스 21738" class="cls-26" d="M106.035,249.667c-1.8,2.305-3.484,4.714-5.148,7.115a19.639,19.639,0,0,0-3.262,6.157,7.35,7.35,0,0,0,.508,5.208c6.239-2.422,7.612-13.092,7.9-18.48" transform="translate(-10.405 -26.679)"/>
    <path id="패스_21739" data-name="패스 21739" class="cls-27" d="M91.611,262.073a5.161,5.161,0,0,1-4.518-2.057,15.241,15.241,0,0,1-2.294-4.625l-7.1-19.65c-1.025-2.838-2.065-5.77-1.921-8.784.213-4.464,3.567-8.818,8-9.428a10.645,10.645,0,0,1,8.338,2.9,21.408,21.408,0,0,1,5.015,7.527,44.456,44.456,0,0,1,3,25.311,14.9,14.9,0,0,1-2.424,6.475,6.5,6.5,0,0,1-6.033,2.755" transform="translate(-8.096 -23.237)"/>
    <path id="패스_21740" data-name="패스 21740" class="cls-26" d="M90.546,247.741a20.794,20.794,0,0,1,1.311,4.758,87.782,87.782,0,0,1,1.556,23.718,20.691,20.691,0,0,1-.679,4.888c-.148-.018.04-1.89.206-4.919a95.236,95.236,0,0,0-1.548-23.6c-.56-2.983-.99-4.813-.847-4.85" transform="translate(-9.673 -26.473)"/>
    <path id="패스_21741" data-name="패스 21741" class="cls-22" d="M107.211,282.995H68.675v5.688H70.5s-.22,20.883,10.708,33.384h19.668c10.928-12.5,10.709-33.384,10.709-33.384h1.823v-5.688Z" transform="translate(-7.338 -30.24)"/>
    <path id="패스_21742" data-name="패스 21742" class="cls-23" d="M70.76,291.2c15.74,6.072,36.5,6.47,40.394,6.49a64.063,64.063,0,0,0,.647-8.164v-.162H70.715s-.006.674.045,1.836" transform="translate(-7.556 -30.921)"/>
    <rect id="사각형_2693" data-name="사각형 2693" class="cls-24" width="24.114" height="2.44" transform="translate(71.63 291.827)"/>
    <rect id="사각형_2694" data-name="사각형 2694" class="cls-21" width="133.594" height="0.589" transform="translate(10.594 355.997)"/>
    <rect id="사각형_2695" data-name="사각형 2695" class="cls-21" width="118.756" height="0.589" transform="translate(149.353 355.997)"/>
    <path id="패스_21743" data-name="패스 21743" class="cls-27" d="M262.217,176.463c-.132.056-.893-1.545-2.028-4.176s-2.638-6.292-4.255-10.354-3.041-7.755-4.024-10.446-1.53-4.378-1.4-4.429.821,1.584,1.871,4.248l4.088,10.412c1.634,4.05,3.112,7.714,4.183,10.374s1.7,4.315,1.56,4.372" transform="translate(-26.767 -15.714)"/>
    <path id="패스_21744" data-name="패스 21744" class="cls-25" d="M251.38,150.069a18.852,18.852,0,0,1-3.3-2.846,5.785,5.785,0,0,1-1.718-2.743,2.528,2.528,0,0,1,1.167-2.808,2.428,2.428,0,0,1,2.409.343,4.71,4.71,0,0,1,1.466,2.054,9.659,9.659,0,0,1-.02,6" transform="translate(-26.319 -15.12)"/>
    <path id="패스_21745" data-name="패스 21745" class="cls-27" d="M252.736,155.019a5.377,5.377,0,0,0-3.417-2.648,10.857,10.857,0,0,0-4.419-.147,2.165,2.165,0,0,0,.933,1.442,6.614,6.614,0,0,0,4.418,1.429,14.4,14.4,0,0,1,2.673-.15" transform="translate(-26.17 -16.25)"/>
    <path id="패스_21746" data-name="패스 21746" class="cls-27" d="M253.933,154.161a7.2,7.2,0,0,1,3.1-7.207,10.214,10.214,0,0,1-.933,5.855,3.349,3.349,0,0,1-.849,1.178,1.454,1.454,0,0,1-1.368.3" transform="translate(-27.124 -15.703)"/>
    <path id="패스_21747" data-name="패스 21747" class="cls-25" d="M244.329,145.914c.08.279-.139.342-.41.421s-.491.141-.572-.138.139-.342.41-.421.491-.141.572.138" transform="translate(-26.002 -15.57)"/>
    <path id="패스_21748" data-name="패스 21748" class="cls-25" d="M243.363,142.3c.272,0,.491.13.491.29s-.22.29-.491.29-.491-.13-.491-.29.22-.29.491-.29" transform="translate(-25.953 -15.205)"/>
    <path id="패스_21749" data-name="패스 21749" class="cls-25" d="M246.569,139.857c-.13.258-.384.129-.548-.138s-.181-.546.107-.555.293.1.382.243.2.192.059.449" transform="translate(-26.276 -14.871)"/>
    <path id="패스_21750" data-name="패스 21750" class="cls-25" d="M250.521,139.978c-.276-.09-.2-.308-.118-.576s.159-.484.435-.394.2.307.118.575-.159.485-.435.395" transform="translate(-26.749 -14.852)"/>
    <path id="패스_21751" data-name="패스 21751" class="cls-25" d="M253.787,141.963c.174.232.048.327-.107.443s-.28.211-.455-.021-.048-.327.107-.443.28-.211.455.021" transform="translate(-27.05 -15.155)"/>
    <path id="패스_21752" data-name="패스 21752" class="cls-7" d="M259.182,160.682h-3.32l.264.672h0c-.2.054-.381.11-.541.163l-.223-.5s-1.1,1.918-1.408,2.54c-.17.345.353.206.959-.037a9.56,9.56,0,0,0,1.307,4.614s3.835.236,5.764-2.849Z" transform="translate(-27.134 -17.17)"/>
    <path id="패스_21753" data-name="패스 21753" class="cls-36" d="M230.735,186.376s1.667-2.936,7.258-2.642,23.783-1.191,25.623,2.642Z" transform="translate(-24.656 -19.629)"/>
    <path id="패스_21754" data-name="패스 21754" class="cls-37" d="M259.739,181.062l16.712,3.071a.178.178,0,0,1,0,.348,56.739,56.739,0,0,1-17.307-.188Z" transform="translate(-27.692 -19.348)"/>
    <path id="패스_21755" data-name="패스 21755" class="cls-37" d="M259.514,180.8l.321-1.746-2.642-.484-.16.873,1.736.319-.4,2.194.906.167Z" transform="translate(-27.466 -19.081)"/>
    <path id="패스_21756" data-name="패스 21756" class="cls-38" d="M246.6,178.139l9.1,1.673.409-2.229-9.1-1.672a1.133,1.133,0,1,0-.409,2.228" transform="translate(-26.252 -18.795)"/>
    <path id="패스_21757" data-name="패스 21757" class="cls-5" d="M259.513,182.165l-.213-.039.313-3.113.463.085Z" transform="translate(-27.708 -19.129)"/>
    <path id="패스_21758" data-name="패스 21758" class="cls-5" d="M255.67,179.789l-.309-.057.41-2.229.309.057Z" transform="translate(-27.287 -18.968)"/>
    <path id="패스_21759" data-name="패스 21759" class="cls-5" d="M253.877,179.459l-.309-.056.41-2.229.308.057Z" transform="translate(-27.096 -18.932)"/>
    <path id="패스_21760" data-name="패스 21760" class="cls-7" d="M246.419,173.694a10.878,10.878,0,0,1,3.327.833c.939.588,4.268,2.479,4.268,2.479l-2.728-.5A5.591,5.591,0,0,1,253,178.443l-1.975,1.038s-3.969.223-5.927-1.438a9.422,9.422,0,0,1-1.617-1.451Z" transform="translate(-26.018 -18.561)"/>
    <path id="패스_21761" data-name="패스 21761" class="cls-36" d="M270.6,185.819s2.451-4.111,5.689-5.289,6.767-2.384,10.4-1.978,8.972,5,9.635,7.267Z" transform="translate(-28.916 -19.071)"/>
  </g>
</svg>
