<svg id="그룹_14826" data-name="그룹 14826" xmlns="http://www.w3.org/2000/svg" xmlns:xlink="http://www.w3.org/1999/xlink" width="551.971" height="553.369" viewBox="0 0 551.971 553.369">
  <defs>
    <style>
      .cls-1 {
        fill: none;
      }

      .cls-2 {
        fill: #1461ad;
      }

      .cls-3 {
        fill: #e83755;
      }

      .cls-4 {
        clip-path: url(#clip-path);
      }

      .cls-5 {
        fill: #e9bfb1;
      }

      .cls-6 {
        fill: #fffef0;
      }

      .cls-7 {
        fill: #e72434;
      }

      .cls-8 {
        fill: #e7d07a;
      }

      .cls-9 {
        fill: #062f65;
      }

      .cls-10 {
        fill: #292421;
      }

      .cls-11 {
        fill: #b45ea1;
      }

      .cls-12 {
        fill: #fff;
      }
    </style>
    <clipPath id="clip-path">
      <rect id="사각형_2704" data-name="사각형 2704" class="cls-1" width="551.971" height="553.369"/>
    </clipPath>
  </defs>
  <rect id="사각형_2697" data-name="사각형 2697" class="cls-2" width="126.497" height="20.251" transform="translate(425.474 506.45)"/>
  <rect id="사각형_2698" data-name="사각형 2698" class="cls-3" width="81.976" height="40.5" transform="translate(453.332 465.95)"/>
  <g id="그룹_14825" data-name="그룹 14825">
    <g id="그룹_14824" data-name="그룹 14824" class="cls-4">
      <path id="패스_21762" data-name="패스 21762" class="cls-5" d="M542.714,86l-3.944.306a4.544,4.544,0,0,0-3.214,1.714l-2.461,3.115a.256.256,0,0,0,.286.4l4.519-1.608a1.333,1.333,0,0,1,1.359.286,3.371,3.371,0,0,0,3.047.843l1.776-.394Z" transform="translate(-173.118 -27.929)"/>
      <path id="패스_21763" data-name="패스 21763" class="cls-5" d="M523.612,100.966l-4.226-1.927a4.545,4.545,0,0,1-2.471-2.677l-1.3-3.752a.256.256,0,0,1,.405-.284l3.738,3.005a1.328,1.328,0,0,0,1.376.176,3.376,3.376,0,0,1,3.155.208l1.581.931Z" transform="translate(-167.454 -29.966)"/>
      <path id="패스_21764" data-name="패스 21764" class="cls-5" d="M605.664,22.712l4.08.006a3.26,3.26,0,0,0,3.263-3.254l.016-11.924-13.158-.02-.013,9.363a5.82,5.82,0,0,0,5.812,5.829" transform="translate(-194.817 -2.443)"/>
      <path id="패스_21765" data-name="패스 21765" class="cls-5" d="M605.566,22.6l6.155,1.418,3.2,11.816-10.736-.016Z" transform="translate(-196.223 -7.339)"/>
      <path id="패스_21766" data-name="패스 21766" class="cls-6" d="M620.112,147.5l-1.449,61.435.762,62.952-4.885-.007-7.527-62.962-1.428-47.543-5.2-.007L593.959,208.9l-.843,62.95-4.885-.007-5.922-62.959,2.26-61.293,18.563-7.318Z" transform="translate(-189.12 -45.559)"/>
      <path id="패스_21767" data-name="패스 21767" class="cls-7" d="M616.705,340.621l4.566.007,4.567-1.467.006-3.976-4.569,2.2-4.567,1.07Z" transform="translate(-200.291 -108.86)"/>
      <path id="패스_21768" data-name="패스 21768" class="cls-7" d="M631.65,340.637l3.463,0,.008-5.45-4.884-.007-.006,3.976Z" transform="translate(-204.684 -108.86)"/>
      <path id="패스_21769" data-name="패스 21769" class="cls-7" d="M577.743,340.565l4.567.007,4.567-1.467.005-3.976-4.569,2.2-4.568,1.07Z" transform="translate(-187.637 -108.842)"/>
      <path id="패스_21770" data-name="패스 21770" class="cls-7" d="M592.689,340.58l3.463,0,.009-5.45-4.884-.007-.005,3.976Z" transform="translate(-192.03 -108.841)"/>
      <path id="패스_21771" data-name="패스 21771" class="cls-7" d="M581.02,115.72l14.74,7.188,3.032-7.636,3.923,7.646,13.848-7.147.045-31.406,9.263-31.844a7.563,7.563,0,0,0-7.028-10.328l-39.889-.057a7.563,7.563,0,0,0-7.059,10.307l9.171,31.871Z" transform="translate(-185.57 -13.685)"/>
      <path id="패스_21772" data-name="패스 21772" class="cls-2" d="M615.876,18.054a3.714,3.714,0,0,0,3.718-3.707l.009-5.764-7.425-.011-.008,5.764a3.713,3.713,0,0,0,3.706,3.718" transform="translate(-198.818 -2.784)"/>
      <path id="패스_21773" data-name="패스 21773" class="cls-2" d="M604.162,7.111l10.685.016V5.7A5.672,5.672,0,0,0,609.185.017h0L597.533,0V.465a6.637,6.637,0,0,0,6.627,6.646Z" transform="translate(-194.064)"/>
      <path id="패스_21774" data-name="패스 21774" class="cls-5" d="M610.339,16.229a1.733,1.733,0,1,0,1.735-1.731,1.733,1.733,0,0,0-1.735,1.731" transform="translate(-198.223 -4.709)"/>
      <path id="패스_21775" data-name="패스 21775" class="cls-7" d="M553.258,97.39l-25.794-9.825,2.257-4.321,24.893,2.933L557.2,51l11.119.825-3.575,39.692a7.4,7.4,0,0,1-9.1,6.527l-1.345-.325a7.447,7.447,0,0,1-1.036-.327" transform="translate(-171.307 -16.563)"/>
      <path id="패스_21776" data-name="패스 21776" class="cls-7" d="M548.735,77.185,590.983,84.1,616.561,55.22l-9.737-10.707L586.679,73.75l-39.314-1.226Z" transform="translate(-177.771 -14.457)"/>
      <path id="패스_21777" data-name="패스 21777" class="cls-8" d="M521.677,95.521l.07-.495a1.291,1.291,0,0,1,1.459-1.1l25.6,3.6a1.292,1.292,0,0,1,1.1,1.46l-.069.5a1.293,1.293,0,0,1-1.46,1.1l-25.6-3.6a1.293,1.293,0,0,1-1.1-1.461" transform="translate(-169.424 -30.501)"/>
      <path id="패스_21778" data-name="패스 21778" class="cls-8" d="M522.771,83.573,518.3,56.188a.816.816,0,0,0-1.61.263l4.467,27.385a.816.816,0,0,0,1.61-.263" transform="translate(-167.806 -18.026)"/>
      <path id="패스_21779" data-name="패스 21779" class="cls-9" d="M299.295,99.707c127.143,0,230.214,103.07,230.214,230.214S426.438,560.135,299.295,560.135,69.081,457.064,69.081,329.921,172.151,99.707,299.295,99.707" transform="translate(-22.436 -32.382)"/>
      <path id="패스_21780" data-name="패스 21780" class="cls-2" d="M185.171,223.888c-1.013,10.128,4.537,20.257,9.864,19.244,5.537-1.053-6.82-52.923,10.392-61.783,4.077-2.1,12.6-3.218,17.091.658,2.346,2.026,2.377,4.377,6.2,7.986,1.621,1.526,4.613,4.351,7.718,4.879,6.684,1.138,9.66-9.1,19.627-15.549,10.368-6.712,13.977-.059,34.391-6.058,12.5-3.674,14.593-7.182,26.108-8.553,7.129-.848,13.012-1.548,19.356.9,14.8,5.713,14.084,21.6,25.475,24.38,8.9,2.169,21.826-4.389,23.817-12.677,3.367-14-22.48-41.395-20.932-46.14.038-.12,1.166-3.505,1.166-3.505a29.453,29.453,0,0,1,6.182-.885c10.877-.38,17.556,5.594,24.2,8.988,17.143,8.758,40.176,3.189,51.5-6.638a230.323,230.323,0,0,0-254.748,19.62c-6.761,8.684-13.108,20.355-14.5,34.618-1.471,15.116,8.342,27.983,7.09,40.514" transform="translate(-57.787 -32.381)"/>
      <path id="패스_21781" data-name="패스 21781" class="cls-2" d="M275.446,448.267a55.173,55.173,0,0,0-1.722-9.369c-3.376-12.463-17.691-27.968-23.237-34.047-23.7-25.963-26.566-32.3-36-32.883-6.472-.4-11.995,2.161-15.755,4.5a174.4,174.4,0,0,1-15.305,14.4c-12.862,10.722-20.535,13.968-25.6,18.164-15.53,12.872-13.206,40.237-11.884,57.894,2.265,30.174,3.993,63.8,5.56,103.9a231.62,231.62,0,0,0,19.467,19.521,78.027,78.027,0,0,1,6.28-12.174c3.658-9.463,17.584-17.912,20.122-19.4,12.044-7.048,15.921-2.571,35.833-7.8,15.1-3.963,25.343-9.811,39.5-17.893,15.26-8.714,22.89-13.07,24.307-18.569,3.118-12.1-13.066-17.779-19.962-42.172-3.48-12.336-1.121-16.321-1.6-24.083" transform="translate(-47.086 -120.792)"/>
      <path id="패스_21782" data-name="패스 21782" class="cls-2" d="M670.905,384.183a229.155,229.155,0,0,0-29.99-113.677c-9.071-3.119-18.8-5.157-24.6-2.481-13.167,6.077-14.18,24.308-13.167,42.2,1.274,22.5,36.62,23.875,35.449,32.744-.945,7.126-19.694,6.568-45.578,16.205-10.973,4.086-37.363,14.222-56.449,36.462-19.547,22.777-31.72,58.589-20.527,69.548,11.328,11.086,44.215-5.583,50.832,6.111.567,1,.912,3.511,1.6,8.536,1.485,10.85-.005,13.055,1.325,20.042,1.6,8.407,4.334,8.244,5.4,15.305,0,0,1.173,7.765-2.7,18.006-4.471,11.816-29.433,39.343-68.059,72.262C600.578,577.794,670.905,489.2,670.905,384.183" transform="translate(-163.832 -86.645)"/>
      <rect id="사각형_2699" data-name="사각형 2699" class="cls-8" width="59.42" height="4.727" transform="translate(57.275 472.108)"/>
      <rect id="사각형_2700" data-name="사각형 2700" class="cls-8" width="59.42" height="4.051" transform="translate(57.275 429.569)"/>
      <rect id="사각형_2701" data-name="사각형 2701" class="cls-8" width="56.044" height="4.727" transform="translate(58.625 385.68)"/>
      <rect id="사각형_2702" data-name="사각형 2702" class="cls-8" width="52.668" height="4.051" transform="translate(59.975 343.14)"/>
      <path id="패스_21783" data-name="패스 21783" class="cls-8" d="M80.407,673.774l-3.7-.131,10-224.033,3.7.131Z" transform="translate(-24.912 -146.022)"/>
      <path id="패스_21784" data-name="패스 21784" class="cls-8" d="M170.078,673.774l3.7-.131-10-224.033-3.7.131Z" transform="translate(-51.988 -146.022)"/>
      <path id="패스_21785" data-name="패스 21785" class="cls-5" d="M7.855,376.59,4.145,375.2a4.554,4.554,0,0,1-2.619-2.539L.02,368.984a.256.256,0,0,1,.386-.305l3.9,2.8a1.33,1.33,0,0,0,1.386.1,3.376,3.376,0,0,1,3.166.033l1.6.872Z" transform="translate(0 -119.722)"/>
      <path id="패스_21786" data-name="패스 21786" class="cls-7" d="M39.668,389.527,11.632,369.918l2.608-4.107,27.07,11.7,15.24-29.418,9.9,4.74L49.931,386.859a6.97,6.97,0,0,1-9.315,3.224,7.045,7.045,0,0,1-.947-.556" transform="translate(-3.778 -113.05)"/>
      <path id="패스_21787" data-name="패스 21787" class="cls-5" d="M105.267,484.87l5.6,31.938a5.645,5.645,0,0,1,.079,1.207l-2.713,63.78h4.727l10.6-63.041a31.107,31.107,0,0,0,.463-4.139l3.011-28.832Z" transform="translate(-34.188 -157.474)"/>
      <path id="패스_21788" data-name="패스 21788" class="cls-5" d="M68.458,519.081,35.642,572.123l4.26,2.107,41.412-54.878a16.157,16.157,0,0,0,.853-4.607l1.215-28.037-21.626-.579,6.669,30.655a5.792,5.792,0,0,1,.033,2.3" transform="translate(-11.576 -157.883)"/>
      <path id="패스_21789" data-name="패스 21789" class="cls-5" d="M100.58,303.535h13.177v9.376a5.829,5.829,0,0,1-5.829,5.829h-4.086a3.262,3.262,0,0,1-3.263-3.263h0Z" transform="translate(-32.666 -98.581)"/>
      <path id="패스_21790" data-name="패스 21790" class="cls-5" d="M109.186,318.623l-6.166,1.409L99.8,331.859h10.756Z" transform="translate(-32.414 -103.481)"/>
      <path id="패스_21791" data-name="패스 21791" class="cls-7" d="M123.358,463.072V427.531a316.248,316.248,0,0,0-7.9-70.265s-3.411-14.068-7.427-16.74a14.366,14.366,0,0,0-7.974-2.3H83.825a13.933,13.933,0,0,0-11.281,5.753l-.109.15c-1.728,2.382-2.658,8.191-2.658,8.191a316.324,316.324,0,0,0-10.444,80.613v30.135Z" transform="translate(-19.27 -109.848)"/>
      <path id="패스_21792" data-name="패스 21792" class="cls-2" d="M110.812,304.756H100.58l4.663-9.664h5.569a4.832,4.832,0,1,1,0,9.664" transform="translate(-32.666 -95.839)"/>
      <path id="패스_21793" data-name="패스 21793" class="cls-2" d="M85.552,366.586A10.148,10.148,0,0,0,95.7,356.438V313.5a10.147,10.147,0,0,0-10.147,10.147Z" transform="translate(-27.785 -101.816)"/>
      <path id="패스_21794" data-name="패스 21794" class="cls-2" d="M97.75,311.94H93.066v-7.111a9.736,9.736,0,0,1,9.736-9.736h0v11.795a5.053,5.053,0,0,1-5.053,5.053" transform="translate(-30.226 -95.839)"/>
      <path id="패스_21795" data-name="패스 21795" class="cls-5" d="M104.138,312.055a1.849,1.849,0,1,1-1.849,1.849,1.85,1.85,0,0,1,1.849-1.849" transform="translate(-33.221 -101.348)"/>
      <path id="패스_21796" data-name="패스 21796" class="cls-7" d="M189.793,333.358l-34.675,16.511-34.224-.431,2.788-13.363,29.284,2.645,33.044-8.42Z" transform="translate(-39.263 -107.273)"/>
      <path id="패스_21797" data-name="패스 21797" class="cls-5" d="M221.112,330.029l3.073-2.5a4.553,4.553,0,0,0,1.67-3.241l.251-3.968a.256.256,0,0,0-.464-.166l-2.8,3.9a1.331,1.331,0,0,1-1.283.54,3.373,3.373,0,0,0-2.989,1.044l-1.238,1.337Z" transform="translate(-70.582 -103.944)"/>
      <path id="패스_21798" data-name="패스 21798" class="cls-2" d="M45.931,625.467l-3.984-2.018L37.1,618.638l3.273-1.958,6.022,7.865Z" transform="translate(-12.049 -200.282)"/>
      <path id="패스_21799" data-name="패스 21799" class="cls-2" d="M35.1,619.766l-3.02-1.53,2.408-4.752,4.258,2.161L35.473,617.6Z" transform="translate(-10.419 -199.244)"/>
      <path id="패스_21800" data-name="패스 21800" class="cls-2" d="M124.672,633.625h-4.465l-6.5-2.1,2.034-3.226,8.926,4.294Z" transform="translate(-36.93 -204.055)"/>
      <path id="패스_21801" data-name="패스 21801" class="cls-2" d="M113.041,633.625h-3.385V628.3h4.773l-2.034,3.226Z" transform="translate(-35.613 -204.056)"/>
      <path id="패스_21802" data-name="패스 21802" class="cls-6" d="M213.1,301.8a8.777,8.777,0,1,1-8.777,8.777A8.777,8.777,0,0,1,213.1,301.8" transform="translate(-66.36 -98.016)"/>
      <path id="패스_21803" data-name="패스 21803" class="cls-5" d="M272.431,535.731l6.049,1.383,3.157,11.6h-10.55Z" transform="translate(-88.042 -173.992)"/>
      <path id="패스_21804" data-name="패스 21804" class="cls-5" d="M249.307,482.789l1.363-2.923a4.131,4.131,0,0,1,2.664-1.97l3.521-.8a.233.233,0,0,1,.217.392l-3.088,3.084a1.207,1.207,0,0,0-.3,1.227,3.067,3.067,0,0,1-.5,2.836l-1.019,1.305Z" transform="translate(-80.969 -154.946)"/>
      <path id="패스_21805" data-name="패스 21805" class="cls-6" d="M245.388,551.892l1.106-16.9.259-3.056-17.522-9.939a1.042,1.042,0,0,1-.255-1.163l13.929-33.58-4.192-1.945-20.805,34.018a6.5,6.5,0,0,0,1.128,8.159Z" transform="translate(-70.461 -157.615)"/>
      <path id="패스_21806" data-name="패스 21806" class="cls-6" d="M249.223,554.205l7.409,60.242H281.44l6.887-59.73Z" transform="translate(-80.941 -179.992)"/>
      <path id="패스_21807" data-name="패스 21807" class="cls-5" d="M309.239,487.162l-1.777-2.691a4.133,4.133,0,0,0-2.924-1.558l-3.6-.279a.233.233,0,0,0-.156.419l3.506,2.6a1.206,1.206,0,0,1,.473,1.171,3.068,3.068,0,0,0,.91,2.729l1.2,1.142Z" transform="translate(-97.655 -156.747)"/>
      <path id="패스_21808" data-name="패스 21808" class="cls-6" d="M295.627,550.877l32.391-18.3a6.5,6.5,0,0,0,2.044-9.5l-24.885-33.92-3.945,2.633,17.21,32.455a1.041,1.041,0,0,1-.405,1.394L287.72,535.721Z" transform="translate(-93.444 -158.865)"/>
      <path id="패스_21809" data-name="패스 21809" class="cls-5" d="M282.115,708.4h10l14.995,69.892h-4.639Z" transform="translate(-91.624 -230.071)"/>
      <path id="패스_21810" data-name="패스 21810" class="cls-5" d="M270.28,708.4l1.271,69.892h-4.639L260.277,708.4Z" transform="translate(-84.531 -230.071)"/>
      <path id="패스_21811" data-name="패스 21811" class="cls-7" d="M299.225,817.019H303.6l6.375-2.062-2-3.165L299.225,816Z" transform="translate(-97.181 -263.65)"/>
      <path id="패스_21812" data-name="패스 21812" class="cls-7" d="M313.56,817.019h3.323v-5.227H312.2l2,3.165Z" transform="translate(-101.395 -263.65)"/>
      <path id="패스_21813" data-name="패스 21813" class="cls-7" d="M257.067,817.019h4.379l6.375-2.062-2-3.165L257.067,816Z" transform="translate(-83.489 -263.65)"/>
      <path id="패스_21814" data-name="패스 21814" class="cls-7" d="M271.4,817.019h3.321v-5.227h-4.685l2,3.165Z" transform="translate(-87.701 -263.65)"/>
      <path id="패스_21815" data-name="패스 21815" class="cls-10" d="M273.262,522.269a3.4,3.4,0,1,1-2.712-3.971,3.4,3.4,0,0,1,2.712,3.971v0" transform="translate(-86.559 -168.311)"/>
      <path id="패스_21816" data-name="패스 21816" class="cls-5" d="M275.046,535.813l-3.948-.7a5.718,5.718,0,0,1-4.64-6.623l1.6-9.06,12.732,2.242-2.032,11.539a3.2,3.2,0,0,1-3.708,2.6" transform="translate(-86.51 -168.699)"/>
      <path id="패스_21817" data-name="패스 21817" class="cls-10" d="M281.111,525.641l-6.44-1.8c-5.576-1.677-7.422-4.571-6.679-8.514.266-1.411,1.934-2.28,3.726-1.943l5.621,1.513c3.091.582,5.226,3.026,4.768,5.459Z" transform="translate(-86.986 -166.709)"/>
      <path id="패스_21818" data-name="패스 21818" class="cls-11" d="M283.436,551.6a2,2,0,1,0,2-2,2,2,0,0,0-2,2" transform="translate(-92.053 -178.496)"/>
      <path id="패스_21819" data-name="패스 21819" class="cls-10" d="M255.586,678.5h24.805l8.988-37.475a18.768,18.768,0,0,0-1.266-12.363l-5.6-11.9-29.078-.224-5.7,12.405a18.766,18.766,0,0,0-1.188,12.259Z" transform="translate(-79.9 -200.235)"/>
      <path id="패스_21820" data-name="패스 21820" class="cls-10" d="M296.25,558.965h-4.6a8.315,8.315,0,0,1-8.315-8.313h0V520.815H285.1a11.151,11.151,0,0,1,11.151,11.151v27Z" transform="translate(-92.021 -169.148)"/>
      <path id="패스_21821" data-name="패스 21821" class="cls-10" d="M280.3,526.759v6.132a4.058,4.058,0,0,0,1.823,3.388l1.694,1.116,2.61-7.368Z" transform="translate(-91.034 -171.078)"/>
      <path id="패스_21822" data-name="패스 21822" class="cls-5" d="M278.491,529.039a1.479,1.479,0,1,0,2.026-.521,1.48,1.48,0,0,0-2.026.521h0" transform="translate(-90.38 -171.583)"/>
      <path id="패스_21823" data-name="패스 21823" class="cls-7" d="M270.226,458.9l-15.033,16.223,16.753,8.906,8.434-9.1Z" transform="translate(-82.88 -149.039)"/>
      <path id="패스_21824" data-name="패스 21824" class="cls-7" d="M283.43,501.531l15.034-16.223-10.027-2.673-8.434,9.1Z" transform="translate(-90.938 -156.748)"/>
      <path id="패스_21825" data-name="패스 21825" class="cls-6" d="M246.4,452.45l11.436,14.642,4.033-4.353Z" transform="translate(-80.025 -146.945)"/>
      <rect id="사각형_2703" data-name="사각형 2703" class="cls-10" width="25.343" height="33.922" transform="translate(428.874 364.141)"/>
      <path id="패스_21826" data-name="패스 21826" class="cls-10" d="M705.556,369.983l.871.019A6.721,6.721,0,0,1,713,376.87l-.13,5.9a4.76,4.76,0,0,1-4.864,4.655l-2.831-.062Z" transform="translate(-229.023 -120.161)"/>
      <path id="패스_21827" data-name="패스 21827" class="cls-5" d="M646.211,530.091l-2.886,4.287a4.834,4.834,0,0,0-.706,3.81l.959,4.113a.27.27,0,0,0,.522.027l1.66-4.825a1.413,1.413,0,0,1,1.139-.939,3.587,3.587,0,0,0,2.722-1.977l.85-1.739Z" transform="translate(-208.666 -172.16)"/>
      <path id="패스_21828" data-name="패스 21828" class="cls-7" d="M708.175,513.777,704.25,627.261l-4.733-.009-8.231-59.42a26.254,26.254,0,0,1-.246-3.141l-.633-33.793-4.213-.094-16.853,34.981,12.588,54.173-3.833,2.776-23.136-53.046a12.173,12.173,0,0,1-.4-8.683l15.875-48.07Z" transform="translate(-212.385 -166.589)"/>
      <path id="패스_21829" data-name="패스 21829" class="cls-9" d="M708.313,687.507l4.425.009,4.428-1.418.007-3.854-4.429,2.133-4.427,1.036Z" transform="translate(-230.042 -221.576)"/>
      <path id="패스_21830" data-name="패스 21830" class="cls-9" d="M722.8,687.525l3.356.007.009-5.282-4.732-.009-.007,3.854Z" transform="translate(-234.301 -221.575)"/>
      <path id="패스_21831" data-name="패스 21831" class="cls-9" d="M683.092,685.016l3.584-2.6,2.747-3.752-2.261-3.122-2.328,4.33-2.971,3.444Z" transform="translate(-221.452 -219.401)"/>
      <path id="패스_21832" data-name="패스 21832" class="cls-9" d="M693.924,677.683l2.718-1.968-3.1-4.278-3.833,2.776,2.26,3.122Z" transform="translate(-224.001 -218.066)"/>
      <path id="패스_21833" data-name="패스 21833" class="cls-8" d="M716.427,482.92,673.7,481.97l-3.612-60.325a9.21,9.21,0,0,1,9.413-9h0l29.26.652a9.21,9.21,0,0,1,9,9.415L713.59,460.8Z" transform="translate(-217.629 -134.015)"/>
      <path id="패스_21834" data-name="패스 21834" class="cls-5" d="M702.6,394.011l-4.23-.093a6.035,6.035,0,0,1-5.9-6.165h0l.213-9.706,13.64.3-.272,12.363a3.376,3.376,0,0,1-3.45,3.3" transform="translate(-224.896 -122.78)"/>
      <path id="패스_21835" data-name="패스 21835" class="cls-5" d="M704.588,395.41l-6.347-1.6-1.723,13.667,4.321,7.364,6.8-7.116Z" transform="translate(-226.212 -127.9)"/>
      <path id="패스_21836" data-name="패스 21836" class="cls-8" d="M652.259,497.265,648,494.506l8.316-27.837,6.848-44.395,11.074-1.749-6.685,49.264Z" transform="translate(-210.454 -136.576)"/>
      <path id="패스_21837" data-name="패스 21837" class="cls-10" d="M705.08,378.224l-9.016-.2a8.257,8.257,0,0,1-8.07-8.438v0l11.805.263a5.47,5.47,0,0,1,5.343,5.587Z" transform="translate(-223.443 -120.031)"/>
      <path id="패스_21838" data-name="패스 21838" class="cls-5" d="M712.757,387.026a1.6,1.6,0,1,1-1.564-1.635A1.6,1.6,0,0,1,712.757,387.026Z" transform="translate(-230.447 -125.166)"/>
      <path id="패스_21839" data-name="패스 21839" class="cls-8" d="M713,407.1l14.529,51.6,2.074,1.117a4.787,4.787,0,0,0,7.008-4.891L731.7,420.611l-6.058-5.253,4.09,17.229-12.913-26.4Z" transform="translate(-231.563 -131.919)"/>
      <path id="패스_21840" data-name="패스 21840" class="cls-7" d="M709.722,397.66a.872.872,0,0,1-.473-1.139h0l3.876-9.318a.873.873,0,0,1,1.613.666l0,0-3.876,9.318a.872.872,0,0,1-1.138.471" transform="translate(-230.325 -125.578)"/>
      <path id="패스_21841" data-name="패스 21841" class="cls-5" d="M716.367,400.12l1.3-4.794a4.84,4.84,0,0,0-.174-3.872l-1.865-3.789a.27.27,0,0,0-.515.092l-.526,5.076a1.413,1.413,0,0,1-.9,1.172c-.111.043-.219.091-.324.144a3.375,3.375,0,0,0-1.73,3.5l.9,3.388Z" transform="translate(-231.11 -125.852)"/>
      <path id="패스_21842" data-name="패스 21842" class="cls-3" d="M31.387,250.824l-1.968-.481a264.658,264.658,0,0,1,257-201.494v2.026A261.819,261.819,0,0,0,31.387,250.824" transform="translate(-9.555 -15.865)"/>
      <path id="패스_21843" data-name="패스 21843" class="cls-3" d="M738.893,430.608l-1.908-.679a262.881,262.881,0,0,0-81.961-291.953L656.3,136.4a264.9,264.9,0,0,1,82.591,294.2" transform="translate(-212.736 -44.301)"/>
      <path id="패스_21844" data-name="패스 21844" class="cls-2" d="M453.618,41.828l-32.38.3L416.859,25.15Z" transform="translate(-135.385 -8.168)"/>
      <path id="패스_21845" data-name="패스 21845" class="cls-3" d="M453.768,49.85l-32.38.3L417.322,67.2Z" transform="translate(-135.536 -16.19)"/>
      <path id="패스_21846" data-name="패스 21846" class="cls-2" d="M750.97,613.712,765.757,584.9l17.064,4.009Z" transform="translate(-243.897 -189.962)"/>
      <path id="패스_21847" data-name="패스 21847" class="cls-3" d="M750.97,608.169l14.787-28.809-13.206-11.525Z" transform="translate(-243.897 -184.419)"/>
      <path id="패스_21848" data-name="패스 21848" class="cls-3" d="M448.923,360.15c1.078.059,2.151.151,3.2.292-1.053-.142-2.12-.233-3.2-.292" transform="translate(-145.799 -116.968)"/>
      <path id="패스_21849" data-name="패스 21849" class="cls-3" d="M378.378,367.51a41.844,41.844,0,0,0-65.8,34.339,37.069,37.069,0,0,0,2.76,13.757l62.587-48.389c.149.1.3.19.45.294" transform="translate(-101.519 -116.91)"/>
      <path id="패스_21850" data-name="패스 21850" class="cls-3" d="M380.111,376.659l6.18-3.9,20.085-12.666c-.779-.043-1.55-.116-2.338-.116a41.75,41.75,0,0,0-7.57.715L384.772,371.26l-4.661,4.212L365.573,385.3,317.915,417.5a50.313,50.313,0,0,0,2.4,4.716l43.948-33.487Z" transform="translate(-103.251 -116.912)"/>
      <path id="패스_21851" data-name="패스 21851" class="cls-3" d="M381.709,385.451l10.7-6.948,25.428-16.513a41.712,41.712,0,0,0-6.663-1.409L391.108,376.7l-9.4,7.55L364.2,396.046,322.84,423.9c.919,1.471,1.9,2.917,2.959,4.333L363.871,399.1Z" transform="translate(-104.85 -117.108)"/>
      <path id="패스_21852" data-name="패스 21852" class="cls-3" d="M366.066,408.245l17.579-13.527,14.187-9.351,29.6-19.507a41.631,41.631,0,0,0-7.663-3.188c.745.228,1.467.506,2.2.775L396.78,383.221l-13.13,10.311L365.8,405.494l-37,24.794c1.076,1.371,2.212,2.714,3.394,4.03.024-.017.032-.032.057-.049Z" transform="translate(-106.786 -117.787)"/>
      <path id="패스_21853" data-name="패스 21853" class="cls-3" d="M429.632,367.39c.576.314,1.124.675,1.683,1.013l-29.568,22.918-15.9,12.328L369.22,414.718l-33.649,22.441c1.21,1.291,2.468,2.546,3.755,3.779l1.049-.828,29.562-22.926,15.906-12.336,16.625-11.061,33.411-22.235c.466.373.915.76,1.365,1.158L403.42,398.717l-17.579,13.518L371.648,421.6,342.054,441.12l-1.5,1c1.312,1.22,2.658,2.4,4.02,3.559l2.946-2.14,25.185-19.783,13.134-10.315,17.851-11.958,37.335-25.009c.379.427.782.839,1.145,1.284l-38.5,29.437-17.834,13.643-10.7,6.961L349.712,444.31l-3.752,2.521q2.258,1.86,4.556,3.6l5.854-4.712,20.066-16.126,9.4-7.56,17.515-11.787,41.871-28.183c.3.481.605.964.886,1.459L401.69,417.348l-15.852,12.07-6.194,3.91-20.093,12.68-7.864,5.3q3.151,2.335,6.278,4.43l14.358-12.868,8.86-8.029,4.658-4.223,14.554-9.827,48.092-32.48c.263.633.483,1.3.715,1.951L386.288,438.88l-25.17,18.929a194.74,194.74,0,0,0,24.727,13.52s65.8-28.532,65.8-67.068a41.862,41.862,0,0,0-22.01-36.871" transform="translate(-108.985 -119.319)"/>
      <path id="패스_21854" data-name="패스 21854" class="cls-3" d="M316.207,442.6c.232.653.449,1.312.712,1.949l.436-.292c-.285-.633-.581-1.258-.837-1.9Z" transform="translate(-102.696 -143.669)"/>
      <path id="패스_21855" data-name="패스 21855" class="cls-3" d="M421.36,364.867c.035-.016.072-.034.11-.048a1.072,1.072,0,0,0-.11.048" transform="translate(-136.847 -118.484)"/>
      <path id="패스_21856" data-name="패스 21856" class="cls-12" d="M379.476,432.157l10.7-6.961,17.844-13.642,38.5-29.437c-.364-.446-.76-.857-1.145-1.284l-37.351,25.012L390.178,417.8l-13.136,10.316L351.858,447.9l-2.947,2.14q.692.585,1.393,1.158l3.752-2.521Z" transform="translate(-113.318 -123.685)"/>
      <path id="패스_21857" data-name="패스 21857" class="cls-12" d="M373.46,423.6l14.195-9.365,17.577-13.518,33.824-26.006c-.449-.392-.9-.785-1.365-1.158l-33.411,22.235-16.623,11.061-15.907,12.336-29.561,22.927-1.051.827c.411.4.815.791,1.232,1.177l1.5-.995Z" transform="translate(-110.793 -121.319)"/>
      <path id="패스_21858" data-name="패스 21858" class="cls-12" d="M385.274,403.651l15.9-12.328L430.746,368.4c-.56-.338-1.107-.7-1.683-1.012l-29.6,19.509-14.187,9.351L367.7,409.779,333.875,435.8c-.024.016-.033.03-.057.048.4.438.783.878,1.184,1.311l33.65-22.442Z" transform="translate(-108.416 -119.32)"/>
      <path id="패스_21859" data-name="패스 21859" class="cls-12" d="M459.969,400.328c-.233-.656-.452-1.313-.715-1.951l-48.092,32.48-14.548,9.827-4.658,4.224-8.859,8.028-14.353,12.871q1.589,1.066,3.148,2.069l25.168-18.929Z" transform="translate(-119.759 -129.383)"/>
      <path id="패스_21860" data-name="패스 21860" class="cls-12" d="M383.13,393.532l13.129-10.311,25.185-19.776c-.729-.266-1.449-.547-2.2-.775l-25.421,16.513-10.7,6.948-17.845,13.652-38.073,29.127c.344.463.7.92,1.059,1.377l37-24.794Z" transform="translate(-106.271 -117.787)"/>
      <path id="패스_21861" data-name="패스 21861" class="cls-12" d="M381.268,384.112l9.4-7.55,20.064-16.12c-1.052-.141-2.119-.233-3.2-.292l-20.085,12.666-6.18,3.9-15.843,12.074-43.948,33.49c.29.506.612.988.922,1.481l41.355-27.85Z" transform="translate(-104.408 -116.968)"/>
      <path id="패스_21862" data-name="패스 21862" class="cls-12" d="M379.71,375.817l4.661-4.211,11.7-10.569a41.844,41.844,0,0,0-8.591,2.554c-.038.014-.075.032-.11.048-1.188.506-2.339,1.07-3.47,1.675-.266.145-.532.285-.794.433-1.161.656-2.3,1.347-3.389,2.107-.145-.1-.3-.188-.45-.29l-62.588,48.385c.253.64.554,1.265.837,1.9l47.656-32.208Z" transform="translate(-102.848 -117.256)"/>
      <path id="패스_21863" data-name="패스 21863" class="cls-12" d="M386.84,440.388l6.194-3.91,15.851-12.07,44.422-33.826c-.282-.495-.584-.978-.886-1.459l-41.872,28.182-17.513,11.788-9.4,7.56L363.561,452.78l-5.854,4.712c.39.3.779.583,1.172.875l7.863-5.3Z" transform="translate(-116.174 -126.378)"/>
    </g>
  </g>
</svg>
