<svg xmlns="http://www.w3.org/2000/svg" width="21.331" height="21.332" viewBox="0 0 21.331 21.332">
  <defs>
    <style>
      .cls-1 {
        fill: #fff;
      }
    </style>
  </defs>
  <path id="합치기_11" data-name="합치기 11" class="cls-1" d="M12993,4672.331a1,1,0,0,1-.117-1.994l.117-.006h8a1,1,0,0,1,.117,1.994l-.117.006Zm-10.618,0a1.379,1.379,0,0,1-1.37-1.23l-.01-.137v-.052l.14-4.64a.974.974,0,0,1,.209-.584l.082-.095,11.969-11.97a1.028,1.028,0,0,1,.291-.2,2.015,2.015,0,0,1,.31-.4l1.146-1.148a3,3,0,0,1,3.69-.434l.17.1a8.481,8.481,0,0,1,2.774,2.773l.1.17a2.992,2.992,0,0,1-.434,3.694l-1.854,1.854h0l-11.858,11.858a1,1,0,0,1-.549.281l-.127.013-4.641.14Zm.744-5.6-.107,3.583,3.583-.107,10.876-10.873-3.476-3.479Zm13.435-13.435-1.146,1.146,3.476,3.475,1.148-1.145a1,1,0,0,0,.2-1.12l-.059-.111-.1-.169a6.441,6.441,0,0,0-2.117-2.118l-.167-.1a1,1,0,0,0-1.233.144Z" transform="translate(-12981.001 -4651)"/>
</svg>
